<svg width="15" height="8" viewBox="0 0 15 8" fill="none" xmlns="http://www.w3.org/2000/svg">
<path d="M0.936208 0.299316C1.18476 0.299535 1.42306 0.39845 1.59871 0.574316L6.39371 5.36932C6.5388 5.51445 6.71107 5.62958 6.90067 5.70813C7.09027 5.78668 7.29348 5.82711 7.49871 5.82711C7.70393 5.82711 7.90715 5.78668 8.09675 5.70813C8.28634 5.62958 8.45861 5.51445 8.60371 5.36932L13.3956 0.580566C13.5724 0.409793 13.8092 0.315298 14.055 0.317434C14.3008 0.31957 14.536 0.418166 14.7098 0.591987C14.8836 0.765807 14.9822 1.00094 14.9843 1.24675C14.9865 1.49256 14.892 1.72938 14.7212 1.90619L9.93308 6.69494C9.28792 7.33884 8.41365 7.70047 7.50214 7.70047C6.59064 7.70047 5.71637 7.33884 5.07121 6.69494L0.276208 1.89994C0.145197 1.76902 0.0559034 1.60222 0.0195941 1.4206C-0.0167151 1.23897 0.00158783 1.05066 0.0721931 0.879434C0.142798 0.708203 0.262542 0.561722 0.416313 0.458477C0.570085 0.355232 0.750992 0.299848 0.936208 0.299316Z" fill="white" style="fill:white;fill-opacity:1;"/>
</svg>
