<svg width="146" height="30" viewBox="0 0 146 30" fill="none" xmlns="http://www.w3.org/2000/svg">
<path d="M17.4218 30H29.0161L17.4485 0H14.508H11.5676L0 30H11.5942V24.5129H8.0177L14.508 7.86485L20.9984 24.5129H17.4218V30Z" fill="white" style="fill:white;fill-opacity:1;"/>
<path d="M42.1532 0.271851L34.0156 18.2558H36.5752L38.6335 13.6683H47.7562L49.7896 18.2558H52.4491L44.3117 0.271851H42.1532ZM46.7644 11.4062H39.627L43.2069 3.41859L46.7644 11.4062Z" fill="white" style="fill:white;fill-opacity:1;"/>
<path d="M62.3503 14.9441L56.3428 0.395752H53.6133L61.2916 18.3796H63.3584L71.0367 0.395752H68.3819L62.3503 14.9441Z" fill="white" style="fill:white;fill-opacity:1;"/>
<path d="M80.3407 0.271851L72.2031 18.2558H74.7627L76.821 13.6683H85.9437L87.9771 18.2558H90.6365L82.4992 0.271851H80.3407ZM84.9519 11.4062H77.8145L81.3944 3.41859L84.9519 11.4062Z" fill="white" style="fill:white;fill-opacity:1;"/>
<path d="M95.8821 0.395752H93.4219V18.2557H105.653V15.9441H95.8821V0.395752Z" fill="white" style="fill:white;fill-opacity:1;"/>
<path d="M117.13 0.0982666C114.492 0.0982666 112.286 1.01307 110.576 2.81746C108.868 4.61782 108.002 6.80765 108.002 9.32586C108.002 11.8603 108.859 14.0539 110.55 15.8463C112.245 17.6426 114.442 18.5535 117.081 18.5535C119.719 18.5535 121.925 17.6387 123.636 15.8343C125.343 14.0335 126.209 11.8438 126.209 9.32586C126.209 6.79198 125.352 4.59824 123.661 2.80547C121.966 1.00915 119.769 0.0982666 117.13 0.0982666ZM117.13 16.2416C115.245 16.2416 113.658 15.5677 112.416 14.2385C111.169 12.9042 110.537 11.2513 110.537 9.32586C110.537 7.38353 111.161 5.72626 112.392 4.40031C113.618 3.07952 115.195 2.40988 117.081 2.40988C118.966 2.40988 120.553 3.08392 121.795 4.41342C123.042 5.74768 123.674 7.40054 123.674 9.32586C123.674 11.268 123.05 12.9251 121.82 14.2512C120.594 15.5719 119.016 16.2416 117.13 16.2416Z" fill="white" style="fill:white;fill-opacity:1;"/>
<path d="M142.62 0.395752V13.8335L132.057 0.395752H129.85V18.2557H132.26V4.4945L143.021 18.1603L143.097 18.2557H145.031V0.395752H142.62Z" fill="white" style="fill:white;fill-opacity:1;"/>
<path d="M73.6193 27.9017H72.7698V21.7697H77.2206V22.5042H73.6193V24.672H77.0259V25.4065H73.6193V27.9017ZM78.4452 25.7339V21.7697H79.2946V25.7339C79.2946 26.2766 79.445 26.6747 79.7459 26.9284C80.0526 27.1762 80.5393 27.3 81.2059 27.3C81.8784 27.3 82.368 27.1762 82.6747 26.9284C82.9874 26.6747 83.1437 26.2766 83.1437 25.7339V21.7697H83.9843V25.7339C83.9843 26.5125 83.7542 27.0906 83.2941 27.4682C82.8399 27.8457 82.1438 28.0345 81.2059 28.0345C80.2679 28.0345 79.5719 27.8486 79.1176 27.477C78.6693 27.0995 78.4452 26.5184 78.4452 25.7339ZM88.0741 27.9017H87.2335V22.5042H84.9152V21.7697H90.3836V22.5042H88.0741V27.9017ZM91.3031 25.7339V21.7697H92.1526V25.7339C92.1526 26.2766 92.303 26.6747 92.6038 26.9284C92.9106 27.1762 93.3972 27.3 94.0638 27.3C94.7363 27.3 95.2259 27.1762 95.5327 26.9284C95.8453 26.6747 96.0017 26.2766 96.0017 25.7339V21.7697H96.8423V25.7339C96.8423 26.5125 96.6122 27.0906 96.1521 27.4682C95.6979 27.8457 95.0018 28.0345 94.0638 28.0345C93.1259 28.0345 92.4298 27.8486 91.9756 27.477C91.5273 27.0995 91.3031 26.5184 91.3031 25.7339ZM101.224 25.7516L104.073 27.9017H102.826L99.9676 25.7604H99.1712V27.9017H98.3129V21.7697H100.826C102.696 21.7697 103.631 22.4098 103.631 23.6899C103.631 24.964 102.829 25.6513 101.224 25.7516ZM100.826 22.5042H99.1712V25.026H100.826C101.504 25.026 101.997 24.9227 102.304 24.7163C102.61 24.5039 102.764 24.1618 102.764 23.6899C102.764 23.2769 102.607 22.9761 102.295 22.7873C101.982 22.5985 101.492 22.5042 100.826 22.5042ZM109.981 27.9017H105.096V21.7697H109.91V22.5042H105.946V24.3446H109.627V25.0791H105.946V27.1673H109.981V27.9017ZM116.9 27.1673L118.864 21.7697H119.74L117.554 27.9017H115.581L113.378 21.7697H114.263L116.227 27.1673H116.9ZM126.004 27.9017H125.137L124.526 26.1763H120.827L120.217 27.9017H119.359L121.544 21.7697H123.827L126.004 27.9017ZM122.137 22.5042L121.093 25.4419H124.261L123.217 22.5042H122.137ZM131.443 27.9017H126.993V21.7697H127.842V27.1673H131.443V27.9017ZM132.504 25.7339V21.7697H133.353V25.7339C133.353 26.2766 133.504 26.6747 133.805 26.9284C134.111 27.1762 134.598 27.3 135.265 27.3C135.937 27.3 136.427 27.1762 136.733 26.9284C137.046 26.6747 137.202 26.2766 137.202 25.7339V21.7697H138.043V25.7339C138.043 26.5125 137.813 27.0906 137.353 27.4682C136.899 27.8457 136.203 28.0345 135.265 28.0345C134.327 28.0345 133.631 27.8486 133.176 27.477C132.728 27.0995 132.504 26.5184 132.504 25.7339ZM144.398 27.9017H139.514V21.7697H144.327V22.5042H140.363V24.3446H144.044V25.0791H140.363V27.1673H144.398V27.9017Z" fill="white" style="fill:white;fill-opacity:1;"/>
</svg>
