<svg width="8" height="11" viewBox="0 0 8 11" fill="none" xmlns="http://www.w3.org/2000/svg">
<g clip-path="url(#clip0_637_2585)">
<path d="M3.69891 10.3891C3.69891 10.3891 7.39783 6.91785 7.39783 4.28418C7.39783 3.31271 7.00812 2.38101 6.31444 1.69407C5.62075 1.00713 4.67993 0.621216 3.69891 0.621216C2.71789 0.621216 1.77707 1.00713 1.08339 1.69407C0.389706 2.38101 1.46182e-08 3.31271 0 4.28418C0 6.91785 3.69891 10.3891 3.69891 10.3891ZM3.69891 6.11565C3.20841 6.11565 2.73798 5.92271 2.39114 5.57924C2.04431 5.23575 1.84946 4.76992 1.84946 4.28418C1.84946 3.79844 2.04431 3.33259 2.39114 2.98912C2.73798 2.64565 3.20841 2.4527 3.69891 2.4527C4.18941 2.4527 4.65984 2.64565 5.00669 2.98912C5.35351 3.33259 5.54837 3.79844 5.54837 4.28418C5.54837 4.76992 5.35351 5.23575 5.00669 5.57924C4.65984 5.92271 4.18941 6.11565 3.69891 6.11565Z" fill="white" style="fill:white;fill-opacity:1;"/>
</g>
<defs>
<clipPath id="clip0_637_2585">
<rect width="7.39783" height="9.94083" fill="white" style="fill:white;fill-opacity:1;" transform="translate(0 0.621216)"/>
</clipPath>
</defs>
</svg>
