<svg width="21" height="21" viewBox="0 0 21 21" fill="none" xmlns="http://www.w3.org/2000/svg">
<g clip-path="url(#clip0_597_6587)">
<path d="M10.5261 0.5C7.20014 0.503662 4.50473 3.09089 4.50043 6.28382V16.1797C4.47809 17.716 5.31902 19.1448 6.7013 19.9192C8.08358 20.6936 9.79309 20.6936 11.1754 19.9192C12.5576 19.1448 13.3986 17.716 13.3762 16.1797V8.57042C13.3762 7.05931 12.1002 5.83431 10.5261 5.83431C8.95203 5.83431 7.67599 7.05931 7.67599 8.57042V15.0406C7.67599 15.4994 8.06349 15.8714 8.5415 15.8714C9.0195 15.8714 9.40701 15.4994 9.40701 15.0406V8.57042C9.40701 7.97708 9.90805 7.49608 10.5261 7.49608C11.1442 7.49608 11.6452 7.97708 11.6452 8.57042V16.1797C11.6627 17.1192 11.1506 17.9946 10.3059 18.4692C9.46123 18.9439 8.41543 18.9439 7.57073 18.4692C6.72602 17.9946 6.21395 17.1192 6.23145 16.1797V6.28382C6.23145 4.00682 8.15424 2.16095 10.5261 2.16095C12.898 2.16095 14.8208 4.00682 14.8208 6.28382V12.5479C14.8208 13.0068 15.2083 13.3788 15.6863 13.3788C16.1643 13.3788 16.5518 13.0068 16.5518 12.5479V6.28382C16.5475 3.09089 13.8521 0.503662 10.5261 0.5Z" fill="white" style="fill:white;fill-opacity:1;"/>
</g>
<defs>
<clipPath id="clip0_597_6587">
<rect width="20" height="20" fill="white" style="fill:white;fill-opacity:1;" transform="translate(0.5 0.5)"/>
</clipPath>
</defs>
</svg>
