<svg width="16" height="16" viewBox="0 0 16 16" fill="none" xmlns="http://www.w3.org/2000/svg">
<path d="M16 8C16 6.41775 15.5308 4.87103 14.6518 3.55544C13.7727 2.23985 12.5233 1.21447 11.0615 0.608967C9.59966 0.00346629 7.99113 -0.15496 6.43928 0.153721C4.88743 0.462403 3.46197 1.22433 2.34315 2.34315C1.22433 3.46197 0.462403 4.88743 0.153721 6.43928C-0.15496 7.99113 0.00346623 9.59966 0.608967 11.0615C1.21447 12.5233 2.23985 13.7727 3.55544 14.6518C4.87103 15.5308 6.41775 16 8 16C10.121 15.9975 12.1544 15.1539 13.6541 13.6541C15.1539 12.1544 15.9975 10.121 16 8ZM12 13.8747V12C12 11.8821 11.9532 11.7691 11.8698 11.6857C11.7865 11.6024 11.6734 11.5556 11.5556 11.5556H10.2222C10.1044 11.5564 9.99142 11.6026 9.90667 11.6844L8.18222 13.4133L5.62222 14.6933C4.58379 14.3276 3.64482 13.7251 2.87977 12.9334C2.11472 12.1417 1.54461 11.1827 1.21466 10.1323C0.884702 9.08201 0.80397 7.96925 0.978861 6.88229C1.15375 5.79532 1.57946 4.76405 2.22223 3.87022V6.22222C2.2231 6.34005 2.26925 6.45303 2.35111 6.53778L3.68445 7.87111C3.7692 7.95298 3.88218 7.99912 4 8H5.15111L5.81334 8.66222L6.23111 10.7556C6.24649 10.832 6.28169 10.903 6.33317 10.9615C6.38466 11.02 6.45062 11.0639 6.52445 11.0889L7.85778 11.5333C7.90395 11.5472 7.9518 11.5547 8 11.5556C8.11807 11.5559 8.23149 11.5096 8.31556 11.4267L9.20445 10.5378C9.25349 10.4872 9.29022 10.426 9.31181 10.359C9.33339 10.2919 9.33923 10.2208 9.32889 10.1511C9.31733 10.0819 9.28955 10.0165 9.24784 9.96008C9.20613 9.90369 9.15166 9.85797 9.08889 9.82667L8.36445 9.46222L8.12 8.72445L9.03111 8.42222C9.11888 8.39161 9.19504 8.3346 9.24914 8.25901C9.30325 8.18342 9.33265 8.09296 9.33333 8V7.11556C9.33355 7.0283 9.3072 6.94303 9.25778 6.87111L8.57334 5.84L10.0933 4.32C10.1745 4.23478 10.2205 4.1221 10.2222 4.00445V2.67111C10.2234 2.58918 10.2002 2.50874 10.1556 2.44L9.276 1.00978C10.8324 1.29583 12.2487 2.09361 13.3 3.27645L12.1822 4.08889C12.1256 4.13027 12.0796 4.18445 12.0479 4.24702C12.0162 4.30959 11.9998 4.37876 12 4.44889V6.22667C12.0017 6.34433 12.0478 6.45701 12.1289 6.54222L13.7244 8.13334L12.9067 10.9911C12.887 11.0566 12.8832 11.1258 12.8956 11.193C12.9079 11.2603 12.9361 11.3236 12.9778 11.3778C13.0195 11.4326 13.0733 11.4772 13.1349 11.508C13.1965 11.5388 13.2644 11.5551 13.3333 11.5556H14.1489C13.6143 12.479 12.8801 13.2713 12 13.8747Z" fill="white" style="fill:white;fill-opacity:1;"/>
</svg>
