<svg width="157" height="156" viewBox="0 0 157 156" fill="none" xmlns="http://www.w3.org/2000/svg">
<path d="M87.0515 108.629H111.13L87.1068 46.6292H81.0003H74.8938L50.8711 108.629H74.9492V97.2891H67.5217L81.0003 62.8832L94.479 97.2891H87.0515V108.629Z" fill="white" style="fill:white;fill-opacity:1;"/>
<path opacity="0.4" fill-rule="evenodd" clip-rule="evenodd" d="M16 0C7.43959 0 0.5 6.93959 0.5 15.5V140.5C0.5 149.06 7.43959 156 16 156H136.5C136.776 156 137 155.776 137 155.5C137 155.224 136.776 155 136.5 155H16C7.99188 155 1.5 148.508 1.5 140.5V15.5C1.5 7.49188 7.99187 1 16 1H141C149.008 1 155.5 7.49187 155.5 15.5V136C155.5 136.276 155.724 136.5 156 136.5C156.276 136.5 156.5 136.276 156.5 136V15.5C156.5 6.93959 149.56 0 141 0H16Z" fill="white" style="fill:white;fill-opacity:1;"/>
<rect x="154" y="153.5" width="2" height="2" rx="1" fill="white" style="fill:white;fill-opacity:1;"/>
</svg>
