<svg width="106" height="138" viewBox="0 0 106 138" fill="none" xmlns="http://www.w3.org/2000/svg">
<path d="M32.8807 113.282V95.7146H28.3815V113.282C28.3815 115.882 27.3277 117.202 25.249 117.202C23.1929 117.202 22.1502 115.882 22.1502 113.282V95.7146H17.6172V113.282C17.6172 115.834 18.338 117.95 19.7015 119.401C21.041 120.827 22.9588 121.58 25.249 121.58C27.5508 121.58 29.4741 120.827 30.8087 119.401C32.1642 117.954 32.8807 115.837 32.8807 113.282Z" fill="white" style="fill:white;fill-opacity:1;"/>
<path d="M32.01 126.657H30.7891V135.159H34.8151V133.992H32.01V126.657Z" fill="white" style="fill:white;fill-opacity:1;"/>
<path d="M27.0519 134.138C26.3145 134.138 25.8432 133.665 25.8432 132.656V129.158C25.8432 128.138 26.3145 127.664 27.0279 127.664C27.8384 127.664 28.2734 128.114 28.3459 129.109H29.5552C29.4821 127.422 28.5758 126.498 27.0402 126.498C25.5525 126.498 24.5977 127.434 24.5977 129.158V132.656C24.5977 134.369 25.5648 135.304 27.0519 135.304C28.6114 135.304 29.5184 134.381 29.6025 132.705H28.3939C28.3097 133.676 27.8734 134.138 27.0519 134.138Z" fill="white" style="fill:white;fill-opacity:1;"/>
<path d="M20.7624 130.383H0.655311C0.320423 130.383 0.0488281 130.656 0.0488281 130.992C0.0488281 131.329 0.320423 131.602 0.655311 131.602H20.7624C21.0973 131.602 21.3689 131.329 21.3689 130.992C21.3689 130.656 21.0973 130.383 20.7624 130.383Z" fill="white" style="fill:white;fill-opacity:1;"/>
<path d="M54.1104 130.276H51.7171V126.657H50.4961V135.159H51.7171V131.43H54.1104V135.159H55.332V126.657H54.1104V130.276Z" fill="white" style="fill:white;fill-opacity:1;"/>
<path d="M66.9874 132.571C66.9874 133.604 66.5161 134.09 65.7425 134.09C64.9805 134.09 64.5092 133.604 64.5092 132.571V126.657H63.2637V132.571C63.2637 134.308 64.2431 135.28 65.7425 135.28C67.2534 135.28 68.2206 134.308 68.2206 132.571V126.657H66.9874V132.571Z" fill="white" style="fill:white;fill-opacity:1;"/>
<path d="M38.9854 132.571C38.9854 133.604 38.5141 134.09 37.7405 134.09C36.9786 134.09 36.5073 133.604 36.5073 132.571V126.657H35.2617V132.571C35.2617 134.308 36.2412 135.28 37.7405 135.28C39.2515 135.28 40.2187 134.308 40.2187 132.571V126.657H38.9854V132.571Z" fill="white" style="fill:white;fill-opacity:1;"/>
<path d="M70.6399 128.672C70.6399 128.065 71.0393 127.677 71.7288 127.677C72.3814 127.677 72.8041 128.065 72.8281 128.879H74.0736C74.0374 127.434 73.1673 126.498 71.7165 126.498C70.2891 126.498 69.3944 127.422 69.3944 128.648C69.3944 131.175 72.9375 131.271 72.9375 132.96C72.9375 133.64 72.538 134.126 71.7288 134.126C70.9791 134.126 70.5072 133.701 70.4955 132.826H69.25C69.2623 134.381 70.2295 135.316 71.7288 135.316C73.3117 135.316 74.1953 134.234 74.1953 132.972C74.1953 130.336 70.6399 130.336 70.6399 128.672Z" fill="white" style="fill:white;fill-opacity:1;"/>
<path d="M87.0207 121.229V95.7146H82.5578V106.177H76.571V95.7146H72.1074V121.229H76.571V110.451H82.5578V121.229H87.0207Z" fill="white" style="fill:white;fill-opacity:1;"/>
<path d="M105.349 130.383H83.2477C82.9128 130.383 82.6406 130.656 82.6406 130.992C82.6406 131.329 82.9128 131.602 83.2477 131.602H105.349C105.685 131.602 105.956 131.329 105.956 130.992C105.956 130.656 105.685 130.383 105.349 130.383Z" fill="white" style="fill:white;fill-opacity:1;"/>
<path d="M76.5159 131.406H79.2122V130.276H76.5159V127.81H79.4414V126.657H75.2949V135.159H79.5618V134.005H76.5159V131.406Z" fill="white" style="fill:white;fill-opacity:1;"/>
<path d="M59.3701 126.498C57.7504 126.498 56.7832 127.579 56.7832 129.353V132.462C56.7832 134.234 57.7504 135.316 59.3701 135.316C60.9911 135.316 61.9577 134.234 61.9577 132.462V129.353C61.9577 127.579 60.9911 126.498 59.3701 126.498ZM60.7005 132.462C60.7005 133.53 60.2415 134.113 59.3701 134.113C58.4878 134.113 58.0398 133.53 58.0398 132.462V129.353C58.0398 128.283 58.4878 127.701 59.3701 127.701C60.2415 127.701 60.7005 128.283 60.7005 129.353V132.462Z" fill="white" style="fill:white;fill-opacity:1;"/>
<path d="M45.4668 130.786C45.9866 130.458 46.3246 129.79 46.3246 128.965C46.3246 127.543 45.4428 126.657 44.0756 126.657H41.7793V135.159H44.1973C45.672 135.159 46.6392 134.247 46.6392 132.729C46.6392 131.806 46.1924 131.09 45.4668 130.786ZM43.0003 127.81H43.9312C44.7171 127.81 45.0796 128.199 45.0796 129C45.0796 129.826 44.7048 130.251 43.9674 130.251H43.0003V127.81ZM44.0393 134.005H43.0003V131.406H43.992C44.8498 131.406 45.3942 131.855 45.3942 132.729C45.3942 133.592 44.9346 134.005 44.0393 134.005Z" fill="white" style="fill:white;fill-opacity:1;"/>
<path d="M93.3226 121.229L94.441 116.278H100.164L101.318 121.229H105.956L99.57 95.7146H95.0321L88.6465 121.229H93.3226ZM96.7938 106.018C96.9818 105.227 97.1588 104.281 97.3081 103.387C97.4685 104.319 97.6448 105.263 97.8071 106.016L99.2111 112.041H95.4223L96.7938 106.018Z" fill="white" style="fill:white;fill-opacity:1;"/>
<path d="M60.8271 95.7146H54.2793V121.229H60.8628C65.8603 121.229 68.8436 118.166 68.8436 113.036V103.838C68.8436 98.7509 65.8468 95.7146 60.8271 95.7146ZM64.345 112.966C64.345 115.59 63.1732 116.921 60.8628 116.921H58.7428V100.022H60.8628C63.1732 100.022 64.345 101.33 64.345 103.908V112.966Z" fill="white" style="fill:white;fill-opacity:1;"/>
<path d="M51.0213 103.838C51.0213 98.7509 48.0245 95.7146 43.0061 95.7146H36.457V121.229H43.0405C48.038 121.229 51.0213 118.166 51.0213 113.036V103.838ZM46.5233 112.966C46.5233 115.59 45.3509 116.921 43.0405 116.921H40.9206V100.022H43.0405C45.3509 100.022 46.5233 101.33 46.5233 103.908V112.966Z" fill="white" style="fill:white;fill-opacity:1;"/>
<path d="M13.2635 119.231C14.619 117.903 15.3349 116.003 15.3349 113.739C15.3349 111.215 14.238 109.141 12.3627 108.04C13.6666 106.883 14.4267 105.005 14.4267 102.854C14.4267 98.5176 11.6911 95.7146 7.45856 95.7146H0.351562V121.229H7.80881C10.0424 121.229 11.9282 120.538 13.2635 119.231ZM4.81448 99.9879H7.03949C9.04022 99.9879 9.8931 100.877 9.8931 102.96C9.8931 105.108 9.01933 106.107 7.14395 106.107H4.81448V99.9879ZM4.81448 116.957V110.381H7.214C9.52749 110.381 10.8013 111.573 10.8013 113.739C10.8013 115.933 9.7063 116.957 7.3541 116.957H4.81448Z" fill="white" style="fill:white;fill-opacity:1;"/>
<path d="M19.4666 71.2715C19.4667 71.2695 19.4668 71.2675 19.4669 71.2654C19.6837 71.5433 19.9035 71.8178 20.1251 72.0855C19.9892 72.4864 19.8736 72.881 19.7745 73.2674C19.7032 73.5143 19.6317 73.7636 19.5858 74.0216C19.4206 74.7128 19.3598 75.4385 19.3232 76.1625C19.3278 76.888 19.3566 77.6183 19.5003 78.3194C19.5339 78.4948 19.5602 78.6709 19.6 78.8429C19.6468 79.0133 19.6934 79.1827 19.7397 79.3511C19.8222 79.6907 19.9489 80.0111 20.0676 80.3269C20.0973 80.4057 20.1269 80.4842 20.1564 80.5624C20.1845 80.6411 20.2247 80.7142 20.258 80.7897C20.3273 80.9397 20.3974 81.0873 20.4682 81.2323C20.6004 81.5272 20.7669 81.7949 20.922 82.0581C21.0009 82.1889 21.0766 82.3188 21.1548 82.4441C21.2402 82.5649 21.3227 82.6846 21.4071 82.7999C21.4907 82.9154 21.5729 83.0289 21.6536 83.1403C21.6938 83.1958 21.7337 83.2508 21.7732 83.3052C21.8137 83.3588 21.8589 83.4081 21.9014 83.4585C22.2458 83.8579 22.5511 84.2271 22.8665 84.5135C23.1724 84.8076 23.4327 85.0655 23.6764 85.2487C23.9114 85.4401 24.1018 85.5824 24.2283 85.682C24.3571 85.7788 24.4258 85.8305 24.4258 85.8305C24.4258 85.8305 24.3782 85.7581 24.2889 85.6224C24.1973 85.4894 24.0677 85.2906 23.8955 85.0479C23.7172 84.8102 23.5322 84.4974 23.3095 84.1528C23.0764 83.8155 22.8608 83.4053 22.6092 82.9761C22.5788 82.9218 22.5455 82.8685 22.5155 82.8126C22.4873 82.7558 22.4587 82.6984 22.4299 82.6405C22.3725 82.525 22.314 82.4074 22.2544 82.2877C22.1957 82.168 22.1327 82.0485 22.0703 81.9266C22.0149 81.8011 21.9626 81.6721 21.9075 81.5428C21.8009 81.2826 21.6714 81.0255 21.5857 80.7443C21.4961 80.4653 21.3727 80.193 21.3045 79.8975C21.228 79.6053 21.1288 79.3153 21.0772 79.0099C21.0458 78.8589 21.0141 78.707 20.9823 78.5543C20.9533 78.4013 20.9371 78.2453 20.9134 78.0903L20.8802 77.8569C20.8688 77.7791 20.8561 77.7013 20.8538 77.6221C20.8447 77.4644 20.8322 77.3067 20.8194 77.1487C20.814 77.0697 20.8046 76.9908 20.8023 76.9114L20.8014 76.6729L20.798 76.1955L20.8218 75.718L20.8337 75.4794C20.8361 75.4316 20.8418 75.384 20.8479 75.3365C20.8493 75.3373 20.8505 75.339 20.8518 75.3396C21.5369 71.3957 23.6204 68.2743 23.6562 68.2253C22.8998 69.9236 22.5368 71.4591 22.4218 72.8136L22.4216 72.8137C22.4216 72.8137 21.7212 78.1436 25.7277 84.5962C25.7778 84.6881 25.828 84.7798 25.8768 84.8708C26.1133 85.3318 26.4026 85.7537 26.6629 86.166C26.7292 86.2684 26.7949 86.37 26.86 86.4706C26.9278 86.5699 27.001 86.665 27.0709 86.7603C27.2123 86.9501 27.3484 87.1372 27.4864 87.3166C27.5563 87.4058 27.6195 87.4972 27.6927 87.5815C27.7648 87.6661 27.8362 87.7499 27.9067 87.8326C28.048 87.9975 28.1836 88.1593 28.3208 88.3126C28.387 88.3908 28.4583 88.4641 28.5296 88.5355C28.6001 88.6071 28.6697 88.6778 28.7382 88.7475C28.875 88.8867 29.0074 89.0213 29.1384 89.1485C29.276 89.2702 29.4092 89.3879 29.5377 89.5016C29.6673 89.6135 29.7848 89.7261 29.9142 89.8203C30.0396 89.9167 30.1598 90.0092 30.2748 90.0976C30.3322 90.1411 30.3884 90.1835 30.4432 90.2249C30.5007 90.2635 30.5567 90.3011 30.6113 90.3377C30.7198 90.4101 30.8226 90.4787 30.9192 90.5433C31.015 90.6078 31.1136 90.6589 31.2 90.7108C31.2881 90.7611 31.3673 90.8093 31.443 90.8496C31.5197 90.888 31.5894 90.923 31.6519 90.9542C31.7741 91.0186 31.8763 91.056 31.9409 91.0849C32.007 91.1125 32.0418 91.1244 32.0418 91.1244C32.0418 91.1244 31.9383 91.0182 31.764 90.808C31.676 90.704 31.5704 90.5746 31.4515 90.4181C31.3298 90.2659 31.1993 90.082 31.0538 89.8795C31.0175 89.829 30.9803 89.7773 30.9421 89.7241C30.9059 89.6692 30.8688 89.6129 30.8307 89.5552C30.7549 89.4412 30.6756 89.3218 30.5928 89.1974C30.433 88.9453 30.2678 88.6675 30.0897 88.378C29.9298 88.0718 29.7416 87.7645 29.5693 87.4237C29.4867 87.2505 29.3969 87.0773 29.3075 86.8992C29.2626 86.8106 29.2173 86.7208 29.1714 86.6301C29.1247 86.5402 29.0876 86.4423 29.0447 86.3474C28.9624 86.1553 28.8735 85.963 28.7857 85.7663C28.7424 85.6676 28.6957 85.57 28.6526 85.4691C28.6125 85.3665 28.5721 85.2629 28.5313 85.1585C28.3718 84.7394 28.184 84.3226 28.0405 83.8679C27.8896 83.4177 27.7127 82.969 27.5822 82.4866C27.4472 82.0072 27.2765 81.5336 27.1635 81.0269C27.0997 80.7766 27.0376 80.524 26.9702 80.2715C26.9369 80.1451 26.9035 80.0183 26.87 79.8911C26.8405 79.7641 26.8187 79.6366 26.7907 79.5094C26.7371 79.2553 26.6832 78.9997 26.629 78.7428C26.6006 78.6149 26.5722 78.4866 26.5437 78.3581L26.5007 78.1654C26.4858 78.102 26.4768 78.0273 26.4646 77.9587C26.37 77.399 26.2746 76.8347 26.171 76.2699L26.1518 76.1639L26.1449 76.1252C26.1482 76.1435 26.1527 76.168 26.1481 76.1414L26.1466 76.1296L26.1435 76.106L26.1189 75.9171C26.1025 75.7911 26.0827 75.6654 26.0727 75.5401C26.0431 75.2889 26.0295 75.039 26.0158 74.7898C26.0004 74.4334 26.0036 74.0804 26.0247 73.7322C26.0686 73.3879 26.1279 73.043 26.2079 72.7018C26.9784 69.4196 29.9117 68.5048 29.9117 68.5048C27.4411 74.29 30.7991 75.5658 33.4004 75.7585C34.5809 75.8464 35.7677 75.7162 36.9113 75.4081C51.8275 71.3921 56.9457 61.754 56.9457 61.754C54.9621 62.8784 51.5081 64.0505 47.914 61.9636C44.3188 59.8778 44.2566 57.7211 44.2566 57.7211C33.9875 59.7211 26.7454 62.0578 22.4736 67.6609C21.7567 68.6016 21.1957 69.563 20.7553 70.512C18.6403 67.8282 16.7045 64.6386 16.7045 64.6386C13.1755 58.4776 11.2818 51.4549 11.2818 44.2446C11.2818 21.6881 29.5501 3.33683 52.0046 3.33683C74.4601 3.33683 92.7284 21.6881 92.7284 44.2446C92.7284 53.1548 89.8404 61.78 84.5441 68.8438C84.1377 69.3857 83.6747 69.8825 83.1667 70.3292C83.0805 70.1382 82.9898 69.9491 82.902 69.759C82.7937 69.5333 82.6959 69.3027 82.5683 69.0873C82.448 68.8683 82.3256 68.651 82.2023 68.4354C82.1711 68.3816 82.1419 68.3268 82.1091 68.2742L82.007 68.1187C81.9389 68.0152 81.8709 67.9119 81.8031 67.8088C81.2697 66.9781 80.6422 66.2312 79.9946 65.5579C79.8289 65.3932 79.6646 65.2298 79.5018 65.068C79.3354 64.9104 79.161 64.7645 78.9928 64.6164C78.9082 64.5429 78.8242 64.4698 78.7406 64.3971C78.6533 64.3289 78.5666 64.2611 78.4804 64.1936C78.3075 64.0598 78.1396 63.9242 77.9669 63.8001C77.2742 63.3056 76.5883 62.8902 75.9354 62.5504C75.5147 62.3389 75.1122 62.1512 74.7299 61.9913C74.4143 61.8327 74.1098 61.6991 73.8234 61.5879C73.3238 61.3982 72.8758 61.2783 72.5056 61.1993C72.1347 61.1211 71.8387 61.0901 71.6382 61.0743C71.4367 61.0607 71.3296 61.0647 71.3296 61.0647C71.3296 61.0647 71.3958 61.1488 71.5076 61.3093C71.6199 61.4693 71.7744 61.7099 71.9563 62.0165C72.1381 62.3233 72.3409 62.703 72.5478 63.143C72.7572 63.5812 72.9683 64.0829 73.1619 64.638C73.2646 64.9121 73.3497 65.2071 73.4479 65.504C73.5285 65.8098 73.6266 66.1162 73.6982 66.4424C73.7178 66.5231 73.7374 66.6043 73.7572 66.686C73.7784 66.767 73.7985 66.849 73.8137 66.9333C73.8465 67.1009 73.8811 67.2696 73.9175 67.4391C73.9371 67.5234 73.9508 67.6101 73.9642 67.6973C73.9788 67.784 73.9934 67.8712 74.0081 67.9587C74.0369 68.1339 74.0716 68.3084 74.0917 68.4888C74.1155 68.6678 74.1395 68.8482 74.1637 69.03C74.1912 69.2106 74.1998 69.3972 74.2199 69.5817C74.2648 69.95 74.2809 70.3281 74.3066 70.7071C74.3218 70.896 74.3268 71.0877 74.331 71.2798C74.3357 71.4717 74.3416 71.6641 74.3497 71.8566C74.354 72.0496 74.3462 72.2442 74.3483 72.4382C74.3472 72.6324 74.3519 72.8264 74.3464 73.0211C74.3297 73.4113 74.3234 73.801 74.3044 74.1906C74.2738 74.5801 74.2605 74.9689 74.2292 75.3551C74.2115 75.5484 74.1939 75.741 74.1763 75.9325C74.1605 76.1246 74.1446 76.3158 74.1289 76.5058C74.0839 76.8854 74.0409 77.2613 74.0036 77.6328C73.9644 78.004 73.9042 78.3676 73.8631 78.7268C73.8406 78.9065 73.8184 79.0842 73.7964 79.2598C73.7697 79.4351 73.7433 79.6083 73.7172 79.7792C73.6684 80.1233 73.621 80.458 73.5751 80.7817C73.5211 81.1048 73.4706 81.4184 73.4265 81.7215C73.3836 82.025 73.3426 82.3167 73.2933 82.5924C73.2497 82.8697 73.2033 83.1319 73.1681 83.3817C73.1319 83.6319 73.098 83.866 73.0667 84.0825C73.0319 84.2985 72.9983 84.4969 72.9734 84.6784C72.8658 85.4015 72.8316 85.8305 72.8316 85.8305C72.8316 85.8305 73.0815 85.4878 73.4709 84.8607C73.5702 84.7046 73.6742 84.5292 73.7892 84.3383C73.9045 84.1475 74.0099 83.9335 74.1332 83.7081C74.37 83.2536 74.6437 82.7408 74.8903 82.1592C75.0185 81.8701 75.1476 81.5668 75.2794 81.2514C75.4049 80.9339 75.5223 80.6008 75.6449 80.2582C75.7049 80.0864 75.7658 79.9122 75.8275 79.7359C75.8864 79.5585 75.937 79.376 75.9916 79.1925C76.0462 79.0089 76.0999 78.8227 76.1527 78.6342C76.2049 78.4456 76.2643 78.2567 76.3053 78.0611C76.3966 77.6722 76.4843 77.2751 76.5717 76.8722C76.644 76.4658 76.7105 76.0525 76.7759 75.6355C76.7945 75.5316 76.8054 75.426 76.8162 75.3203L76.8502 75.0027C76.8716 74.7904 76.893 74.5775 76.9145 74.3642C76.9377 74.1511 76.9417 73.9345 76.9529 73.7191L76.9656 73.4214L76.9949 73.4476C76.9949 73.4476 77.4165 69.684 76.626 67.3811C76.626 67.3811 77.7655 68.4992 78.4422 70.6378L78.5069 70.9042L78.6135 71.4825L78.6682 71.771C78.6872 71.867 78.7076 71.9626 78.7179 72.0608C78.7444 72.2557 78.7708 72.4502 78.7972 72.6441L78.8386 72.9347L78.8594 73.0796L78.8724 73.226C78.8902 73.421 78.9079 73.6153 78.9255 73.8087C78.9436 74.0023 78.971 74.194 78.9815 74.3869C79.0001 74.7732 79.0161 75.1553 79.0438 75.5323C79.0596 75.9101 79.0508 76.2832 79.0667 76.6495C79.07 76.8327 79.083 77.0142 79.0748 77.1938C79.071 77.3734 79.0662 77.5509 79.0665 77.7267C79.0657 77.9027 79.0649 78.0763 79.0641 78.2474C79.0639 78.4187 79.0632 78.5875 79.0551 78.7537C79.044 79.0863 79.0294 79.408 79.0222 79.7188C79.0189 79.8744 79.0158 80.0269 79.0127 80.1759C79.0043 80.3247 78.9962 80.4701 78.9882 80.6118C78.9751 80.8963 78.9583 81.166 78.9502 81.4217C78.9397 81.6769 78.9363 81.9176 78.9217 82.1387C78.9083 82.3601 78.8946 82.5635 78.8871 82.7488C78.8501 83.4883 78.8543 83.9223 78.8543 83.9223C78.8543 83.9223 79.0476 83.5407 79.3415 82.8528C79.4167 82.6813 79.4945 82.4897 79.5808 82.2809C79.6261 82.177 79.6662 82.067 79.7049 81.9522C79.745 81.8375 79.7865 81.7187 79.8294 81.5959C79.916 81.3502 79.9999 81.0865 80.0932 80.8085C80.1395 80.6694 80.1855 80.5265 80.2287 80.379C80.2684 80.2305 80.3091 80.0786 80.3506 79.9235C80.4329 79.6126 80.5115 79.2869 80.5968 78.9493C80.6436 78.7812 80.6715 78.6067 80.7049 78.4301C80.7377 78.2531 80.771 78.0734 80.8048 77.8913C80.9491 77.1635 81.0259 76.3805 81.1001 75.5682C81.1234 75.1601 81.1349 74.7441 81.1491 74.3223C81.1521 73.8997 81.1334 73.4701 81.119 73.0374L81.1131 72.8749L81.0971 72.712C81.0863 72.6033 81.0756 72.4944 81.0648 72.3854C81.0419 72.1673 81.019 71.9485 80.996 71.7293C80.9867 71.6196 80.9669 71.5103 80.9484 71.4008L80.8912 71.0724L80.7737 70.4153L80.611 69.764L80.5276 69.4394C80.5019 69.3309 80.4676 69.2242 80.4316 69.1179C80.2894 68.6927 80.16 68.2665 79.9766 67.8596C79.9622 67.8265 79.9483 67.7932 79.9343 67.76C80.1344 68.0464 80.3363 68.3345 80.5152 68.6411C80.9975 69.3985 81.3945 70.2225 81.7612 71.0577L82.0087 71.697L82.133 72.0161C82.1764 72.1216 82.2033 72.2334 82.2393 72.3416C82.3678 72.7797 82.5318 73.2053 82.626 73.6495C82.6808 73.8694 82.7354 74.0883 82.7898 74.3062L82.8316 74.4693L82.8627 74.6347C82.8835 74.7448 82.9042 74.8546 82.9249 74.9641C82.9665 75.1834 83.0078 75.4013 83.0488 75.6176L83.0794 75.7798L83.1006 75.9431C83.1149 76.0519 83.1292 76.1602 83.1435 76.268C83.2761 77.1291 83.3267 77.9744 83.3862 78.7781C83.4029 79.5834 83.4481 80.3496 83.4176 81.0587C83.4125 81.4135 83.4113 81.7547 83.4036 82.0795C83.3854 82.4041 83.3681 82.712 83.3519 83.0014C83.3385 83.2919 83.3229 83.5639 83.314 83.8168C83.2925 84.0682 83.2727 84.2992 83.2548 84.5078C83.218 84.9256 83.1991 85.2573 83.1817 85.4829C83.1681 85.7096 83.1608 85.8305 83.1608 85.8305C83.1608 85.8305 83.199 85.7161 83.2707 85.5018C83.3386 85.2864 83.4447 84.9712 83.5672 84.5658C83.6294 84.3633 83.6986 84.1388 83.7674 83.8926C83.8287 83.645 83.8891 83.3758 83.9568 83.0879C84.0218 82.799 84.0909 82.4915 84.1637 82.1673C84.2248 81.8408 84.2722 81.4945 84.3309 81.1335C84.358 80.9525 84.3856 80.7677 84.4138 80.5794C84.4459 80.3913 84.4613 80.1979 84.4783 80.0009C84.51 79.6061 84.5429 79.198 84.5766 78.7784C84.5926 78.568 84.586 78.3539 84.5906 78.1372C84.5925 77.9203 84.5945 77.7007 84.5965 77.4787C84.5975 77.3675 84.5984 77.2557 84.5994 77.1434C84.5983 77.031 84.587 76.9183 84.5811 76.8049C84.5668 76.5779 84.5523 76.3487 84.5376 76.1176C84.5302 76.0018 84.5228 75.8856 84.5153 75.769L84.5038 75.5936L84.48 75.4186C84.4475 75.1847 84.4149 74.9491 84.382 74.712C84.3655 74.5934 84.3489 74.4744 84.3322 74.355L84.3071 74.1757L84.271 73.9975C84.2194 73.7602 84.1675 73.5216 84.1154 73.2821C84.047 72.9206 83.9429 72.5645 83.8357 72.2079C83.8674 72.1899 83.9001 72.1663 83.9345 72.1346C87.1076 68.4263 89.7034 63.9783 91.4406 59.4289C93.29 54.5862 94.228 49.4779 94.228 44.2446C94.228 38.5194 93.111 32.9648 90.9089 27.7356C88.7828 22.6841 85.7383 18.1482 81.8606 14.254C77.984 10.3587 73.4675 7.30032 68.441 5.16462C63.2344 2.95247 57.7049 1.83142 52.0046 1.83142C46.3053 1.83142 40.7758 2.95247 35.5702 5.16462C30.5426 7.30032 26.0273 10.3587 22.1496 14.254C18.2719 18.1482 15.2284 22.6841 13.1013 27.7356C10.8992 32.9648 9.7832 38.5194 9.7832 44.2446C9.7832 49.4779 10.7202 54.5862 12.5696 59.4289C14.2141 63.7361 16.5325 67.7134 19.4666 71.2715Z" fill="white" style="fill:white;fill-opacity:1;"/>
<path d="M52.0261 55.0947C56.1652 55.0947 59.3598 51.5312 60.1378 49.9529C60.9151 48.3733 61.4521 45.4746 61.5148 44.3802C61.5775 43.2858 61.3673 41.2389 61.6352 38.7069C61.9038 36.1743 61.8804 34.3459 61.8804 33.7361C61.8804 33.6163 61.862 33.504 61.8312 33.4003V33.3997C61.7311 33.3528 61.6352 33.2991 61.5424 33.241C61.0908 33.5157 60.5599 33.6756 59.9909 33.6756C59.4133 33.6756 58.8744 33.5114 58.4178 33.2268C57.9613 33.5114 57.423 33.6756 56.8448 33.6756C56.2223 33.6756 55.6435 33.4842 55.1654 33.1577C54.6874 33.4842 54.1085 33.6756 53.4873 33.6756C52.9048 33.6756 52.3604 33.5077 51.9007 33.2176C51.9007 33.2176 51.9007 33.2176 51.9001 33.2176C51.4405 33.5077 50.8973 33.6756 50.3142 33.6756C49.7359 33.6756 49.1964 33.5114 48.7399 33.2268C48.2833 33.5114 47.7438 33.6756 47.1668 33.6756C46.5898 33.6756 46.0503 33.5114 45.5938 33.2268C45.1372 33.5114 44.5977 33.6756 44.0201 33.6756C43.4511 33.6756 42.9208 33.5157 42.4692 33.241C42.3918 33.2898 42.3113 33.3349 42.2295 33.3762C42.1945 33.4861 42.1724 33.6071 42.1724 33.7361C42.1724 34.3459 42.149 36.1743 42.417 38.7069C42.6861 41.2389 42.4759 43.2858 42.5386 44.3802C42.6001 45.4746 43.1365 48.3733 43.915 49.9529C44.693 51.5312 47.8876 55.0947 52.0261 55.0947ZM52.6559 52.3676C52.2436 52.4707 51.8092 52.4707 51.3969 52.3676C50.1937 52.0658 50.7492 51.3602 50.9477 51.367C51.4073 51.3806 52.0261 51.367 52.0261 51.367C52.3376 51.367 52.6461 51.3806 53.1051 51.367C53.3042 51.3602 53.8597 52.0658 52.6559 52.3676ZM54.3808 50.4683C53.6962 50.5387 53.3693 50.3664 53.0504 50.2572C52.8679 50.1948 52.7125 50.1757 52.5257 50.1775C52.192 50.1825 51.8596 50.1825 51.5277 50.1775C51.3409 50.1757 51.1849 50.1948 51.0018 50.2572C50.6835 50.3664 50.3566 50.5387 49.6714 50.4683C48.9875 50.3979 48.6913 50.0467 48.7847 49.7097C48.8781 49.3739 49.2849 49.222 50.2478 49.2689C51.2101 49.3159 51.9591 48.5227 51.8577 48.1548C51.757 47.7875 50.901 47.5764 50.2478 47.4048C49.594 47.2332 49.524 46.4826 49.9836 46.1153C50.442 45.7474 50.917 46.0289 51.2156 46.4042C51.5155 46.7789 51.6844 46.6851 52.0261 46.6851C52.3684 46.6851 52.5367 46.7789 52.8366 46.4042C53.1358 46.0289 53.6102 45.7474 54.0698 46.1153C54.5288 46.4826 54.4588 47.2332 53.8056 47.4048C53.1518 47.5764 52.2958 47.7875 52.1951 48.1548C52.0931 48.5227 52.8427 49.3152 53.8056 49.2683C54.7679 49.2214 55.174 49.3739 55.2674 49.7097C55.3608 50.0467 55.0659 50.3979 54.3808 50.4683ZM56.5363 36.9952C59.1583 36.878 60.2256 37.6181 60.7596 38.0267C60.8622 38.1045 60.9501 38.2032 61.0066 38.3187C61.0994 38.5032 61.1387 38.76 60.7602 38.8939C60.1304 39.1162 59.8502 38.1674 57.7266 38.1785C55.6023 38.1909 54.5055 39.3273 54.3998 40.3476C54.2953 41.3673 54.5989 41.6371 56.1504 41.555C57.7032 41.4729 58.7177 40.934 59.3598 40.7575C60.0013 40.5822 59.7211 41.4729 58.8345 42.1877C57.9478 42.9031 56.4073 43.3957 56.0226 42.9376C55.6367 42.4815 54.9602 42.5864 54.3297 42.6333C53.6999 42.6802 54.2075 43.4895 54.2075 43.4895C52.7899 43.9814 52.9183 41.9185 53.0117 40.3242C53.1051 38.7298 53.7356 37.1199 56.5363 36.9952ZM52.0052 34.6947C52.573 34.6947 53.0326 35.207 53.0326 35.8391C53.0326 36.4712 52.573 36.9829 52.0052 36.9829C51.4387 36.9829 50.9784 36.4712 50.9784 35.8391C50.9784 35.207 51.4387 34.6947 52.0052 34.6947ZM43.2926 38.8939C42.9147 38.76 42.954 38.5032 43.0456 38.3187C43.1033 38.2032 43.1912 38.1045 43.2938 38.0267C43.8278 37.6181 44.8945 36.878 47.5171 36.9952C50.3179 37.1199 50.9477 38.7298 51.0411 40.3242C51.1345 41.9185 51.2635 43.9814 49.8453 43.4895C49.8453 43.4895 50.3523 42.6802 49.723 42.6333C49.092 42.5864 48.4161 42.4815 48.0302 42.9389C47.6449 43.3957 46.1044 42.9031 45.2177 42.1889C44.331 41.4729 44.0508 40.5822 44.693 40.7575C45.3351 40.934 46.3502 41.4729 47.9024 41.555C49.4539 41.6371 49.7575 41.3673 49.6518 40.3476C49.5473 39.3285 48.4505 38.1909 46.3268 38.1785C44.2026 38.1674 43.923 39.1162 43.2926 38.8939Z" fill="white" style="fill:white;fill-opacity:1;"/>
<path d="M52.006 36.2528C52.2119 36.2528 52.379 36.0676 52.379 35.8392C52.379 35.6593 52.2756 35.5064 52.1315 35.449C52.1266 35.4471 52.1219 35.4448 52.1169 35.4431C52.1131 35.4418 52.1091 35.441 52.1053 35.4398C52.0973 35.4373 52.0894 35.4348 52.0812 35.4329C52.0699 35.4303 52.0583 35.4284 52.0466 35.427C52.0458 35.4269 52.0451 35.4267 52.0444 35.4266C52.0317 35.4252 52.019 35.4244 52.006 35.4244C51.9004 35.4244 51.8053 35.4739 51.7378 35.5529C51.6741 35.6274 51.6348 35.728 51.6348 35.839C51.6348 35.9145 51.6532 35.9851 51.6848 36.0459C51.749 36.1695 51.8685 36.2528 52.006 36.2528Z" fill="white" style="fill:white;fill-opacity:1;"/>
<path d="M50.4559 19.1115C51.068 19.1115 51.5642 18.6269 51.5642 18.0291C51.5642 17.4314 51.068 16.9468 50.4559 16.9468C49.8438 16.9468 49.3477 17.4314 49.3477 18.0291C49.3477 18.6269 49.8438 19.1115 50.4559 19.1115Z" fill="white" style="fill:white;fill-opacity:1;"/>
<path d="M53.5848 19.1115C54.1969 19.1115 54.6931 18.6269 54.6931 18.0291C54.6931 17.4314 54.1969 16.9468 53.5848 16.9468C52.9727 16.9468 52.4766 17.4314 52.4766 18.0291C52.4766 18.6269 52.9727 19.1115 53.5848 19.1115Z" fill="white" style="fill:white;fill-opacity:1;"/>
<path d="M48.536 21.1667C49.1481 21.1667 49.6443 20.6821 49.6443 20.0843C49.6443 19.4865 49.1481 19.002 48.536 19.002C47.9239 19.002 47.4277 19.4865 47.4277 20.0843C47.4277 20.6821 47.9239 21.1667 48.536 21.1667Z" fill="white" style="fill:white;fill-opacity:1;"/>
<path d="M55.3973 21.1663C56.0094 21.1663 56.5056 20.6817 56.5056 20.084C56.5056 19.4862 56.0094 19.0016 55.3973 19.0016C54.7852 19.0016 54.2891 19.4862 54.2891 20.084C54.2891 20.6817 54.7852 21.1663 55.3973 21.1663Z" fill="white" style="fill:white;fill-opacity:1;"/>
<path d="M51.9696 21.2758C52.5817 21.2758 53.0779 20.7912 53.0779 20.1935C53.0779 19.5957 52.5817 19.1111 51.9696 19.1111C51.3575 19.1111 50.8613 19.5957 50.8613 20.1935C50.8613 20.7912 51.3575 21.2758 51.9696 21.2758Z" fill="white" style="fill:white;fill-opacity:1;"/>
<path d="M46.8075 23.5577C47.4196 23.5577 47.9157 23.0731 47.9157 22.4753C47.9157 21.8775 47.4196 21.3929 46.8075 21.3929C46.1954 21.3929 45.6992 21.8775 45.6992 22.4753C45.6992 23.0731 46.1954 23.5577 46.8075 23.5577Z" fill="white" style="fill:white;fill-opacity:1;"/>
<path d="M47.4247 26.1651C48.0367 26.1651 48.5329 25.6805 48.5329 25.0827C48.5329 24.485 48.0367 24.0004 47.4247 24.0004C46.8126 24.0004 46.3164 24.485 46.3164 25.0827C46.3164 25.6805 46.8126 26.1651 47.4247 26.1651Z" fill="white" style="fill:white;fill-opacity:1;"/>
<path d="M42.4696 29.0046C43.0817 29.0046 43.5778 28.52 43.5778 27.9222C43.5778 27.3244 43.0817 26.8398 42.4696 26.8398C41.8575 26.8398 41.3613 27.3244 41.3613 27.9222C41.3613 28.52 41.8575 29.0046 42.4696 29.0046Z" fill="white" style="fill:white;fill-opacity:1;"/>
<path d="M45.5868 29.0046C46.1989 29.0046 46.695 28.52 46.695 27.9222C46.695 27.3244 46.1989 26.8398 45.5868 26.8398C44.9747 26.8398 44.4785 27.3244 44.4785 27.9222C44.4785 28.52 44.9747 29.0046 45.5868 29.0046Z" fill="white" style="fill:white;fill-opacity:1;"/>
<path d="M48.704 29.0046C49.316 29.0046 49.8122 28.52 49.8122 27.9222C49.8122 27.3244 49.316 26.8398 48.704 26.8398C48.0919 26.8398 47.5957 27.3244 47.5957 27.9222C47.5957 28.52 48.0919 29.0046 48.704 29.0046Z" fill="white" style="fill:white;fill-opacity:1;"/>
<path d="M52.0106 29.0046C52.6227 29.0046 53.1189 28.52 53.1189 27.9222C53.1189 27.3244 52.6227 26.8398 52.0106 26.8398C51.3985 26.8398 50.9023 27.3244 50.9023 27.9222C50.9023 28.52 51.3985 29.0046 52.0106 29.0046Z" fill="white" style="fill:white;fill-opacity:1;"/>
<path d="M50.3114 31.7996C50.9235 31.7996 51.4197 31.315 51.4197 30.7173C51.4197 30.1195 50.9235 29.6349 50.3114 29.6349C49.6993 29.6349 49.2031 30.1195 49.2031 30.7173C49.2031 31.315 49.6993 31.7996 50.3114 31.7996Z" fill="white" style="fill:white;fill-opacity:1;"/>
<path d="M53.4852 31.7999C54.0973 31.7999 54.5935 31.3153 54.5935 30.7175C54.5935 30.1197 54.0973 29.6351 53.4852 29.6351C52.8731 29.6351 52.377 30.1197 52.377 30.7175C52.377 31.3153 52.8731 31.7999 53.4852 31.7999Z" fill="white" style="fill:white;fill-opacity:1;"/>
<path d="M47.1649 31.8C47.777 31.8 48.2732 31.3154 48.2732 30.7176C48.2732 30.1198 47.777 29.6353 47.1649 29.6353C46.5528 29.6353 46.0566 30.1198 46.0566 30.7176C46.0566 31.3154 46.5528 31.8 47.1649 31.8Z" fill="white" style="fill:white;fill-opacity:1;"/>
<path d="M44.0165 31.7996C44.6285 31.7996 45.1247 31.315 45.1247 30.7172C45.1247 30.1195 44.6285 29.6349 44.0165 29.6349C43.4044 29.6349 42.9082 30.1195 42.9082 30.7172C42.9082 31.315 43.4044 31.7996 44.0165 31.7996Z" fill="white" style="fill:white;fill-opacity:1;"/>
<path d="M40.9664 31.7996C41.526 31.7996 41.9796 31.315 41.9796 30.7172C41.9796 30.1195 41.526 29.6349 40.9664 29.6349C40.4068 29.6349 39.9531 30.1195 39.9531 30.7172C39.9531 31.315 40.4068 31.7996 40.9664 31.7996Z" fill="white" style="fill:white;fill-opacity:1;"/>
<path d="M56.8426 31.7996C57.4547 31.7996 57.9509 31.315 57.9509 30.7173C57.9509 30.1195 57.4547 29.6349 56.8426 29.6349C56.2306 29.6349 55.7344 30.1195 55.7344 30.7173C55.7344 31.315 56.2306 31.7996 56.8426 31.7996Z" fill="white" style="fill:white;fill-opacity:1;"/>
<path d="M59.9891 31.7996C60.6012 31.7996 61.0974 31.315 61.0974 30.7172C61.0974 30.1195 60.6012 29.6349 59.9891 29.6349C59.377 29.6349 58.8809 30.1195 58.8809 30.7172C58.8809 31.315 59.377 31.7996 59.9891 31.7996Z" fill="white" style="fill:white;fill-opacity:1;"/>
<path d="M63.0426 31.7999C63.6022 31.7999 64.0558 31.3153 64.0558 30.7175C64.0558 30.1197 63.6022 29.6351 63.0426 29.6351C62.4829 29.6351 62.0293 30.1197 62.0293 30.7175C62.0293 31.3153 62.4829 31.7999 63.0426 31.7999Z" fill="white" style="fill:white;fill-opacity:1;"/>
<path d="M55.1278 29.0045C55.7399 29.0045 56.2361 28.5199 56.2361 27.9221C56.2361 27.3243 55.7399 26.8397 55.1278 26.8397C54.5157 26.8397 54.0195 27.3243 54.0195 27.9221C54.0195 28.5199 54.5157 29.0045 55.1278 29.0045Z" fill="white" style="fill:white;fill-opacity:1;"/>
<path d="M58.245 29.0045C58.8571 29.0045 59.3532 28.5199 59.3532 27.9221C59.3532 27.3243 58.8571 26.8397 58.245 26.8397C57.6329 26.8397 57.1367 27.3243 57.1367 27.9221C57.1367 28.5199 57.6329 29.0045 58.245 29.0045Z" fill="white" style="fill:white;fill-opacity:1;"/>
<path d="M61.3641 29.0045C61.9762 29.0045 62.4724 28.5199 62.4724 27.9221C62.4724 27.3243 61.9762 26.8397 61.3641 26.8397C60.752 26.8397 60.2559 27.3243 60.2559 27.9221C60.2559 28.5199 60.752 29.0045 61.3641 29.0045Z" fill="white" style="fill:white;fill-opacity:1;"/>
<path d="M50.3817 26.1647C50.9938 26.1647 51.49 25.6801 51.49 25.0824C51.49 24.4846 50.9938 24 50.3817 24C49.7696 24 49.2734 24.4846 49.2734 25.0824C49.2734 25.6801 49.7696 26.1647 50.3817 26.1647Z" fill="white" style="fill:white;fill-opacity:1;"/>
<path d="M53.4852 26.1649C54.0973 26.1649 54.5935 25.6803 54.5935 25.0825C54.5935 24.4847 54.0973 24.0001 53.4852 24.0001C52.8731 24.0001 52.377 24.4847 52.377 25.0825C52.377 25.6803 52.8731 26.1649 53.4852 26.1649Z" fill="white" style="fill:white;fill-opacity:1;"/>
<path d="M56.5887 26.1649C57.2008 26.1649 57.697 25.6803 57.697 25.0825C57.697 24.4847 57.2008 24.0001 56.5887 24.0001C55.9767 24.0001 55.4805 24.4847 55.4805 25.0825C55.4805 25.6803 55.9767 26.1649 56.5887 26.1649Z" fill="white" style="fill:white;fill-opacity:1;"/>
<path d="M59.3235 25.8997C59.7858 25.8997 60.1606 25.5336 60.1606 25.0821C60.1606 24.6306 59.7858 24.2645 59.3235 24.2645C58.8611 24.2645 58.4863 24.6306 58.4863 25.0821C58.4863 25.5336 58.8611 25.8997 59.3235 25.8997Z" fill="white" style="fill:white;fill-opacity:1;"/>
<path d="M44.552 25.8997C45.0143 25.8997 45.3891 25.5336 45.3891 25.0821C45.3891 24.6306 45.0143 24.2645 44.552 24.2645C44.0896 24.2645 43.7148 24.6306 43.7148 25.0821C43.7148 25.5336 44.0896 25.8997 44.552 25.8997Z" fill="white" style="fill:white;fill-opacity:1;"/>
<path d="M40.1301 34.809C40.5924 34.809 40.9672 34.4429 40.9672 33.9914C40.9672 33.5399 40.5924 33.1738 40.1301 33.1738C39.6678 33.1738 39.293 33.5399 39.293 33.9914C39.293 34.4429 39.6678 34.809 40.1301 34.809Z" fill="white" style="fill:white;fill-opacity:1;"/>
<path d="M40.3059 37.6836C40.7682 37.6836 41.143 37.3176 41.143 36.866C41.143 36.4145 40.7682 36.0485 40.3059 36.0485C39.8435 36.0485 39.4688 36.4145 39.4688 36.866C39.4688 37.3176 39.8435 37.6836 40.3059 37.6836Z" fill="white" style="fill:white;fill-opacity:1;"/>
<path d="M63.8801 34.809C64.3424 34.809 64.7172 34.4429 64.7172 33.9914C64.7172 33.5399 64.3424 33.1738 63.8801 33.1738C63.4178 33.1738 63.043 33.5399 63.043 33.9914C63.043 34.4429 63.4178 34.809 63.8801 34.809Z" fill="white" style="fill:white;fill-opacity:1;"/>
<path d="M63.7024 37.6836C64.1647 37.6836 64.5395 37.3176 64.5395 36.866C64.5395 36.4145 64.1647 36.0485 63.7024 36.0485C63.24 36.0485 62.8652 36.4145 62.8652 36.866C62.8652 37.3176 63.24 37.6836 63.7024 37.6836Z" fill="white" style="fill:white;fill-opacity:1;"/>
<path d="M50.1962 23.5574C50.8082 23.5574 51.3044 23.0728 51.3044 22.4751C51.3044 21.8773 50.8082 21.3927 50.1962 21.3927C49.5841 21.3927 49.0879 21.8773 49.0879 22.4751C49.0879 23.0728 49.5841 23.5574 50.1962 23.5574Z" fill="white" style="fill:white;fill-opacity:1;"/>
<path d="M53.6415 23.5577C54.2535 23.5577 54.7497 23.0731 54.7497 22.4753C54.7497 21.8775 54.2535 21.3929 53.6415 21.3929C53.0294 21.3929 52.5332 21.8775 52.5332 22.4753C52.5332 23.0731 53.0294 23.5577 53.6415 23.5577Z" fill="white" style="fill:white;fill-opacity:1;"/>
<path d="M57.1083 23.5577C57.7203 23.5577 58.2165 23.0731 58.2165 22.4753C58.2165 21.8775 57.7203 21.3929 57.1083 21.3929C56.4962 21.3929 56 21.8775 56 22.4753C56 23.0731 56.4962 23.5577 57.1083 23.5577Z" fill="white" style="fill:white;fill-opacity:1;"/>
<path d="M38.4236 39.9651C37.879 41.4499 38.2135 43.3724 39.0537 44.4274C39.8939 45.4824 40.7108 46.7953 40.7964 47.0923C40.8819 47.3893 41.9789 47.569 41.8777 46.5843C41.7766 45.5996 41.1075 45.3027 40.5085 44.2633C39.9095 43.2239 39.0926 40.4652 40.1351 40.3245C40.5838 40.264 40.7108 40.8794 40.9675 40.895C41.2242 40.9107 41.4965 40.0354 41.0764 39.4415C40.6563 38.8475 38.9681 38.4802 38.4236 39.9651Z" fill="white" style="fill:white;fill-opacity:1;"/>
<path d="M65.5896 39.9651C65.045 38.4802 63.3569 38.8475 62.9368 39.4415C62.5167 40.0354 62.789 40.9107 63.0457 40.895C63.3024 40.8794 63.4295 40.264 63.8781 40.3245C64.9206 40.4652 64.1037 43.2239 63.5047 44.2633C62.9057 45.3027 62.2366 45.5996 62.1355 46.5843C62.0343 47.569 63.1313 47.3893 63.2168 47.0923C63.3024 46.7953 64.1193 45.4824 64.9595 44.4274C65.7997 43.3724 66.1342 41.4499 65.5896 39.9651Z" fill="white" style="fill:white;fill-opacity:1;"/>
<path d="M62.7209 49.0426C62.4 48.9488 61.7757 49.0142 61.3789 50.3975C60.9822 51.7807 60.6321 54.1252 62.2891 53.8986C63.9462 53.6719 62.8648 50.9211 62.8493 50.2959C62.8294 49.4984 63.0418 49.1364 62.7209 49.0426Z" fill="white" style="fill:white;fill-opacity:1;"/>
<path d="M41.7219 53.8986C43.3789 54.1252 43.0288 51.7807 42.6321 50.3975C42.2353 49.0142 41.611 48.9488 41.2901 49.0426C40.9692 49.1364 41.1816 49.4984 41.1617 50.2959C41.1462 50.9211 40.0648 53.6719 41.7219 53.8986Z" fill="white" style="fill:white;fill-opacity:1;"/>
<path d="M51.6765 61.4256C56.5154 61.2693 57.7601 57.6275 57.7601 57.6275C57.7601 57.6275 55.6752 59.4875 51.9565 59.5969C48.2379 59.7063 45.834 57.2524 45.834 57.2524C45.834 57.2524 47.553 61.5588 51.6765 61.4256Z" fill="white" style="fill:white;fill-opacity:1;"/>
<path d="M33.6035 78.6014C36.2277 80.1913 39.8169 79.6945 43.0246 78.6325C47.5248 77.1426 51.5263 74.9212 54.709 71.3949C56.1538 69.7941 57.2524 68.3543 58.0871 67.0817C58.1444 66.9789 58.201 66.8758 58.256 66.7718C58.3463 66.6014 58.4531 66.4479 58.5734 66.3108C61.0224 62.268 60.6843 60.1283 60.6843 60.1283C51.9089 76.7585 33.6035 78.6014 33.6035 78.6014Z" fill="white" style="fill:white;fill-opacity:1;"/>
<path d="M65.5558 70.264C65.6492 72.1865 63.0586 78.329 63.0586 78.329C66.4427 74.1793 65.5558 70.264 65.5558 70.264Z" fill="white" style="fill:white;fill-opacity:1;"/>
<path d="M52.0051 16.3495C53.1179 16.3495 54.02 15.4433 54.02 14.3254C54.02 13.2076 53.1179 12.3014 52.0051 12.3014C50.8923 12.3014 49.9902 13.2076 49.9902 14.3254C49.9902 15.4433 50.8923 16.3495 52.0051 16.3495Z" fill="white" style="fill:white;fill-opacity:1;"/>
<path d="M41.9559 85.2791C42.3204 85.0978 42.7644 84.879 43.2602 84.6053C43.7565 84.3324 44.3202 84.0292 44.9203 83.6735C45.5168 83.3125 46.172 82.9333 46.8395 82.492C47.1761 82.2757 47.5177 82.0472 47.8695 81.8168C48.2181 81.5816 48.5663 81.33 48.9251 81.0801C49.1029 80.953 49.2867 80.8309 49.4633 80.6962C49.641 80.5628 49.82 80.4285 50.0001 80.2934C50.1803 80.1582 50.3615 80.0222 50.5437 79.8854C50.7259 79.7489 50.9022 79.6023 51.0823 79.4592C51.2618 79.3152 51.442 79.1706 51.6227 79.0257C51.8043 78.8818 51.9842 78.7346 52.1597 78.5809C52.5121 78.2754 52.8719 77.9761 53.2207 77.663C53.5645 77.3439 53.9139 77.0318 54.2515 76.7082C54.4201 76.5462 54.5868 76.3827 54.752 76.2187C54.9177 76.0553 55.0837 75.8934 55.2426 75.7246C55.5629 75.39 55.8849 75.0634 56.1831 74.7194C56.3343 74.5498 56.4846 74.3813 56.6339 74.2139C56.7821 74.0456 56.9206 73.87 57.0625 73.7006C57.6311 73.0235 58.1385 72.3304 58.5988 71.6604C59.0536 70.9852 59.447 70.3208 59.7798 69.6917C60.1053 69.0572 60.3684 68.4577 60.5662 67.9131C60.7639 67.3683 60.892 66.8772 60.9712 66.4696C61.0523 66.062 61.0753 65.7353 61.0824 65.5147C61.0881 65.2933 61.0698 65.1766 61.0698 65.1766C61.0698 65.1766 61.0525 65.2928 60.9931 65.5013C60.9359 65.7102 60.828 66.009 60.6694 66.3761C60.5081 66.7424 60.2952 67.1773 60.0151 67.6557C59.7353 68.1341 59.3958 68.6579 59.0028 69.2121C58.7976 69.4845 58.5968 69.7745 58.365 70.0597C58.143 70.3505 57.9003 70.6426 57.6527 70.9426C57.1481 71.5368 56.6057 72.1535 56.0167 72.7687C55.4355 73.3899 54.8066 74.0073 54.165 74.6316C53.8476 74.947 53.5059 75.2443 53.1805 75.5598C52.8499 75.8704 52.5063 76.1708 52.1693 76.4775C51.8319 76.7842 51.4844 77.0808 51.1437 77.3819C50.8021 77.6818 50.4531 77.9722 50.1122 78.2659C49.7719 78.5603 49.4241 78.8414 49.086 79.1259C48.7472 79.4096 48.4113 79.6885 48.0767 79.9586C47.7438 80.2309 47.4139 80.4954 47.0953 80.7608C46.7718 81.0198 46.4527 81.2702 46.1462 81.5199C45.9928 81.6447 45.8414 81.7678 45.6924 81.889C45.5413 82.0079 45.3925 82.1249 45.2463 82.2399C44.955 82.4726 44.6736 82.6975 44.4034 82.9133C43.8614 83.3455 43.3646 83.7416 42.9242 84.0927C42.4878 84.4512 42.0989 84.7527 41.7844 85.0103C41.4679 85.265 41.2245 85.4741 41.056 85.6129C40.8896 85.7551 40.8008 85.8309 40.8008 85.8309C40.8008 85.8309 40.9064 85.782 41.1045 85.6902C41.3006 85.5951 41.5918 85.4611 41.9559 85.2791Z" fill="white" style="fill:white;fill-opacity:1;"/>
<path d="M50.7747 84.9178C51.0204 84.7893 51.2821 84.6433 51.5647 84.4903C51.7052 84.4124 51.8503 84.332 51.9997 84.2492C52.1475 84.1639 52.3052 84.0838 52.4573 83.9871C52.7631 83.7962 53.0813 83.5894 53.4164 83.3759C53.5843 83.2697 53.7526 83.1568 53.9259 83.0437C54.0933 82.9224 54.2639 82.7988 54.4374 82.6731C54.6116 82.5477 54.7853 82.4156 54.9635 82.2833C55.0524 82.2169 55.1421 82.15 55.2323 82.0826C55.3228 82.0153 55.4145 81.9481 55.5012 81.8736C55.854 81.5828 56.2105 81.2758 56.579 80.9652C56.7676 80.8145 56.9358 80.6375 57.1155 80.4694C57.2933 80.2988 57.4728 80.1265 57.6538 79.9529C57.7442 79.8657 57.835 79.7781 57.9261 79.6903C58.0124 79.5974 58.099 79.5043 58.1858 79.4107C58.3588 79.2226 58.5329 79.033 58.7082 78.8424C59.0697 78.4702 59.3845 78.0474 59.7214 77.6383C59.8045 77.535 59.8877 77.4314 59.971 77.3277C60.0494 77.2199 60.1279 77.1119 60.2065 77.0038C60.3647 76.7882 60.5196 76.5691 60.6747 76.3494C60.835 76.1335 60.9717 75.9002 61.1183 75.6735L61.5516 74.988C61.6859 74.753 61.8136 74.5141 61.9446 74.2775L62.1395 73.922L62.2363 73.7441L62.3248 73.5619C62.4438 73.3196 62.5595 73.0763 62.673 72.833C62.7922 72.5924 62.8897 72.3424 62.992 72.0959C63.0922 71.8486 63.198 71.605 63.2917 71.3579C63.3777 71.1078 63.4633 70.8589 63.5483 70.6116C63.5904 70.4879 63.6323 70.3646 63.674 70.2418C63.7105 70.1171 63.7468 69.9928 63.783 69.869C63.8555 69.6215 63.923 69.3746 63.9902 69.1302C64.0474 68.883 64.1041 68.6378 64.1603 68.395C64.1874 68.2735 64.218 68.1536 64.2417 68.0326C64.2628 67.9111 64.2839 67.7902 64.3048 67.67C64.3455 67.4294 64.39 67.1928 64.4257 66.9575C64.457 66.7214 64.4871 66.4883 64.5134 66.2581C64.5444 66.0288 64.5587 65.8002 64.5766 65.5761C64.5916 65.3516 64.6171 65.1323 64.6199 64.9142C64.6259 64.697 64.6318 64.4834 64.6376 64.2738C64.6447 64.0647 64.6374 63.8585 64.6343 63.6575C64.6311 63.2556 64.6028 62.8704 64.5802 62.5062C64.5619 62.3243 64.5441 62.147 64.5267 61.9747C64.5117 61.8028 64.489 61.6362 64.4644 61.4752C64.3777 60.8309 64.2592 60.2765 64.147 59.8258C64.1179 59.7135 64.0904 59.6072 64.0645 59.5071C64.035 59.4079 64.0074 59.315 63.9817 59.2285C63.9311 59.0558 63.8797 58.9109 63.8392 58.7939C63.7555 58.5601 63.7012 58.4397 63.7012 58.4397C63.7012 58.4397 63.7111 58.5717 63.7197 58.8172C63.7259 59.0632 63.7371 59.4215 63.7288 59.876C63.7199 60.3302 63.7054 60.8786 63.6546 61.5033C63.6347 61.8152 63.5982 62.1465 63.5652 62.4936C63.5169 62.8407 63.4865 63.2047 63.4207 63.5816C63.3147 64.3365 63.1538 65.145 62.9557 65.9877C62.9014 66.1976 62.8499 66.4106 62.7986 66.6261C62.7422 66.8405 62.677 67.0555 62.6158 67.2735C62.5848 67.3823 62.5535 67.4917 62.5221 67.6016C62.4873 67.7106 62.4524 67.82 62.4172 67.9301C62.3468 68.1496 62.2758 68.3712 62.2041 68.5947C61.8823 69.4767 61.547 70.3841 61.1227 71.2709C60.9318 71.7234 60.6845 72.1538 60.4683 72.6006L60.3851 72.7672L60.2938 72.93L60.1099 73.2552C59.9865 73.4716 59.8667 73.6904 59.7406 73.9055L59.3467 74.5422C59.2138 74.7532 59.0913 74.9706 58.9444 75.1721C58.8025 75.3768 58.6611 75.5811 58.5239 75.7878L58.3169 76.0963C58.2428 76.1954 58.1689 76.2943 58.0951 76.3931C57.947 76.5905 57.7996 76.7872 57.6529 76.9829C57.5801 77.0813 57.5101 77.1815 57.4356 77.2779C57.3586 77.3724 57.2818 77.4667 57.2053 77.5606C57.0522 77.7489 56.9 77.936 56.749 78.1218C56.6738 78.2153 56.599 78.3084 56.5244 78.4012C56.4458 78.4907 56.3675 78.5799 56.2896 78.6687C55.9754 79.022 55.6728 79.3765 55.3639 79.7132C55.0497 80.0449 54.7381 80.3663 54.4407 80.6873C54.1373 81.002 53.8237 81.2898 53.5326 81.5832C53.3858 81.7289 53.2414 81.8722 53.0998 82.0129C52.9521 82.147 52.8055 82.2767 52.665 82.4081C52.3822 82.6705 52.1112 82.9219 51.8535 83.161C51.5935 83.3988 51.3338 83.6084 51.0988 83.819C50.8625 84.0279 50.6385 84.2205 50.4351 84.4053C50.3344 84.4992 50.2316 84.5803 50.1346 84.66C50.0379 84.7403 49.9457 84.8169 49.8582 84.8896C49.1579 85.4727 48.7656 85.8305 48.7656 85.8305C48.7656 85.8305 49.2511 85.6342 50.087 85.2477C50.2952 85.15 50.5304 85.0482 50.7747 84.9178Z" fill="white" style="fill:white;fill-opacity:1;"/>
<path d="M69.6866 76.4688C69.766 76.2141 69.851 75.9605 69.9101 75.6974C69.9743 75.436 70.0386 75.1742 70.103 74.912L70.1973 74.518L70.2704 74.1179L70.4105 73.3167L70.4447 73.1164L70.4673 72.9139L70.5122 72.5094C70.5408 72.2398 70.575 71.9718 70.5933 71.7024C70.6053 71.4323 70.6172 71.163 70.6291 70.8947C70.6341 70.7607 70.6391 70.6269 70.6441 70.4934C70.6417 70.3595 70.6393 70.2258 70.6368 70.0924C70.6301 69.8262 70.6234 69.5613 70.6167 69.2979C70.5971 69.0347 70.5718 68.7733 70.5495 68.5142C70.5373 68.3849 70.5252 68.2559 70.5131 68.1275C70.4941 67.9996 70.4751 67.8722 70.4562 67.7453C70.4181 67.4917 70.3781 67.241 70.3365 66.9934C70.2824 66.7476 70.2287 66.5042 70.1757 66.2635C70.147 66.1437 70.1255 66.0236 70.0913 65.9064C70.0576 65.7893 70.0241 65.6729 69.9908 65.5572C69.9214 65.3267 69.8652 65.0969 69.783 64.8769C69.4889 63.988 69.1219 63.1826 68.7457 62.4669C68.3587 61.7547 67.9467 61.1393 67.5542 60.6202C67.1558 60.1039 66.7729 59.6865 66.4429 59.3612C66.1111 59.0368 65.8291 58.8066 65.6336 58.6566C65.4358 58.5079 65.3238 58.4397 65.3238 58.4397C65.3238 58.4397 65.3963 58.5499 65.5204 58.7588C65.6431 58.9693 65.817 59.2785 66.0199 59.6761C66.2181 60.0773 66.4481 60.5639 66.678 61.1307C66.7839 61.4191 66.9137 61.7139 67.0167 62.0399C67.0682 62.2027 67.1344 62.3623 67.1837 62.534C67.2356 62.7037 67.2886 62.8773 67.3428 63.0546C67.3911 63.2329 67.4404 63.415 67.4907 63.6005C67.5153 63.6931 67.5419 63.7857 67.5654 63.8802C67.5862 63.9756 67.6072 64.0718 67.6284 64.1688C67.667 64.3637 67.7218 64.556 67.7575 64.7572C67.7939 64.9574 67.8307 65.1607 67.8681 65.3668C67.8892 65.4688 67.9014 65.5738 67.9151 65.6789C67.9297 65.7837 67.9443 65.8892 67.9591 65.9953C67.9888 66.2071 68.0214 66.4203 68.0371 66.6391C68.058 66.8563 68.0791 67.0758 68.1004 67.2974C68.1111 67.5198 68.1219 67.7443 68.1329 67.9707C68.1386 68.0835 68.1444 68.1968 68.1503 68.3105C68.1501 68.4248 68.15 68.5394 68.1499 68.6545C68.1508 68.884 68.1517 69.1152 68.1526 69.3477C68.1422 69.5804 68.1319 69.8146 68.1214 70.0499C68.1171 70.1673 68.1128 70.285 68.1086 70.403C68.0975 70.521 68.0865 70.6393 68.0754 70.7578C68.0549 70.9946 68.0343 71.2323 68.0136 71.4707C68.0051 71.5899 67.9818 71.7088 67.9667 71.828L67.9185 72.1861L67.8707 72.5448L67.847 72.7244L67.8142 72.9033L67.6829 73.6197L67.6202 73.9785L67.5371 74.3344C67.4833 74.572 67.4295 74.8093 67.3758 75.0462C67.3288 75.2845 67.2553 75.5173 67.1934 75.7519C67.1298 75.9864 67.0665 76.2202 67.0034 76.4531C66.948 76.6881 66.8634 76.9151 66.7926 77.1444C66.7208 77.3739 66.6494 77.6023 66.5784 77.8293C66.5408 77.9422 66.5123 78.0578 66.4704 78.1687C66.4299 78.2803 66.3897 78.3915 66.3495 78.5023C66.2705 78.7247 66.192 78.9456 66.1142 79.1646C66.0344 79.3831 65.9669 79.6047 65.8766 79.8157C65.7907 80.0283 65.7068 80.2397 65.6252 80.4498C65.5435 80.6602 65.4628 80.8683 65.383 81.074C65.3454 81.178 65.3017 81.2787 65.257 81.3782C65.2138 81.4786 65.171 81.5784 65.1284 81.6775C64.9603 82.0753 64.792 82.4609 64.6367 82.8393C64.4662 83.2115 64.3015 83.5711 64.1434 83.9163C63.842 84.618 63.525 85.243 63.2599 85.81C63.1278 86.0948 63.0042 86.3614 62.8898 86.6078C62.769 86.8509 62.6563 87.0737 62.5591 87.2788C62.1635 88.0941 61.959 88.5833 61.959 88.5833C61.959 88.5833 62.3484 88.2351 62.9922 87.5849C63.1549 87.4235 63.3299 87.2407 63.5223 87.0421C63.711 86.8409 63.8999 86.612 64.1106 86.3724C64.3202 86.132 64.5356 85.8702 64.7675 85.5963C64.8249 85.5274 64.883 85.4576 64.9419 85.3869C64.997 85.3136 65.0527 85.2394 65.1092 85.1643C65.2219 85.0136 65.3373 84.8595 65.4551 84.702C65.6893 84.3855 65.9307 84.0533 66.1774 83.7061C66.4109 83.3505 66.6446 82.9773 66.8897 82.595C67.0099 82.4025 67.1395 82.2116 67.2507 82.0065C67.3637 81.8023 67.4782 81.5955 67.5939 81.3865C67.823 80.9666 68.0653 80.5409 68.2684 80.0845C68.3739 79.858 68.4803 79.6297 68.5874 79.3998C68.6936 79.1693 68.8032 78.9379 68.8928 78.6955C69.0772 78.2133 69.2815 77.7316 69.4461 77.2288C69.526 76.9764 69.6062 76.723 69.6866 76.4688Z" fill="white" style="fill:white;fill-opacity:1;"/>
</svg>
