<svg width="120" height="20" viewBox="0 0 120 20" fill="none" xmlns="http://www.w3.org/2000/svg">
<g clip-path="url(#clip0_834_6163)">
<path d="M47.0684 1.81527C47.0684 0.811709 47.8843 0 48.8887 0C49.8965 0 50.7156 0.811709 50.7156 1.81527C50.7156 2.81754 49.8965 3.63011 48.8887 3.63011C47.8843 3.63011 47.0684 2.81754 47.0684 1.81527Z" fill="#273B7D" style="fill:#273B7D;fill:color(display-p3 0.1529 0.2314 0.4902);fill-opacity:1;"/>
<path d="M75.8457 13.8898C75.8457 12.8858 76.6612 12.0732 77.6657 12.0732C78.6731 12.0732 79.4921 12.8858 79.4921 13.8898C79.4921 14.8912 78.6731 15.7047 77.6657 15.7047C76.6612 15.7047 75.8457 14.8912 75.8457 13.8898Z" fill="#499FDD" style="fill:#499FDD;fill:color(display-p3 0.2863 0.6235 0.8667);fill-opacity:1;"/>
<path d="M17.1352 13.105C15.5645 13.105 14.4729 11.8666 14.4729 10.0969C14.4729 8.32762 15.5645 7.09005 17.1352 7.09005C18.715 7.09005 19.8186 8.32762 19.8186 10.0969C19.8186 11.8945 18.738 13.105 17.1352 13.105ZM17.1352 4.44629C13.8121 4.44629 11.4004 6.82335 11.4004 10.0969C11.4004 13.3704 13.8121 15.747 17.1352 15.747C20.4708 15.747 22.8925 13.3704 22.8925 10.0969C22.8925 6.82335 20.4708 4.44629 17.1352 4.44629Z" fill="#273B7D" style="fill:#273B7D;fill:color(display-p3 0.1529 0.2314 0.4902);fill-opacity:1;"/>
<path d="M43.5368 10.3792C43.4076 10.1379 43.2595 9.93359 43.1018 9.77143L43.0013 9.6656L43.107 9.56495C43.2595 9.40536 43.4155 9.21608 43.5659 8.99671L46.4984 4.66887H42.9384L40.735 8.05422C40.6103 8.23575 40.3584 8.32738 39.9815 8.32738H39.4793V1.92703C39.4793 0.646871 38.6759 0.472656 37.808 0.472656H36.3223L36.3248 15.5803H39.4793V11.0486H39.7748C40.1344 11.0486 40.3793 11.0899 40.4916 11.2839L42.2317 14.5445C42.7178 15.4293 43.2022 15.5803 44.1135 15.5803H46.5309L44.7306 12.6238L43.5368 10.3792Z" fill="#273B7D" style="fill:#273B7D;fill:color(display-p3 0.1529 0.2314 0.4902);fill-opacity:1;"/>
<path d="M58.8513 4.42188C57.2468 4.42188 56.2229 5.12948 55.6492 5.72784L55.4577 5.92013L55.3901 5.6586C55.2216 5.01765 54.6534 4.66491 53.7985 4.66491H52.3848L52.3936 15.5764H55.5266V10.5474C55.5266 10.0557 55.591 9.62897 55.722 9.23967C56.0708 8.06145 57.0435 7.32889 58.2594 7.32889C59.2374 7.32889 59.6196 7.84122 59.6196 9.16525V13.9177C59.6196 15.0477 60.146 15.5764 61.2852 15.5764H62.7762L62.7711 8.63659C62.7711 5.87926 61.4165 4.42188 58.8522 4.42188" fill="#273B7D" style="fill:#273B7D;fill:color(display-p3 0.1529 0.2314 0.4902);fill-opacity:1;"/>
<path d="M48.9303 4.66992H47.4453L47.4555 13.1067H47.4545V15.5792H49.0396C49.0596 15.5792 49.0756 15.5813 49.0955 15.5813L49.8338 15.5792H50.5687V15.5749H50.5738L50.5801 6.32648C50.5801 5.21064 50.0428 4.66994 48.9314 4.66994" fill="#273B7D" style="fill:#273B7D;fill:color(display-p3 0.1529 0.2314 0.4902);fill-opacity:1;"/>
<path d="M29.4418 13.105C27.8711 13.105 26.7774 11.8666 26.7774 10.0969C26.7774 8.32762 27.8711 7.09005 29.4418 7.09005C31.0182 7.09005 32.1249 8.32762 32.1249 10.0969C32.1249 11.8945 31.0446 13.105 29.4418 13.105ZM29.4418 4.44629C26.1153 4.44629 23.7031 6.82335 23.7031 10.0969C23.7031 13.3704 26.1153 15.747 29.4418 15.747C32.7739 15.747 35.1996 13.3704 35.1996 10.0969C35.1996 6.82335 32.7739 4.44629 29.4418 4.44629Z" fill="#273B7D" style="fill:#273B7D;fill:color(display-p3 0.1529 0.2314 0.4902);fill-opacity:1;"/>
<path d="M96.5992 13.105C95.0292 13.105 93.9348 11.8666 93.9348 10.0969C93.9348 8.32762 95.0292 7.09005 96.5992 7.09005C98.1759 7.09005 99.2831 8.32762 99.2831 10.0969C99.2831 11.8945 98.2023 13.105 96.5992 13.105ZM96.5992 4.44629C93.2735 4.44629 90.8613 6.82335 90.8613 10.0969C90.8613 13.3704 93.2735 15.747 96.5992 15.747C99.9317 15.747 102.357 13.3704 102.357 10.0969C102.357 6.82335 99.9317 4.44629 96.5992 4.44629Z" fill="#499FDD" style="fill:#499FDD;fill:color(display-p3 0.2863 0.6235 0.8667);fill-opacity:1;"/>
<path d="M69.3766 12.6247C67.6638 12.6247 67.0541 11.1411 67.0541 9.75079C67.0541 9.13825 67.2101 7.14187 69.212 7.14187C70.2069 7.14187 71.5328 7.42491 71.5328 9.8536C71.5328 12.1442 70.3594 12.6247 69.3766 12.6247ZM73.1594 4.64049C72.5649 4.64049 72.1074 4.87579 71.8781 5.30552L71.7915 5.47242L71.6463 5.34725C71.1406 4.91279 70.2338 4.39746 68.7614 4.39746C65.8317 4.39746 63.8594 6.58181 63.8594 9.83252C63.8594 13.0794 65.9002 15.3485 68.8203 15.3485C69.8177 15.3485 70.606 15.1175 71.2307 14.6477L71.4726 14.4675V14.7708C71.4726 16.2281 70.5232 17.0321 68.8022 17.0321C67.9658 17.0321 67.2045 16.8299 66.6954 16.6467C66.0306 16.4475 65.6411 16.6123 65.3716 17.2743L65.1229 17.8851L64.7711 18.7773L64.989 18.8926C66.0905 19.4728 67.5243 19.8191 68.8203 19.8191C71.4886 19.8191 74.604 18.4633 74.604 14.6477L74.6155 4.64049H73.1599" fill="#273B7D" style="fill:#273B7D;fill:color(display-p3 0.1529 0.2314 0.4902);fill-opacity:1;"/>
<path d="M5.46785 12.9799L2.91745 12.9774V9.95038C2.91745 9.30341 3.17008 8.96702 3.72855 8.8896H5.46785C6.70926 8.8896 7.51133 9.6669 7.51222 10.9242C7.51134 12.2147 6.7292 12.9791 5.46785 12.9799ZM2.91745 4.81419V4.01754C2.91745 3.32025 3.21466 2.9886 3.86687 2.94601H5.17191C6.29114 2.94601 6.9615 3.61104 6.9615 4.72344C6.9615 5.57171 6.50261 6.56151 5.21306 6.56151H2.91745V4.81419ZM8.72506 7.83521L8.26401 7.57797L8.66651 7.23643C9.13454 6.83681 9.91922 5.93864 9.91922 4.38662C9.91922 2.01213 8.06384 0.479468 5.19223 0.479468H1.91521V0.478516H1.54205C0.690688 0.509496 0.00952584 1.19688 0 2.04731V15.5255H1.50394C1.50775 15.5265 1.50902 15.5255 1.51029 15.5265L5.25701 15.5255C8.44919 15.5255 10.5096 13.8006 10.5096 11.1288C10.5096 9.6904 9.84365 8.46056 8.72442 7.83511" fill="#273B7D" style="fill:#273B7D;fill:color(display-p3 0.1529 0.2314 0.4902);fill-opacity:1;"/>
<path d="M116.353 4.45703C115.053 4.45703 113.797 5.0614 112.99 6.07485L112.763 6.36048L112.585 6.04087C112.005 4.99042 111.006 4.45703 109.617 4.45703C108.161 4.45703 107.184 5.26357 106.73 5.7432L106.434 6.06238L106.319 5.64254C106.154 5.03817 105.612 4.70522 104.79 4.70522H103.474L103.461 15.5745H106.453V10.7765C106.453 10.3562 106.505 9.94027 106.611 9.50538C106.897 8.3461 107.682 7.09907 109.002 7.22381C109.815 7.30124 110.213 7.92541 110.213 9.13115V15.5745H113.226V10.7765C113.226 10.2513 113.275 9.85811 113.395 9.46366C113.637 8.35686 114.457 7.2221 115.73 7.2221C116.651 7.2221 116.991 7.74001 116.991 9.13115V13.9855C116.991 15.0837 117.485 15.5745 118.59 15.5745H119.999L120.001 8.63561C120.001 5.86365 118.772 4.45703 116.353 4.45703" fill="#499FDD" style="fill:#499FDD;fill:color(display-p3 0.2863 0.6235 0.8667);fill-opacity:1;"/>
<path d="M89.1285 11.8008C89.1197 11.8115 87.8321 13.1592 86.137 13.1592C84.5927 13.1592 83.0324 12.2185 83.0324 10.1184C83.0324 8.30529 84.2422 7.03803 85.9737 7.03803C86.5361 7.03803 87.1756 7.23806 87.2757 7.57444L87.2904 7.63123C87.521 8.39391 88.2191 8.43477 88.3564 8.43477L89.9956 8.43644V7.01391C89.9956 5.13755 87.5916 4.45703 85.9737 4.45703C82.5142 4.45703 80.0039 6.84829 80.0039 10.1412C80.0039 13.4328 82.4869 15.8206 85.9104 15.8206C88.8807 15.8206 90.4961 13.8823 90.5112 13.8629L90.5974 13.7579L89.2992 11.6201L89.1285 11.8008Z" fill="#499FDD" style="fill:#499FDD;fill:color(display-p3 0.2863 0.6235 0.8667);fill-opacity:1;"/>
</g>
<defs>
<clipPath id="clip0_834_6163">
<rect width="120" height="19.7938" fill="white" style="fill:white;fill-opacity:1;"/>
</clipPath>
</defs>
</svg>
