<svg width="95" height="24" viewBox="0 0 95 24" fill="none" xmlns="http://www.w3.org/2000/svg">
<g clip-path="url(#clip0_834_6132)">
<mask id="mask0_834_6132" style="mask-type:luminance" maskUnits="userSpaceOnUse" x="0" y="0" width="94" height="24">
<path d="M93.1572 0.92334H0.921875V23.0772H93.1572V0.92334Z" fill="white" style="fill:white;fill-opacity:1;"/>
</mask>
<g mask="url(#mask0_834_6132)">
<path d="M98.5536 -2.07764H-0.71875V23.0771H98.5536V-2.07764Z" fill="#005EA6" style="fill:#005EA6;fill:color(display-p3 0.0000 0.3686 0.6510);fill-opacity:1;"/>
<path d="M99.0146 19.022H-0.257812V20.0122H99.0146V19.022Z" fill="white" style="fill:white;fill-opacity:1;"/>
<path d="M98.5536 20.0117H-0.71875V31.6877H98.5536V20.0117Z" fill="#C41623" style="fill:#C41623;fill:color(display-p3 0.7686 0.0863 0.1373);fill-opacity:1;"/>
</g>
<path d="M93.1576 0.923077V23.0769H0.922353V0.923077H93.1576ZM94.08 0H93.1576H0.922353H0V0.923077V23.0769V24H0.922353H93.1576H94.08V23.0769V0.923077V0Z" fill="white" style="fill:white;fill-opacity:1;"/>
<path d="M17.6962 15.0551C17.6962 14.7738 17.6962 5.3291 17.6962 5.3291H14.6455C14.6455 5.3291 14.6455 14.3674 14.6455 14.6333C14.6455 16.0818 13.4107 16.9446 11.6649 16.9446C9.67148 16.9446 8.5771 16.082 8.5771 14.6153C8.5771 14.3503 8.5771 5.3291 8.5771 5.3291H5.52734C5.52734 5.3291 5.52734 14.5613 5.52734 14.8786C5.52734 18.1472 8.11962 19.4524 11.5939 19.4524C13.9918 19.4524 15.9239 18.7961 16.9325 17.4689V19.2756H19.6536V16.4353H17.4797C17.6203 16.0186 17.6962 15.5593 17.6962 15.0551Z" fill="white" style="fill:white;fill-opacity:1;"/>
<path d="M32.2786 15.252C32.2786 12.8672 30.8329 11.7196 28.0623 11.1895C27.7444 11.1364 26.8266 10.9417 26.1231 10.8009C23.847 10.3421 23.0173 9.93642 23.0173 8.91227C23.0173 8.11727 23.4766 7.60611 25.7871 7.60611C27.5507 7.60611 28.3093 8.01181 28.6794 8.78881C28.7857 9.00157 28.874 9.31796 28.874 9.4765H32.0139C32.0139 9.12227 31.8735 8.59496 31.6959 8.13527C30.9915 6.37034 29.3504 5.15234 25.8575 5.15234C21.7654 5.15234 19.8612 6.7398 19.8612 9.10704C19.8612 11.42 21.5358 12.6731 24.2533 13.1847C24.8703 13.3073 25.8934 13.503 26.2997 13.5743C28.5551 13.998 29.1387 14.4027 29.1387 15.551C29.1387 16.4695 28.3983 17.0501 26.2799 17.0501C24.429 17.0501 23.5119 16.6987 23.1236 15.8863C23.0173 15.6754 22.929 15.2517 22.929 15.0039H19.7891C19.7891 15.2852 19.8421 15.9747 19.9855 16.4326C20.5477 18.1984 22.0645 19.4695 26.2799 19.4695C28.928 19.4695 30.6906 18.7257 31.5853 17.4953V19.2756H34.3055V16.4356H32.1082C32.2185 16.0656 32.2786 15.6715 32.2786 15.252Z" fill="white" style="fill:white;fill-opacity:1;"/>
<path d="M44.1476 14.3146L38.7855 5.32959H35.2402V19.2761H38.1505V9.83051L43.7602 19.2761H47.0579V5.32959H44.1476V14.3146Z" fill="white" style="fill:white;fill-opacity:1;"/>
<path d="M53.7978 8.74463C51.5542 8.74463 49.7787 9.58578 48.7878 11.0262C48.2095 11.8492 47.8906 12.8959 47.8906 14.0745C47.8906 15.3663 48.1708 16.3949 48.6769 17.1989C49.6668 18.7709 51.5159 19.4436 53.7976 19.4436C55.4604 19.4436 56.7141 19.0884 57.6122 18.5096C58.639 17.8524 59.2372 16.9185 59.4786 15.9271H56.5439C56.489 16.1526 56.2269 16.4879 55.6864 16.7311C55.2549 16.9185 54.6388 17.0682 53.7976 17.0682C52.6763 17.0682 51.8367 16.7699 51.4043 16.3021C51.0504 15.9091 50.844 15.5549 50.844 15.0843H59.554C59.7216 13.5338 59.4415 12.055 58.675 10.9328C57.761 9.60378 56.1521 8.74463 53.7978 8.74463ZM50.8253 13.1216C50.8253 12.8209 51.1064 12.2052 51.4613 11.887C51.9665 11.4382 52.7521 11.1559 53.8158 11.1559C54.9381 11.1559 55.6478 11.5129 56.0793 11.9429C56.4521 12.3359 56.5801 12.8209 56.5801 13.1214L50.8253 13.1216Z" fill="white" style="fill:white;fill-opacity:1;"/>
<path d="M74.965 8.98877L72.5556 16.6378L70.237 8.98877H66.9115L64.6506 16.6378L62.1835 8.98877H59.0625L62.7411 19.2765H66.2954C66.2954 19.2765 68.3149 13.3658 68.3328 13.0092C68.3517 12.8966 68.4617 12.2872 68.4617 12.2872C68.4617 12.2872 68.5752 12.8966 68.595 13.0282C68.631 13.3658 70.6514 19.2765 70.6514 19.2765H74.1831L77.9023 8.98877H74.965Z" fill="white" style="fill:white;fill-opacity:1;"/>
<path d="M84.9993 13.0279C84.6453 12.9721 83.206 12.7646 82.6079 12.6737C81.1506 12.4482 80.8307 12.2807 80.8307 11.8318C80.8307 11.3467 81.318 11.0827 82.9637 11.0827C84.3832 11.0827 84.9246 11.3278 85.1307 11.6073C85.2225 11.7379 85.2622 12.0552 85.2622 12.1671H88.1588C88.1588 11.9615 88.1021 11.3278 87.9716 10.933C87.4491 9.45651 85.671 8.72705 82.8509 8.72705C79.5415 8.72705 77.8986 9.92428 77.8986 11.755C77.8986 13.7214 78.9821 14.7121 81.2439 15.0294C81.8601 15.1231 83.0939 15.3107 83.485 15.3665C84.9991 15.5911 85.617 15.7207 85.617 16.3023C85.617 16.9 85.0936 17.1993 83.393 17.1993C81.7662 17.1993 80.9818 17.0687 80.7943 16.5827C80.7196 16.3761 80.7016 16.1897 80.7016 16.0581H77.7305C77.7305 16.3953 77.7485 16.6766 77.8411 17.0876C78.2717 18.7715 79.9155 19.462 83.3933 19.462C86.9438 19.462 88.5508 18.3776 88.5508 16.2455C88.5508 14.3193 87.4654 13.4024 84.9993 13.0279Z" fill="white" style="fill:white;fill-opacity:1;"/>
<path d="M49.5876 8.15318C49.8541 8.15318 50.1424 8.10818 50.3586 8.01795C50.3983 8.05302 50.4433 8.09179 50.4901 8.12525H51.5556C51.3529 7.96395 51.1413 7.80079 50.9549 7.66279C51.1793 7.4491 51.3216 7.14541 51.335 6.79371H50.5496C50.5415 6.9541 50.4901 7.10295 50.3983 7.21925C50.2371 7.08679 50.0759 6.94256 49.9498 6.83964C50.229 6.66656 50.5011 6.41964 50.5101 6.06448C50.5101 6.04556 50.5138 5.96802 50.5101 5.94287C50.4903 5.60295 50.1795 5.29395 49.6464 5.29395C49.0627 5.29395 48.7249 5.62025 48.7097 5.96456C48.7097 6.00956 48.7097 6.07464 48.7097 6.10694C48.7143 6.27633 48.7763 6.46833 48.9394 6.6991C48.6078 6.8551 48.3053 7.05333 48.2981 7.37248C48.2981 7.40848 48.2953 7.47356 48.2981 7.51764C48.3221 8.03156 48.9218 8.15318 49.5876 8.15318ZM49.4497 6.07718C49.4614 5.97795 49.5135 5.89325 49.6378 5.89325C49.7667 5.89325 49.8108 5.97448 49.8154 6.06725C49.8154 6.07718 49.8154 6.10695 49.8154 6.12402C49.8064 6.23318 49.7063 6.32595 49.5631 6.41064C49.4937 6.31948 49.454 6.23041 49.4497 6.15287C49.4462 6.12933 49.4462 6.09979 49.4497 6.07718ZM49.348 7.16871C49.466 7.28779 49.6325 7.41748 49.793 7.55548C49.7236 7.57348 49.6272 7.58341 49.5481 7.58341C49.2562 7.58341 49.131 7.53194 49.131 7.39671C49.1308 7.31756 49.22 7.24095 49.348 7.16871Z" fill="white" style="fill:white;fill-opacity:1;"/>
<path d="M53.9715 8.12545C53.9715 8.12545 54.4002 6.51375 54.4048 6.41983C54.4156 6.51006 54.8344 8.12545 54.8344 8.12545H55.771L56.5564 5.32275H55.7251C55.7251 5.32275 55.3045 7.05352 55.3045 7.14191C55.3045 7.05352 54.8793 5.32275 54.8793 5.32275H53.9985C53.9985 5.32275 53.5841 7.05352 53.5841 7.14191C53.5841 7.05352 53.1564 5.32275 53.1564 5.32275H52.2402L53.042 8.12545H53.9715Z" fill="white" style="fill:white;fill-opacity:1;"/>
<path d="M58.0841 8.16792C59.109 8.16792 59.5767 7.68377 59.5767 6.69954C59.5767 5.76285 59.1406 5.27246 58.0841 5.27246C57.0483 5.27246 56.5898 5.81592 56.5898 6.71015C56.5896 7.66785 57.0563 8.16792 58.0841 8.16792ZM58.0841 5.93523C58.5588 5.93523 58.711 6.16415 58.711 6.71938C58.711 7.34408 58.4823 7.51092 58.0887 7.51092C57.6789 7.51092 57.4645 7.31361 57.4645 6.71938C57.4642 6.15608 57.6273 5.93523 58.0841 5.93523Z" fill="white" style="fill:white;fill-opacity:1;"/>
<path d="M60.8 7.17675H61.3792L61.871 8.12498H62.833L62.1782 7.00275C62.3078 6.97391 62.4339 6.88645 62.5222 6.73691C62.5969 6.61252 62.6456 6.43414 62.6456 6.20868C62.6456 5.94629 62.5932 5.75798 62.4844 5.61652C62.343 5.42983 62.1007 5.32275 61.7278 5.32275H59.9551V8.12545H60.8V7.17675ZM60.808 5.98229H61.5305C61.6547 5.98229 61.7368 6.00929 61.7781 6.09952C61.8023 6.14106 61.8088 6.21675 61.8088 6.27975C61.8088 6.3356 61.7979 6.41037 61.7763 6.45998C61.7447 6.52945 61.6547 6.55368 61.5494 6.55368H60.808V5.98229Z" fill="white" style="fill:white;fill-opacity:1;"/>
<path d="M65.4496 7.43222H64.1048V5.32275H63.2383V8.12545H65.4496V7.43222Z" fill="white" style="fill:white;fill-opacity:1;"/>
<path d="M68.4181 7.71883C68.5731 7.48622 68.6153 7.26722 68.6153 6.66952C68.6153 6.15929 68.5819 5.92575 68.4098 5.68783C68.2369 5.44714 67.9217 5.32275 67.4155 5.32275H65.8789V8.12545H67.4571C67.9607 8.12545 68.2498 7.97752 68.4181 7.71883ZM66.7312 7.46383V5.97814H67.2717C67.4833 5.97814 67.586 6.00975 67.695 6.12952C67.7635 6.20891 67.7833 6.46852 67.7833 6.66952C67.7833 6.89752 67.7753 7.21483 67.7022 7.30414C67.6058 7.41768 67.4905 7.4636 67.2717 7.4636L66.7312 7.46383Z" fill="white" style="fill:white;fill-opacity:1;"/>
<path d="M70.883 7.17675H71.4613L71.9559 8.12498H72.9161L72.2603 7.00275C72.3892 6.97391 72.5179 6.88645 72.6053 6.73691C72.6791 6.61252 72.7286 6.43414 72.7286 6.20868C72.7286 5.94629 72.6763 5.75798 72.5675 5.61652C72.4261 5.42983 72.1838 5.32275 71.8109 5.32275H70.0391V8.12545H70.883V7.17675ZM70.8911 5.98229H71.6117C71.735 5.98229 71.8197 6.00929 71.863 6.09952C71.8847 6.14106 71.89 6.21675 71.89 6.27975C71.89 6.3356 71.881 6.41037 71.8593 6.45998C71.8277 6.52945 71.735 6.55368 71.6306 6.55368H70.8911V5.98229Z" fill="white" style="fill:white;fill-opacity:1;"/>
<path d="M75.7532 7.47191H74.2004V7.05537H75.6813V6.38914H74.2004V5.98275H75.738V5.32275H73.3574V8.12545H75.7532V7.47191Z" fill="white" style="fill:white;fill-opacity:1;"/>
<path d="M77.1661 7.24806C77.1661 7.24806 77.9235 7.25429 78.0289 7.25268C78.373 7.24552 78.6414 7.15622 78.8025 6.96791C78.942 6.81906 79.0096 6.59914 79.0096 6.28829C79.0096 5.94029 78.9213 5.69868 78.7573 5.55722C78.6042 5.39775 78.3637 5.32275 78.0259 5.32275H76.3027V8.12545H77.1656V7.24806H77.1661ZM77.1554 5.97445H77.8391C77.9805 5.97445 78.0617 6.01783 78.1094 6.10691C78.1354 6.14475 78.1472 6.21698 78.1472 6.30422C78.1472 6.38614 78.1401 6.43852 78.1122 6.48906C78.0716 6.5666 77.9916 6.6206 77.8285 6.6206C77.8239 6.6206 77.1557 6.6206 77.1557 6.6206V5.97445H77.1554Z" fill="white" style="fill:white;fill-opacity:1;"/>
<path d="M80.8047 8.16792C81.828 8.16792 82.2963 7.68377 82.2963 6.69954C82.2963 5.76285 81.8594 5.27246 80.8047 5.27246C79.767 5.27246 79.3086 5.81592 79.3086 6.71015C79.3084 7.66785 79.7751 8.16792 80.8047 8.16792ZM80.8047 5.93523C81.2794 5.93523 81.4298 6.16415 81.4298 6.71938C81.4298 7.34408 81.201 7.51092 80.8056 7.51092C80.3967 7.51092 80.1841 7.31361 80.1841 6.71938C80.1839 6.15608 80.3451 5.93523 80.8047 5.93523Z" fill="white" style="fill:white;fill-opacity:1;"/>
<path d="M83.5324 7.17675H84.1116L84.6053 8.12498H85.5645L84.9106 7.00275C85.042 6.97391 85.1672 6.88645 85.2574 6.73691C85.3293 6.61252 85.3798 6.43414 85.3798 6.20868C85.3798 5.94629 85.325 5.75798 85.2177 5.61652C85.0755 5.42983 84.8304 5.32275 84.4593 5.32275H82.6875V8.12545H83.5324V7.17675ZM83.5395 5.98229H84.262C84.3844 5.98229 84.469 6.00929 84.5115 6.09952C84.5331 6.14106 84.5393 6.21675 84.5393 6.27975C84.5393 6.3356 84.5294 6.41037 84.5087 6.45998C84.478 6.52945 84.3844 6.55368 84.279 6.55368H83.5395V5.98229Z" fill="white" style="fill:white;fill-opacity:1;"/>
<path d="M86.5191 8.12545H87.3919V5.99706H88.2872V5.32275H85.6309V5.99706H86.5191V8.12545Z" fill="white" style="fill:white;fill-opacity:1;"/>
</g>
<defs>
<clipPath id="clip0_834_6132">
<rect width="94.08" height="24" fill="white" style="fill:white;fill-opacity:1;"/>
</clipPath>
</defs>
</svg>
