<svg width="20" height="14" viewBox="0 0 20 14" fill="none" xmlns="http://www.w3.org/2000/svg">
<path d="M18.6488 2.31398C18.4327 1.51072 17.7994 0.877518 16.9963 0.661224C15.529 0.259766 9.65993 0.259766 9.65993 0.259766C9.65993 0.259766 3.79105 0.259766 2.32381 0.646004C1.53611 0.862068 0.887344 1.51083 0.67128 2.31398C0.285156 3.78111 0.285156 6.82375 0.285156 6.82375C0.285156 6.82375 0.285156 9.88173 0.67128 11.3335C0.887573 12.1367 1.52066 12.7699 2.32392 12.9862C3.8065 13.3877 9.66016 13.3877 9.66016 13.3877C9.66016 13.3877 15.529 13.3877 16.9963 13.0015C17.7995 12.7853 18.4327 12.1521 18.649 11.349C19.035 9.88173 19.035 6.8392 19.035 6.8392C19.035 6.8392 19.0505 3.78111 18.6488 2.31398ZM7.79134 9.63465V4.01286L12.6718 6.82375L7.79134 9.63465Z" fill="white" style="fill:white;fill-opacity:1;"/>
</svg>
