<svg width="83" height="97" viewBox="0 0 83 97" fill="none" xmlns="http://www.w3.org/2000/svg">
<path d="M6.05859 82.5422L0 95.9292H1.90092L3.43664 92.5099H10.2256L11.7426 95.9292H13.7185L7.65986 82.5422H6.05859ZM9.48587 90.833H4.17641L6.84518 84.8843L9.48587 90.833Z" fill="white" style="fill:white;fill-opacity:1;"/>
<path d="M21.0885 93.4749L16.6219 82.636H14.5898L20.302 96.0324H21.8377L27.5592 82.636H25.5833L21.0885 93.4749Z" fill="white" style="fill:white;fill-opacity:1;"/>
<path d="M34.4805 82.5422L28.4219 95.9292H30.3228L31.8585 92.5099H38.6475L40.1645 95.9292H42.1403L36.0911 82.5422H34.4805ZM37.9171 90.833H32.6076L35.2764 84.8843L37.9171 90.833Z" fill="white" style="fill:white;fill-opacity:1;"/>
<path d="M46.0448 82.6359H44.2188V95.9386H53.3207V94.2148H46.0448V82.6359Z" fill="white" style="fill:white;fill-opacity:1;"/>
<path d="M61.8609 82.4204C59.8944 82.4204 58.2557 83.1043 56.9821 84.4439C55.7086 85.7836 55.0625 87.4136 55.0625 89.2872C55.0625 91.1702 55.6993 92.8096 56.9634 94.1399C58.2276 95.4795 59.8569 96.154 61.8234 96.154C63.7899 96.154 65.4286 95.4702 66.7021 94.1305C67.9756 92.7909 68.6218 91.1608 68.6218 89.2872C68.6218 87.4042 67.985 85.7648 66.7208 84.4345C65.4661 83.0949 63.8273 82.4204 61.8609 82.4204ZM61.8609 94.4397C60.4562 94.4397 59.2764 93.9338 58.3493 92.9501C57.4223 91.9571 56.9541 90.7299 56.9541 89.2966C56.9541 87.8539 57.4223 86.6173 58.3306 85.6243C59.2389 84.6406 60.4188 84.1441 61.8234 84.1441C63.228 84.1441 64.4079 84.65 65.335 85.6337C66.262 86.6267 66.7302 87.8539 66.7302 89.2872C66.7302 90.7299 66.262 91.9665 65.3537 92.9501C64.4454 93.9432 63.2655 94.4397 61.8609 94.4397Z" fill="white" style="fill:white;fill-opacity:1;"/>
<path d="M80.8327 82.6359V92.641L72.9762 82.6359H71.3281V95.9386H73.126V85.6899L81.1324 95.8636L81.1885 95.9386H82.6306V82.6359H80.8327Z" fill="white" style="fill:white;fill-opacity:1;"/>
<path d="M48.48 73.755H76.9844L48.5455 0H41.3164H34.0873L5.64844 73.755H34.1529V60.2649H25.3599L41.3164 19.3357L57.2729 60.2649H48.48V73.755Z" fill="white" style="fill:white;fill-opacity:1;"/>
</svg>
