<svg width="36" height="36" viewBox="0 0 36 36" fill="none" xmlns="http://www.w3.org/2000/svg">
<rect x="0.375" y="0.375" width="35.25" height="35.25" rx="17.625" fill="white" style="fill:white;fill-opacity:1;"/>
<rect x="0.375" y="0.375" width="35.25" height="35.25" rx="17.625" stroke="white" style="stroke:white;stroke-opacity:1;" stroke-width="0.75"/>
<mask id="mask0_674_17272" style="mask-type:luminance" maskUnits="userSpaceOnUse" x="10" y="10" width="16" height="16">
<path d="M25.2273 10.5H10.5V25.2273H25.2273V10.5Z" fill="white" style="fill:white;fill-opacity:1;"/>
</mask>
<g mask="url(#mask0_674_17272)">
<path d="M23.0463 12.684C21.665 11.302 19.8281 10.5403 17.8712 10.5396C13.8385 10.5396 10.5566 13.82 10.5551 17.8526C10.5544 19.1416 10.8913 20.4 11.5314 21.5088L10.5391 25.1877L14.3717 24.2817C15.4403 24.8646 16.6429 25.1715 17.8675 25.1723H17.8704C21.9023 25.1723 25.1842 21.8911 25.1864 17.8592C25.1879 15.9045 24.4276 14.0668 23.0463 12.684ZM21.4504 20.4666C21.2981 20.8936 20.5518 21.3052 20.2163 21.3352C19.8809 21.3659 19.5666 21.4868 18.0227 20.8782C16.1646 20.1458 14.9913 18.2408 14.9005 18.1192C14.8089 17.9969 14.1542 17.1283 14.1542 16.2289C14.1542 15.3295 14.6266 14.8871 14.7943 14.7047C14.962 14.5216 15.1598 14.4762 15.2821 14.4762C15.4037 14.4762 15.526 14.4762 15.6322 14.4806C15.7625 14.4858 15.9068 14.4924 16.0438 14.7963C16.2064 15.1581 16.5616 16.0619 16.607 16.1535C16.6524 16.245 16.6832 16.3519 16.6224 16.4735C16.5616 16.5951 16.5309 16.6712 16.44 16.7782C16.3485 16.8851 16.2482 17.0162 16.1661 17.0982C16.0746 17.189 15.9793 17.2887 16.0855 17.4711C16.1925 17.6541 16.5587 18.2525 17.1021 18.7366C17.8008 19.3592 18.3889 19.5518 18.5721 19.6441C18.7552 19.7356 18.8613 19.7202 18.9683 19.5979C19.0752 19.4764 19.4253 19.0647 19.5469 18.8816C19.6684 18.6985 19.7908 18.7293 19.9585 18.7901C20.1262 18.8509 21.0249 19.2933 21.2073 19.3848C21.3904 19.4764 21.5119 19.5218 21.5573 19.5979C21.6027 19.6734 21.6027 20.0396 21.4504 20.4666Z" fill="#0A4A7F" style="fill:#0A4A7F;fill:color(display-p3 0.0392 0.2902 0.4980);fill-opacity:1;"/>
</g>
</svg>
