<svg width="46" height="45" viewBox="0 0 46 45" fill="none" xmlns="http://www.w3.org/2000/svg">
<rect x="0.875" y="0.375" width="44.25" height="44.25" rx="22.125" stroke="white" stroke-opacity="0.2" style="stroke:white;stroke-opacity:0.2;" stroke-width="0.75"/>
<mask id="mask0_1060_2959" style="mask-type:luminance" maskUnits="userSpaceOnUse" x="13" y="13" width="20" height="19">
<path d="M32.0341 13.125H13.625V31.5341H32.0341V13.125Z" fill="white" style="fill:white;fill-opacity:1;"/>
</mask>
<g mask="url(#mask0_1060_2959)">
<path d="M29.3079 15.8554C27.5812 14.1279 25.2851 13.1757 22.8389 13.1748C17.7982 13.1748 13.6958 17.2754 13.6939 22.3161C13.693 23.9274 14.1141 25.5003 14.9143 26.8864L13.6738 31.4849L18.4646 30.3525C19.8004 31.0812 21.3036 31.4648 22.8343 31.4657H22.838C27.8779 31.4657 31.9802 27.3642 31.983 22.3244C31.9848 19.8809 31.0345 17.5839 29.3079 15.8554ZM27.313 25.5836C27.1226 26.1173 26.1897 26.6318 25.7704 26.6694C25.3511 26.7078 24.9583 26.8589 23.0284 26.0981C20.7058 25.1826 19.2391 22.8014 19.1256 22.6493C19.0112 22.4965 18.1927 21.4107 18.1927 20.2865C18.1927 19.1622 18.7832 18.6092 18.9929 18.3813C19.2025 18.1524 19.4498 18.0956 19.6026 18.0956C19.7546 18.0956 19.9075 18.0956 20.0402 18.1012C20.2031 18.1076 20.3836 18.1158 20.5548 18.4957C20.758 18.948 21.202 20.0778 21.2588 20.1922C21.3155 20.3066 21.3539 20.4403 21.278 20.5922C21.202 20.7442 21.1636 20.8394 21.05 20.9731C20.9356 21.1067 20.8102 21.2707 20.7076 21.3731C20.5932 21.4867 20.4741 21.6112 20.6069 21.8392C20.7406 22.068 21.1983 22.816 21.8776 23.4212C22.751 24.1993 23.4862 24.4401 23.7151 24.5555C23.944 24.6699 24.0767 24.6506 24.2103 24.4978C24.344 24.3458 24.7816 23.8313 24.9336 23.6024C25.0855 23.3735 25.2385 23.412 25.4481 23.488C25.6578 23.564 26.7811 24.1169 27.0091 24.2314C27.238 24.3458 27.3899 24.4026 27.4467 24.4978C27.5034 24.5921 27.5034 25.0498 27.313 25.5836Z" fill="white" style="fill:white;fill-opacity:1;"/>
</g>
</svg>
