<svg width="41" height="40" viewBox="0 0 41 40" fill="none" xmlns="http://www.w3.org/2000/svg">
<g clip-path="url(#clip0_599_7231)">
<path d="M18.66 37.5105C17.412 37.5105 16.164 37.3545 14.9159 36.9645L6.7257 34.3904C6.41369 34.3124 6.17969 34.0004 6.17969 33.6104V21.9101C6.17969 21.598 6.41369 21.286 6.7257 21.208C9.84579 20.116 14.0579 21.052 16.008 24.2501H24.4322C25.9142 24.2501 27.1623 25.1861 27.7083 26.4342L36.9905 24.0941C37.8486 23.8601 38.7066 24.0941 39.4086 24.5621C40.1106 25.0301 40.5006 25.8882 40.5006 26.7462C40.5006 27.8382 39.8766 28.8522 38.8626 29.3203L23.8862 36.3405C22.1701 37.1205 20.4541 37.5105 18.66 37.5105ZM7.73973 33.0644L15.3839 35.4824C17.958 36.2625 20.7661 36.1064 23.1842 34.9364L38.2386 27.9942C38.7066 27.7602 38.9406 27.3702 38.9406 26.9022C38.9406 26.5122 38.7846 26.1222 38.4726 25.8882C38.1606 25.6542 37.7706 25.5762 37.3806 25.6542L28.0203 27.9942C27.9423 29.0083 27.1623 29.7103 26.2262 29.7103H15.5399C15.0719 29.7103 14.7599 29.3983 14.7599 28.9302C14.7599 28.4622 15.0719 28.1502 15.5399 28.1502H26.2262C26.3823 28.1502 26.4603 27.9942 26.4603 27.9162C26.4603 26.7462 25.5242 25.8102 24.4322 25.8102H15.5399C15.2279 25.8102 14.9939 25.6542 14.8379 25.3421C13.5119 22.6901 10.2358 21.8321 7.73973 22.4561V33.0644Z" fill="white" stroke="white" style="fill:white;fill-opacity:1;stroke:white;stroke-opacity:1;" stroke-width="0.8"/>
<path d="M31.7639 22.6121H26.6937C26.2257 22.6121 25.9137 22.3 25.9137 21.832V19.258C25.9137 18.3219 25.1337 17.5419 24.1977 17.5419C23.1836 17.5419 22.4036 18.3219 22.4036 19.258V21.832C22.4036 22.3 22.0916 22.6121 21.6236 22.6121H16.5535C16.0854 22.6121 15.7734 22.3 15.7734 21.832V9.42968C15.7734 8.96167 16.0854 8.64966 16.5535 8.64966C17.0215 8.64966 17.3335 8.96167 17.3335 9.42968V20.974H20.8436V19.18C20.8436 17.3859 22.3256 15.9039 24.1197 15.9039C25.9917 15.9039 27.4738 17.3859 27.4738 19.18V20.974H30.9839V9.42968C30.9839 8.96167 31.2959 8.64966 31.7639 8.64966C32.2319 8.64966 32.5439 8.96167 32.5439 9.42968V21.754C32.5439 22.222 32.1539 22.6121 31.7639 22.6121Z" fill="white" stroke="white" style="fill:white;fill-opacity:1;stroke:white;stroke-opacity:1;" stroke-width="0.8"/>
<path d="M34.2596 12.4718C34.1036 12.4718 33.8696 12.3938 33.7136 12.3158L24.1193 3.81355L14.525 12.2378C14.213 12.5498 13.745 12.4718 13.433 12.1598C13.121 11.8478 13.199 11.3798 13.511 11.0678L23.6513 2.1755C23.9633 1.9415 24.3533 1.9415 24.6653 2.1755L34.8056 11.0678C35.1176 11.3798 35.1956 11.8478 34.8836 12.1598C34.7276 12.3938 34.4936 12.4718 34.2596 12.4718Z" fill="white" stroke="white" style="fill:white;fill-opacity:1;stroke:white;stroke-opacity:1;" stroke-width="0.8"/>
<path d="M6.96015 37.9004H2.28002C1.81201 37.9004 1.5 37.5884 1.5 37.1204V18.3999C1.5 17.9319 1.81201 17.6199 2.28002 17.6199H6.96015C7.42816 17.6199 7.74017 17.9319 7.74017 18.3999V37.1204C7.74017 37.5884 7.42816 37.9004 6.96015 37.9004ZM3.06004 36.3404H6.18013V19.1799H3.06004V36.3404Z" fill="white" stroke="white" style="fill:white;fill-opacity:1;stroke:white;stroke-opacity:1;" stroke-width="0.8"/>
</g>
<defs>
<clipPath id="clip0_599_7231">
<rect width="40" height="40" fill="white" style="fill:white;fill-opacity:1;" transform="translate(0.5)"/>
</clipPath>
</defs>
</svg>
