<svg width="40" height="40" viewBox="0 0 40 40" fill="none" xmlns="http://www.w3.org/2000/svg">
<g clip-path="url(#clip0_840_6897)">
<path d="M38.1467 18.57C36.9967 18.0917 35.7367 18.3383 34.855 19.2167L33.1617 20.9017C32.575 18.2083 30.5367 16.0517 27.9117 15.2933C30.1717 13.8017 31.6667 11.2383 31.6667 8.33333C31.6667 3.73833 27.9283 0 23.3333 0C20.0383 0 17.185 1.92167 15.8333 4.70333C14.4817 1.92167 11.6283 0 8.33333 0C3.73833 0 0 3.73833 0 8.33333C0 11.5033 1.78 14.2667 4.39333 15.675C1.80333 16.8583 0 19.4733 0 22.5V32.5C0 36.635 3.365 40 7.5 40H25.8333C29.42 40 32.4267 37.47 33.1617 34.1L34.855 35.785C35.44 36.3667 36.1917 36.6717 36.9667 36.6717C37.36 36.6717 37.76 36.5933 38.1467 36.4317C39.29 35.9567 40 34.895 40 33.6583V21.3417C40 20.1067 39.29 19.045 38.1467 18.5683V18.57ZM23.3333 1.66667C27.01 1.66667 30 4.65667 30 8.33333C30 12.01 27.01 15 23.3333 15C19.6567 15 16.6667 12.01 16.6667 8.33333C16.6667 4.65667 19.6567 1.66667 23.3333 1.66667ZM18.3383 15H13.3267C14.385 14.205 15.2483 13.165 15.8317 11.9633C16.415 13.165 17.2783 14.205 18.3367 15H18.3383ZM1.66667 8.33333C1.66667 4.65667 4.65667 1.66667 8.33333 1.66667C12.01 1.66667 15 4.65667 15 8.33333C15 12.01 12.01 15 8.33333 15C4.65667 15 1.66667 12.01 1.66667 8.33333ZM31.6667 32.5C31.6667 35.7167 29.05 38.3333 25.8333 38.3333H7.5C4.28333 38.3333 1.66667 35.7167 1.66667 32.5V22.5C1.66667 19.2833 4.28333 16.6667 7.5 16.6667H25.8333C29.05 16.6667 31.6667 19.2833 31.6667 22.5V32.5ZM38.3333 33.6583C38.3333 34.215 38.0233 34.6767 37.5067 34.8917C36.9817 35.1067 36.43 35 36.03 34.6017L33.3333 31.92V23.08L36.03 20.3983C36.43 19.9983 36.9817 19.89 37.5067 20.1083C38.025 20.3233 38.3333 20.785 38.3333 21.3417V33.6583Z" fill="white" style="fill:white;fill-opacity:1;"/>
</g>
<defs>
<clipPath id="clip0_840_6897">
<rect width="40" height="40" fill="white" style="fill:white;fill-opacity:1;"/>
</clipPath>
</defs>
</svg>
