<svg width="62" height="62" viewBox="0 0 62 62" fill="none" xmlns="http://www.w3.org/2000/svg">
<g clip-path="url(#clip0_840_6967)">
<path fill-rule="evenodd" clip-rule="evenodd" d="M0 9.04168C0 9.97168 0.397833 10.8629 1.00492 11.4003L6.80192 17.67C7.05508 17.9464 7.40383 18.0859 7.75 18.0859C8.06258 18.0859 8.37775 17.9723 8.62575 17.7423C9.15017 17.2567 9.18375 16.4403 8.69808 15.9159L3.52883 10.3333H58.4686L53.3071 15.9159C52.824 16.4403 52.855 17.2567 53.3794 17.7423C53.6274 17.9723 53.94 18.0859 54.2552 18.0859C54.6013 18.0859 54.9475 17.9438 55.2033 17.67L60.915 11.4855C61.6073 10.8629 62.0052 9.97168 62.0052 9.04168C62.0052 8.11168 61.6073 7.22043 61.0003 6.68309L55.2033 0.415928C54.715 -0.111072 53.8987 -0.142072 53.3768 0.343595C52.8524 0.829262 52.8188 1.64559 53.3045 2.17001L58.4738 7.75259H3.53917L8.70067 2.17001C9.18375 1.64559 9.15275 0.829262 8.62833 0.343595C8.10133 -0.142072 7.285 -0.111072 6.80192 0.415928L1.09017 6.59784C0.397833 7.22043 0 8.11168 0 9.04168Z" fill="white" style="fill:white;fill-opacity:1;"/>
<path fill-rule="evenodd" clip-rule="evenodd" d="M56.8333 33.7151V29.7083C56.8333 24.7225 52.7775 20.6667 47.7917 20.6667H14.2083C9.2225 20.6667 5.16667 24.7225 5.16667 29.7083V33.7151C2.22167 34.3144 0 36.9236 0 40.0417V46.5C0 50.3182 2.10542 53.6223 5.1925 55.4099C5.18733 55.4564 5.16667 60.7083 5.16667 60.7083C5.16667 61.4213 5.74533 62 6.45833 62C7.17133 62 7.75 61.4213 7.75 60.7083V56.4665C8.58183 56.6835 9.43692 56.8333 10.3333 56.8333H51.6667C52.5631 56.8333 53.4182 56.6835 54.25 56.4665V60.7083C54.25 61.4213 54.8287 62 55.5417 62C56.2547 62 56.8333 61.4213 56.8333 60.7083C56.8333 60.7083 56.8127 55.4564 56.8075 55.4099C59.8946 53.6223 62 50.3182 62 46.5V40.0417C62 36.9236 59.7783 34.3144 56.8333 33.7151ZM47.7917 23.25H14.2083C10.6485 23.25 7.75 26.1485 7.75 29.7083V33.7151C10.695 34.3144 12.9167 36.9236 12.9167 40.0417V43.9167H49.0833V40.0417C49.0833 36.9236 51.305 34.3144 54.25 33.7151V29.7083C54.25 26.1485 51.3515 23.25 47.7917 23.25ZM51.6667 54.25C55.9395 54.25 59.4167 50.7728 59.4167 46.5V40.0417C59.4167 37.9053 57.6781 36.1667 55.5417 36.1667C53.4053 36.1667 51.6667 37.9053 51.6667 40.0417V45.2083C51.6667 45.9213 51.088 46.5 50.375 46.5H11.625C10.912 46.5 10.3333 45.9213 10.3333 45.2083V40.0417C10.3333 37.9053 8.59475 36.1667 6.45833 36.1667C4.32192 36.1667 2.58333 37.9053 2.58333 40.0417V46.5C2.58333 50.7728 6.0605 54.25 10.3333 54.25H51.6667Z" fill="#0E88EC" style="fill:#0E88EC;fill:color(display-p3 0.0553 0.5317 0.9262);fill-opacity:1;"/>
</g>
<defs>
<clipPath id="clip0_840_6967">
<rect width="62" height="62" fill="white" style="fill:white;fill-opacity:1;"/>
</clipPath>
</defs>
</svg>
