<svg width="62" height="62" viewBox="0 0 62 62" fill="none" xmlns="http://www.w3.org/2000/svg">
<g clip-path="url(#clip0_840_6965)">
<path fill-rule="evenodd" clip-rule="evenodd" d="M46.5 5.16667H50.375C56.7842 5.16667 62 10.3824 62 16.7917V50.375C62 56.7842 56.7842 62 50.375 62H11.625C5.21575 62 0 56.7842 0 50.375V16.7917C0 10.3824 5.21575 5.16667 11.625 5.16667H15.5V1.29167C15.5 0.578667 16.0787 0 16.7917 0C17.5047 0 18.0833 0.578667 18.0833 1.29167V5.16667H43.9167V1.29167C43.9167 0.578667 44.4953 0 45.2083 0C45.9213 0 46.5 0.578667 46.5 1.29167V5.16667ZM50.375 7.75H11.625C6.63917 7.75 2.58333 11.8058 2.58333 16.7917V20.6667H59.4167V16.7917C59.4167 11.8058 55.3608 7.75 50.375 7.75ZM11.625 59.4167H50.375C55.3608 59.4167 59.4167 55.3608 59.4167 50.375V23.25H2.58333V50.375C2.58333 55.3608 6.63917 59.4167 11.625 59.4167Z" fill="white" style="fill:white;fill-opacity:1;"/>
<path d="M48.6907 31.3642C49.1867 31.8757 49.1763 32.6921 48.6648 33.1907L31.6252 49.786C30.3748 51.0363 28.7267 51.6641 27.0733 51.6641C25.42 51.6641 23.7641 51.0337 22.5008 49.7731L13.299 40.9872C12.7849 40.4963 12.7642 39.6774 13.2577 39.1608C13.7459 38.6441 14.5648 38.6234 15.0841 39.1194L24.304 47.926C25.8049 49.4295 28.3392 49.4114 29.8065 47.9467L46.8591 31.3384C47.3654 30.845 48.1869 30.8502 48.6855 31.3642H48.6907Z" fill="#0E88EC" style="fill:#0E88EC;fill:color(display-p3 0.0553 0.5317 0.9262);fill-opacity:1;"/>
</g>
<defs>
<clipPath id="clip0_840_6965">
<rect width="62" height="62" fill="white" style="fill:white;fill-opacity:1;"/>
</clipPath>
</defs>
</svg>
