<svg width="62" height="62" viewBox="0 0 62 62" fill="none" xmlns="http://www.w3.org/2000/svg">
<g clip-path="url(#clip0_840_6952)">
<path fill-rule="evenodd" clip-rule="evenodd" d="M28.4167 60.7083C28.4167 61.4213 27.838 62 27.125 62H11.625C5.21575 62 0 56.7842 0 50.375V11.625C0 5.21575 5.21575 0 11.625 0H34.875C41.2842 0 46.5 5.21575 46.5 11.625V21.9583C46.5 22.6713 45.9213 23.25 45.2083 23.25C44.4953 23.25 43.9167 22.6713 43.9167 21.9583V11.625C43.9167 6.63917 39.8608 2.58333 34.875 2.58333H11.625C6.63917 2.58333 2.58333 6.63917 2.58333 11.625V50.375C2.58333 55.3608 6.63917 59.4167 11.625 59.4167H27.125C27.838 59.4167 28.4167 59.9953 28.4167 60.7083ZM36.1667 14.2083C36.1667 13.4953 35.588 12.9167 34.875 12.9167H11.625C10.912 12.9167 10.3333 13.4953 10.3333 14.2083C10.3333 14.9213 10.912 15.5 11.625 15.5H34.875C35.588 15.5 36.1667 14.9213 36.1667 14.2083ZM31 27.125C31 26.412 30.4213 25.8333 29.7083 25.8333H11.625C10.912 25.8333 10.3333 26.412 10.3333 27.125C10.3333 27.838 10.912 28.4167 11.625 28.4167H29.7083C30.4213 28.4167 31 27.838 31 27.125ZM11.625 38.75C10.912 38.75 10.3333 39.3287 10.3333 40.0417C10.3333 40.7547 10.912 41.3333 11.625 41.3333H21.9583C22.6713 41.3333 23.25 40.7547 23.25 40.0417C23.25 39.3287 22.6713 38.75 21.9583 38.75H11.625Z" fill="white" style="fill:white;fill-opacity:1;"/>
<path fill-rule="evenodd" clip-rule="evenodd" d="M62 45.2083C62 54.467 54.467 62 45.2083 62C35.9497 62 28.4167 54.467 28.4167 45.2083C28.4167 35.9497 35.9497 28.4167 45.2083 28.4167C54.467 28.4167 62 35.9497 62 45.2083ZM45.2083 31C53.041 31 59.4167 37.3757 59.4167 45.2083C59.4167 53.041 53.041 59.4167 45.2083 59.4167C37.3757 59.4167 31 53.041 31 45.2083C31 37.3757 37.3757 31 45.2083 31Z" fill="#0E88EC" style="fill:#0E88EC;fill:color(display-p3 0.0553 0.5317 0.9262);fill-opacity:1;"/>
<path d="M50.7702 42.935L45.0404 48.4349C44.1724 49.2926 42.7516 49.2926 41.8784 48.4401L38.9567 45.5777C38.4503 45.0843 37.6314 45.0869 37.1302 45.5984C36.6317 46.1073 36.642 46.9262 37.1509 47.4248L40.0727 50.2872C41.0078 51.2017 42.2375 51.6589 43.462 51.6589C44.6865 51.6589 45.9162 51.1991 46.8462 50.2846L52.5631 44.7976C53.0772 44.3067 53.0927 43.4853 52.5992 42.9712C52.1084 42.4597 51.2869 42.4416 50.7702 42.935Z" fill="#0E88EC" style="fill:#0E88EC;fill:color(display-p3 0.0553 0.5317 0.9262);fill-opacity:1;"/>
</g>
<defs>
<clipPath id="clip0_840_6952">
<rect width="62" height="62" fill="white" style="fill:white;fill-opacity:1;"/>
</clipPath>
</defs>
</svg>
