<svg width="62" height="62" viewBox="0 0 62 62" fill="none" xmlns="http://www.w3.org/2000/svg">
<g clip-path="url(#clip0_840_6959)">
<path fill-rule="evenodd" clip-rule="evenodd" d="M7.70181 18.0833H5.09006C4.37706 18.0833 3.79839 17.5047 3.79839 16.7917C3.79839 16.0787 4.37706 15.5 5.09006 15.5H7.69406V14.2342C7.68631 10.4315 9.16139 6.85875 11.8481 4.1695C14.5321 1.48025 18.1023 0 21.9024 0H24.4857C32.3055 0 38.6811 6.36275 38.6966 14.1825V15.5H41.2541C41.9671 15.5 42.5458 16.0787 42.5458 16.7917C42.5458 17.5047 41.9671 18.0833 41.2541 18.0833H38.7018L38.707 20.6641C38.707 29.2149 31.7552 36.1667 23.207 36.1667C14.6587 36.1667 7.70697 29.2149 7.70697 20.6667L7.70181 18.0833ZM23.207 33.5833C30.3292 33.5833 36.1236 27.7889 36.1236 20.6667L36.1185 18.0833H10.2851L10.2903 20.6641C10.2903 27.7889 16.0847 33.5833 23.207 33.5833ZM13.6771 5.99333C11.4786 8.19433 10.2722 11.1212 10.2774 14.229L10.28 15.5H36.1107V14.1877C36.103 9.14758 32.8454 4.89025 28.3401 3.29117V10.3333C28.3401 11.0463 27.7614 11.625 27.0484 11.625C26.3354 11.625 25.7567 11.0463 25.7567 10.3333V2.7125C25.6274 2.6983 25.499 2.68073 25.3706 2.66317C25.0787 2.62322 24.7872 2.58333 24.4857 2.58333H21.9024C21.5821 2.58333 21.2686 2.62494 20.9549 2.66655C20.8335 2.68267 20.712 2.6988 20.5901 2.7125V10.3333C20.5901 11.0463 20.0114 11.625 19.2984 11.625C18.5854 11.625 18.0067 11.0463 18.0067 10.3333V3.29375C16.4025 3.86467 14.9171 4.75075 13.6771 5.99333ZM23.207 41.3333C26.1881 41.3333 29.0634 41.9533 31.7526 43.1778C32.4036 43.4697 33.1683 43.1907 33.4628 42.5397C33.7573 41.8913 33.4706 41.1241 32.8221 40.8296C29.7945 39.4527 26.5601 38.7526 23.207 38.7526C10.9051 38.7526 0.708724 48.3652 -0.00169287 60.636C-0.0430262 61.349 0.499474 61.9587 1.21247 62H1.28739C1.96681 62 2.53772 61.4704 2.57647 60.7832C3.20939 49.8764 12.2717 41.3333 23.207 41.3333Z" fill="white" style="fill:white;fill-opacity:1;"/>
<path fill-rule="evenodd" clip-rule="evenodd" d="M58.1207 36.1667H47.7874C45.651 36.1667 43.9124 37.9052 43.9124 40.0417V43.9167H40.0374C37.901 43.9167 36.1624 45.6552 36.1624 47.7917V51.6667H32.2874C30.151 51.6667 28.4124 53.4052 28.4124 55.5417V58.125C28.4124 60.2614 30.151 62 32.2874 62H58.1207C60.2571 62 61.9957 60.2614 61.9957 58.125V40.0417C61.9957 37.9052 60.2571 36.1667 58.1207 36.1667ZM59.4124 51.6667V46.5H54.2457V51.6667H59.4124ZM47.7874 38.75C47.077 38.75 46.4957 39.3312 46.4957 40.0417V43.9167H59.4124V40.0417C59.4124 39.3312 58.8311 38.75 58.1207 38.75H47.7874ZM40.0374 46.5C39.327 46.5 38.7457 47.0812 38.7457 47.7917V51.6667H51.6624V46.5H40.0374ZM30.9957 55.5417V58.125C30.9957 58.8354 31.5744 59.4167 32.2874 59.4167H43.9124V54.25H32.2874C31.5744 54.25 30.9957 54.8312 30.9957 55.5417ZM58.1207 59.4167C58.8311 59.4167 59.4124 58.8354 59.4124 58.125V54.25H46.4957V59.4167H58.1207Z" fill="#0E88EC" style="fill:#0E88EC;fill:color(display-p3 0.0553 0.5317 0.9262);fill-opacity:1;"/>
</g>
<defs>
<clipPath id="clip0_840_6959">
<rect width="62" height="62" fill="white" style="fill:white;fill-opacity:1;"/>
</clipPath>
</defs>
</svg>
