<svg width="62" height="62" viewBox="0 0 62 62" fill="none" xmlns="http://www.w3.org/2000/svg">
<g clip-path="url(#clip0_840_6759)">
<path fill-rule="evenodd" clip-rule="evenodd" d="M38.7461 15.5C38.7461 24.0478 31.795 30.9993 23.2474 31C14.6997 30.9993 7.74868 24.0478 7.74868 15.5C7.74868 6.95175 14.7004 0 23.2487 0C31.7969 0 38.7461 6.95175 38.7461 15.5ZM23.2474 31H23.2461H23.2487H23.2474ZM36.1628 15.5C36.1628 8.37818 30.369 2.58403 23.2474 2.58333C16.1257 2.58403 10.3294 8.37818 10.3294 15.5C10.3294 22.6222 16.1238 28.4167 23.2461 28.4167C30.3683 28.4167 36.1628 22.6222 36.1628 15.5ZM24.5378 38.75C25.2508 38.75 25.8294 38.1713 25.8294 37.4583C25.8294 36.7453 25.2508 36.1667 24.5378 36.1667C11.2362 36.1667 -0.00390625 47.1097 -0.00390625 60.0625V60.7083C-0.00390625 61.4213 0.57476 62 1.28776 62C2.00076 62 2.57943 61.4213 2.57943 60.7083V60.0625C2.57943 48.5098 12.6363 38.75 24.5378 38.75Z" fill="white" style="fill:white;fill-opacity:1;"/>
<path fill-rule="evenodd" clip-rule="evenodd" d="M58.7308 40.021C58.1237 38.4942 56.7338 37.4377 55.1012 37.2594L46.4987 36.3036V32.2917C46.4987 31.5787 45.92 31 45.207 31C44.494 31 43.9153 31.5787 43.9153 32.2917V36.0142L35.7236 35.1023C33.9385 34.906 32.2903 35.9264 31.6652 37.5927C31.6652 37.5927 28.4153 46.345 28.4153 46.4974C28.4153 49.3468 30.7326 51.6641 33.582 51.6641C36.4314 51.6641 38.7487 49.3468 38.7487 46.4974C38.7487 46.3424 35.5298 37.6805 35.5298 37.6805L43.9153 38.6131V59.4141H37.457C36.744 59.4141 36.1653 59.9927 36.1653 60.7057C36.1653 61.4188 36.744 61.9974 37.457 61.9974H52.957C53.67 61.9974 54.2487 61.4188 54.2487 60.7057C54.2487 59.9927 53.67 59.4141 52.957 59.4141H46.4987V38.8998L54.8196 39.8247C54.8919 39.8324 54.9643 39.8453 55.034 39.8608C55.034 39.8608 51.6653 48.9283 51.6653 49.0807C51.6653 51.9302 53.9826 54.2474 56.832 54.2474C59.6814 54.2474 61.9987 51.9302 61.9987 49.0807C61.9987 48.7243 61.9987 48.2412 58.7308 40.021ZM31.0839 46.5H36.0749L33.5794 39.8453L31.0839 46.5ZM59.4128 49.0833C59.3947 49.0782 59.1467 48.1197 56.8656 42.3331L54.3339 49.0833H59.4128Z" fill="#0E88EC" style="fill:#0E88EC;fill:color(display-p3 0.0553 0.5317 0.9262);fill-opacity:1;"/>
</g>
<defs>
<clipPath id="clip0_840_6759">
<rect width="62" height="62" fill="white" style="fill:white;fill-opacity:1;"/>
</clipPath>
</defs>
</svg>
