<svg width="40" height="40" viewBox="0 0 40 40" fill="none" xmlns="http://www.w3.org/2000/svg">
<path d="M35.68 36.6665C33.6133 36.6665 31.6233 35.6765 30.4533 34.1765C29.2816 35.6765 27.2916 36.6665 25.2266 36.6665C23.1616 36.6665 21.1699 35.6765 19.9983 34.1765C18.8283 35.6765 16.8383 36.6665 14.7716 36.6665C12.7049 36.6665 10.7149 35.6765 9.54495 34.1765C8.37328 35.6765 6.38328 36.6665 4.31828 36.6665C2.82995 36.6665 1.39995 36.1415 0.289946 35.1882C-0.0583871 34.8882 -0.0983871 34.3615 0.199946 34.0132C0.501613 33.6648 1.02828 33.6265 1.37495 33.9232C2.18328 34.6182 3.22828 34.9998 4.31828 34.9998C6.26495 34.9998 8.17661 33.8015 8.76328 32.2115C9.00661 31.5565 10.0849 31.5565 10.3266 32.2115C10.9133 33.8015 12.8249 34.9998 14.7716 34.9998C16.7183 34.9998 18.6299 33.8015 19.2166 32.2115C19.4599 31.5565 20.5383 31.5565 20.7799 32.2115C21.3666 33.8015 23.2783 34.9998 25.2249 34.9998C27.1716 34.9998 29.0833 33.8015 29.6699 32.2115C29.7916 31.8848 30.1033 31.6665 30.4516 31.6665C30.7999 31.6665 31.1116 31.8832 31.2333 32.2115C31.8199 33.8015 33.7316 34.9998 35.6783 34.9998C36.7683 34.9998 37.8133 34.6182 38.6199 33.9232C38.9699 33.6232 39.4966 33.6632 39.7949 34.0115C40.0949 34.3598 40.055 34.8865 39.7066 35.1865C38.5966 36.1415 37.1683 36.6665 35.68 36.6665ZM39.7083 25.1865C40.0566 24.8865 40.0966 24.3598 39.7966 24.0115C39.4983 23.6648 38.9716 23.6232 38.6216 23.9232C37.8149 24.6165 36.77 24.9998 35.68 24.9998C33.7333 24.9998 31.8216 23.8015 31.2349 22.2115C31.1133 21.8848 30.8016 21.6665 30.4533 21.6665C30.1049 21.6665 29.7933 21.8832 29.6716 22.2115C29.0849 23.8015 27.1733 24.9998 25.2266 24.9998C23.2799 24.9998 21.3683 23.8015 20.7816 22.2115C20.5383 21.5565 19.4599 21.5565 19.2183 22.2115C18.6316 23.8015 16.7199 24.9998 14.7733 24.9998C12.8266 24.9998 10.9149 23.8015 10.3283 22.2115C10.0849 21.5565 9.00661 21.5565 8.76495 22.2115C8.17828 23.8015 6.26661 24.9998 4.31995 24.9998C3.22995 24.9998 2.18495 24.6182 1.37661 23.9232C1.02995 23.6248 0.50328 23.6632 0.201613 24.0132C-0.0983871 24.3615 -0.058387 24.8882 0.291613 25.1882C1.40161 26.1415 2.83161 26.6665 4.31995 26.6665C6.38495 26.6665 8.37661 25.6765 9.54661 24.1765C10.7183 25.6765 12.7083 26.6665 14.7733 26.6665C16.8383 26.6665 18.8299 25.6765 19.9999 24.1765C21.1716 25.6765 23.1616 26.6665 25.2283 26.6665C27.2949 26.6665 29.2849 25.6765 30.4549 24.1765C31.6249 25.6765 33.6149 26.6665 35.6816 26.6665C37.1699 26.6665 38.5983 26.1415 39.7083 25.1865ZM39.7083 15.1865C40.0566 14.8865 40.0966 14.3598 39.7966 14.0115C39.4983 13.6648 38.9716 13.6232 38.6216 13.9232C37.8149 14.6165 36.77 14.9998 35.68 14.9998C33.7333 14.9998 31.8216 13.8015 31.2349 12.2115C31.1133 11.8848 30.8016 11.6665 30.4533 11.6665C30.1049 11.6665 29.7933 11.8832 29.6716 12.2115C29.0849 13.8015 27.1733 14.9998 25.2266 14.9998C23.2799 14.9998 21.3683 13.8015 20.7816 12.2115C20.5383 11.5565 19.4599 11.5565 19.2183 12.2115C18.6316 13.8015 16.7199 14.9998 14.7733 14.9998C12.8266 14.9998 10.9149 13.8015 10.3283 12.2115C10.0849 11.5565 9.00661 11.5565 8.76495 12.2115C8.17828 13.8015 6.26661 14.9998 4.31995 14.9998C3.22995 14.9998 2.18495 14.6182 1.37661 13.9232C1.02995 13.6248 0.50328 13.6632 0.201613 14.0132C-0.0983871 14.3615 -0.058387 14.8882 0.291613 15.1882C1.40161 16.1415 2.83161 16.6665 4.31995 16.6665C6.38495 16.6665 8.37661 15.6765 9.54661 14.1765C10.7183 15.6765 12.7083 16.6665 14.7733 16.6665C16.8383 16.6665 18.8299 15.6765 19.9999 14.1765C21.1716 15.6765 23.1616 16.6665 25.2283 16.6665C27.2949 16.6665 29.2849 15.6765 30.4549 14.1765C31.6249 15.6765 33.6149 16.6665 35.6816 16.6665C37.1699 16.6665 38.5983 16.1415 39.7083 15.1865ZM39.7083 5.1865C40.0566 4.8865 40.0966 4.35984 39.7966 4.0115C39.4983 3.66484 38.9716 3.62484 38.6216 3.92317C37.8149 4.6165 36.77 4.99984 35.68 4.99984C33.7333 4.99984 31.8216 3.8015 31.2349 2.2115C31.1133 1.88484 30.8016 1.6665 30.4533 1.6665C30.1049 1.6665 29.7933 1.88317 29.6716 2.2115C29.0849 3.8015 27.1733 4.99984 25.2266 4.99984C23.2799 4.99984 21.3683 3.8015 20.7816 2.2115C20.5383 1.5565 19.4599 1.5565 19.2183 2.2115C18.6316 3.8015 16.7199 4.99984 14.7733 4.99984C12.8266 4.99984 10.9149 3.8015 10.3283 2.2115C10.0849 1.5565 9.00661 1.5565 8.76495 2.2115C8.17828 3.8015 6.26661 4.99984 4.31995 4.99984C3.22995 4.99984 2.18495 4.61817 1.37661 3.92317C1.02995 3.62484 0.50328 3.66484 0.201613 4.01317C-0.0983871 4.3615 -0.058387 4.88817 0.291613 5.18817C1.40161 6.1415 2.83161 6.6665 4.31995 6.6665C6.38495 6.6665 8.37661 5.6765 9.54661 4.1765C10.7183 5.6765 12.7083 6.6665 14.7733 6.6665C16.8383 6.6665 18.8299 5.6765 19.9999 4.1765C21.1716 5.6765 23.1616 6.6665 25.2283 6.6665C27.2949 6.6665 29.2849 5.6765 30.4549 4.1765C31.6249 5.6765 33.6149 6.6665 35.6816 6.6665C37.1699 6.6665 38.5983 6.1415 39.7083 5.1865Z" fill="white" style="fill:white;fill-opacity:1;"/>
</svg>
