<svg width="375" height="172" viewBox="0 0 375 172" fill="none" xmlns="http://www.w3.org/2000/svg">
<mask id="path-1-inside-1_585_1119" fill="white">
<path fill-rule="evenodd" clip-rule="evenodd" d="M146 0H15C6.71573 0 0 6.71572 0 15V157C0 165.284 6.71574 172 15 172H360C368.284 172 375 165.284 375 157V15C375 6.71573 368.284 0 360 0H230V23C230 34.0457 221.046 43 210 43H166C154.954 43 146 34.0457 146 23V0Z"/>
</mask>
<path d="M146 0H147V-1H146V0ZM230 0V-1H229V0H230ZM15 1H146V-1H15V1ZM1 15C1 7.26801 7.26801 1 15 1V-1C6.16344 -1 -1 6.16344 -1 15H1ZM1 157V15H-1V157H1ZM15 171C7.26803 171 1 164.732 1 157H-1C-1 165.837 6.16346 173 15 173V171ZM360 171H15V173H360V171ZM374 157C374 164.732 367.732 171 360 171V173C368.837 173 376 165.837 376 157H374ZM374 15V157H376V15H374ZM360 1C367.732 1 374 7.26801 374 15H376C376 6.16344 368.837 -1 360 -1V1ZM230 1H360V-1H230V1ZM229 0V23H231V0H229ZM229 23C229 33.4934 220.493 42 210 42V44C221.598 44 231 34.598 231 23H229ZM210 42H166V44H210V42ZM166 42C155.507 42 147 33.4934 147 23H145C145 34.598 154.402 44 166 44V42ZM147 23V0H145V23H147Z" fill="white" fill-opacity="0.5" style="fill:white;fill-opacity:0.5;" mask="url(#path-1-inside-1_585_1119)"/>
</svg>
