<svg width="84" height="24" viewBox="0 0 84 24" fill="none" xmlns="http://www.w3.org/2000/svg">
<g clip-path="url(#clip0_834_6127)">
<path d="M6.75 5.25H11.82C13.3125 5.25 14.475 5.5485 15.285 6.147C16.104 6.7455 16.515 7.6035 16.515 8.727C16.515 9.369 16.3682 9.9255 16.074 10.392C15.78 10.8645 15.3465 11.238 14.7705 11.5155C15.5655 11.7795 16.1745 12.198 16.6005 12.771C17.0235 13.344 17.2335 14.04 17.2335 14.856C17.2335 15.6615 17.028 16.3545 16.6185 16.926C16.209 17.505 15.624 17.952 14.8635 18.267C14.1045 18.582 13.1985 18.7395 12.1335 18.7395H6.7485L6.75 5.25ZM0 24H24V0H0V24ZM11.565 7.5C13.0215 7.5 13.755 8.0355 13.755 9.105C13.755 9.6585 13.569 10.0905 13.1955 10.398C12.822 10.707 12.2805 10.86 11.5755 10.86H9.5055V7.5H11.565ZM11.913 12.975H9.483V16.62H11.868C12.687 16.62 13.3185 16.4655 13.758 16.158C14.199 15.849 14.4195 15.4065 14.4195 14.8275C14.4195 13.5945 13.581 12.9825 11.8995 12.9825L11.913 12.975Z" fill="black" style="fill:black;fill-opacity:1;"/>
<path d="M36.75 5.25H41.82C43.3125 5.25 44.475 5.5485 45.285 6.147C46.104 6.7455 46.515 7.6035 46.515 8.727C46.515 9.369 46.3682 9.9255 46.074 10.392C45.78 10.8645 45.345 11.238 44.7705 11.5155C45.5655 11.7795 46.1745 12.198 46.6005 12.771C47.0235 13.344 47.2335 14.04 47.2335 14.856C47.2335 15.6615 47.028 16.3545 46.6185 16.926C46.209 17.505 45.624 17.952 44.8635 18.267C44.1045 18.582 43.1985 18.7395 42.1335 18.7395H36.7485L36.75 5.25ZM30 24H54V0H30V24ZM41.565 7.5C43.0215 7.5 43.755 8.0355 43.755 9.105C43.755 9.6585 43.569 10.0905 43.1955 10.398C42.822 10.707 42.2805 10.86 41.5755 10.86H39.5055V7.5H41.565ZM41.913 12.975H39.483V16.62H41.868C42.687 16.62 43.3185 16.4655 43.758 16.158C44.199 15.849 44.4195 15.4065 44.4195 14.8275C44.4195 13.5945 43.581 12.9825 41.8995 12.9825L41.913 12.975Z" fill="black" style="fill:black;fill-opacity:1;"/>
<path d="M75.302 18.6002C76.0385 18.4217 76.6865 18.1772 77.252 17.8697V15.3047C76.0715 16.0322 74.777 16.3967 73.382 16.3967C72.467 16.3967 71.687 16.2242 71.042 15.8792C70.4 15.5342 69.911 15.0317 69.575 14.3642C69.2375 13.7042 69.0695 12.9047 69.0695 11.9642C69.0695 11.0267 69.2435 10.2242 69.593 9.57922C69.9425 8.92521 70.4435 8.42572 71.093 8.08072C71.747 7.73571 72.5375 7.56321 73.463 7.56321C74.1365 7.56321 74.7785 7.65292 75.383 7.83172C75.992 8.01021 76.5575 8.27272 77.078 8.61772V5.99272C76.5065 5.69722 75.887 5.47222 75.218 5.31772C74.5505 5.16322 73.8425 5.08672 73.088 5.08672C72.008 5.08672 71.033 5.24721 70.163 5.56821C69.293 5.88921 68.543 6.35121 67.928 6.95572C67.3055 7.56021 66.8285 8.28471 66.4985 9.13072C66.1685 9.97521 66.0035 10.9157 66.0035 11.9657C66.0035 13.0397 66.1625 14.0057 66.4805 14.8607C66.7985 15.7187 67.2545 16.4357 67.853 17.0357C68.45 17.6282 69.1805 18.0812 70.043 18.3962C70.907 18.7112 71.873 18.8687 72.953 18.8687C73.766 18.8687 74.543 18.779 75.278 18.6002H75.302ZM84.002 23.9702H60.002V-0.0297852H84.002V23.9702Z" fill="black" style="fill:black;fill-opacity:1;"/>
</g>
<defs>
<clipPath id="clip0_834_6127">
<rect width="84" height="24" fill="white" style="fill:white;fill-opacity:1;"/>
</clipPath>
</defs>
</svg>
