<svg width="120" height="20" viewBox="0 0 120 20" fill="none" xmlns="http://www.w3.org/2000/svg">
<path fill-rule="evenodd" clip-rule="evenodd" d="M60.8319 10.8651L61.0989 11.0651C61.0654 10.7654 61.116 10.2635 61.116 10.2635C60.9145 10.3967 60.8654 10.6473 60.8654 10.6473L60.5813 10.6807L60.8319 10.8651ZM71.7752 13.0357C71.7417 12.9688 71.6912 12.9196 71.6072 12.9196C71.5246 12.9196 71.4406 13.0022 71.4406 13.1197C71.4406 13.2371 71.5246 13.3197 71.6072 13.3197C71.7069 13.3197 71.7916 13.2371 71.7916 13.1197C71.7909 13.0869 71.7752 13.0692 71.7752 13.0357ZM71.7683 12.2518C71.7724 12.2662 71.7752 12.2839 71.7752 12.301C71.7744 12.3424 71.7612 12.3826 71.7372 12.4164C71.7132 12.4501 71.6795 12.4758 71.6407 12.4901V12.7366C71.6868 12.7412 71.7315 12.7552 71.7719 12.7779C71.8124 12.8006 71.8476 12.8314 71.8755 12.8684C71.9295 12.9408 71.9585 13.0287 71.9582 13.119C71.9582 13.2993 71.8558 13.4447 71.7062 13.4898C72.1186 13.4577 72.3767 13.4201 72.3767 13.4201C71.9752 13.3361 72.2088 13.1026 72.2088 13.1026C72.3931 12.9517 72.7434 12.8343 72.7434 12.8343C72.3262 12.7837 72.0927 12.4505 71.9909 12.2505H71.7683V12.2518ZM71.5581 13.5C71.3983 13.4734 71.274 13.317 71.274 13.1197C71.274 12.9305 71.3887 12.7783 71.541 12.7435V12.4983C71.4952 12.4913 71.4528 12.4699 71.42 12.4373C71.3871 12.4046 71.3654 12.3624 71.358 12.3167L71.3566 12.3181C71.19 12.3672 71.0391 12.3672 71.0391 12.3672C71.0057 12.4512 71.0726 12.4847 71.0726 12.4847C71.4235 12.7353 71.19 12.9688 71.19 12.9688C71.0234 13.1197 70.9394 13.1197 70.9394 13.1197C70.7728 13.1702 70.3713 13.5212 70.3713 13.5212C70.8179 13.5348 71.2269 13.5212 71.5581 13.5ZM66.9799 11.9507C67.0099 11.9508 67.0393 11.9415 67.0639 11.9241L67.3971 12.0682C67.3971 12.1679 67.464 12.2525 67.548 12.2525C67.5998 12.2525 67.6456 12.2191 67.6722 12.1713L67.9549 12.2129C67.9733 12.2969 68.0307 12.3529 68.099 12.3529C68.1761 12.3529 68.254 12.2819 68.2642 12.1795L68.5005 12.0675C68.5285 12.1091 68.5701 12.1358 68.6179 12.1358C68.7005 12.1358 68.7845 12.0518 68.7845 11.9514L68.9354 11.7022C69.2193 11.7242 69.5047 11.7185 69.7875 11.6851C70.2382 11.4502 70.6062 11.3171 70.6062 11.3171C70.4717 11.4168 70.3379 11.5014 70.2539 11.6011C70.1699 11.6846 70.0919 11.7738 70.0204 11.8681C69.96 11.9118 69.9115 11.97 69.8793 12.0372C69.8471 12.1045 69.8322 12.1787 69.836 12.2532C69.8489 12.3485 69.883 12.4397 69.9357 12.5202C70.0197 12.6199 70.1371 12.6711 70.1371 12.6711L70.3215 12.8377C70.1706 12.9551 69.836 13.0377 69.836 13.0377C69.6517 13.106 69.4024 12.9886 69.4024 12.9886C68.8173 12.8554 68.6172 13.1217 68.6172 13.1217C68.4998 13.2549 68.2827 13.2726 68.2827 13.2726L68.3823 13.4235C68.1652 13.4904 68.0491 13.4065 68.0491 13.4065C68.0321 13.1224 68.1823 12.8384 68.1823 12.8384C68.1154 12.3877 67.1792 12.4703 67.1792 12.4703L66.9464 12.2518L66.8959 12.2013L66.3612 11.7001C66.3612 11.851 66.2943 12.0682 66.2117 12.2525C66.1448 12.4021 66.0608 12.5366 66.0608 12.5366L65.8608 12.4355C65.8988 12.3798 65.9268 12.3179 65.9434 12.2525C66.11 11.851 66.2274 11.2829 66.2274 11.2829C66.3271 11.2829 66.4118 11.3 66.478 11.3164C66.5285 11.3499 66.562 11.3669 66.562 11.3669C66.6009 11.3854 66.6432 11.4031 66.689 11.4215L66.8734 11.6831C66.8559 11.7139 66.8467 11.7487 66.8467 11.7841C66.846 11.8838 66.8959 11.9507 66.9799 11.9507ZM68.8453 11.6906L68.7476 11.8292C68.7342 11.8062 68.7152 11.787 68.6924 11.7733C68.6696 11.7596 68.6438 11.7518 68.6172 11.7507C68.5332 11.7507 68.4663 11.8333 68.4663 11.9507C68.4663 11.9664 68.4677 11.9828 68.4718 11.9972L68.2588 12.0968C68.2362 12.0183 68.1679 11.95 68.099 11.95C68.0164 11.95 67.9494 12.0497 67.9494 12.1501L67.6948 12.1064C67.6975 12.0936 67.6988 12.0806 67.6989 12.0675C67.6989 11.9678 67.6306 11.8661 67.548 11.8661C67.4851 11.8661 67.4333 11.922 67.4107 11.9917L67.1157 11.8585C67.1257 11.835 67.1306 11.8097 67.1301 11.7841C67.1301 11.7001 67.0632 11.6175 66.9792 11.6175C66.9659 11.617 66.9526 11.6193 66.9403 11.6243L66.8617 11.483H66.8604C67.2858 11.6216 67.8136 11.7179 67.8136 11.7179H68.1816L68.299 11.5335C68.4506 11.6182 68.6466 11.6667 68.8453 11.6906ZM66.8652 8.83783C66.8788 8.8549 66.8918 8.8706 66.9054 8.88494L66.8843 8.9225C66.8731 8.91509 66.8601 8.91085 66.8467 8.91021C66.7798 8.91021 66.7293 8.97712 66.7293 9.04404L66.7136 9.02765L66.5791 8.87675L66.5299 8.82691L66.2288 8.5094C65.8778 8.04168 65.3432 8.5094 65.3432 8.5094L65.2606 8.44249C65.5433 8.2752 65.294 8.05807 65.294 8.05807L65.8451 6.63784L65.6942 6.45417C65.9625 5.90247 65.3944 5.88608 65.3944 5.88608C65.2264 5.3849 64.926 5.61911 64.926 5.61911C64.8263 5.13432 64.4576 5.3849 64.4576 5.3849C64.3244 5.05101 64.007 5.25108 64.007 5.25108L64.0227 4.46585L63.656 4.48224L63.2545 4.46585L63.288 5.26746C62.8878 5.0674 62.8196 5.46821 62.8196 5.46821C62.3525 5.20055 62.3525 5.71879 62.3525 5.71879C61.9674 5.60135 61.9845 5.96938 61.9845 5.96938C61.4669 6.01923 61.5338 6.47056 61.5338 6.47056L61.934 7.84026C61.8343 8.09085 60.6483 9.54453 60.6483 9.54453L60.1464 9.39431L60.1129 9.31101C60.2297 9.37793 60.3137 9.34447 60.3137 9.34447C60.2638 9.17718 60.3301 8.8433 60.3301 8.8433C60.481 8.1919 60.2133 7.9577 60.2133 7.9577C60.2297 7.69004 60.046 7.37322 60.046 7.37322C60.2966 7.05572 59.9293 6.73822 59.9293 6.73822L59.8787 6.65423L59.8623 5.96938C59.7954 5.96938 59.762 5.8854 59.762 5.8854C59.6616 5.60135 59.4779 5.78571 59.4779 5.78571C59.3441 5.48527 59.127 5.71879 59.127 5.71879C58.9426 5.4682 58.7589 5.71879 58.7589 5.71879L58.6087 5.234L58.1075 5.43406L58.2748 5.9687C57.9068 5.88471 58.0242 6.25274 58.0242 6.25274C57.7067 6.26913 57.857 6.55318 57.857 6.55318C57.5565 6.58663 57.6733 6.92121 57.6733 6.92121L58.0072 7.47223C57.7395 7.77266 57.9908 7.9734 57.9908 7.9734C58.0748 8.1243 58.1751 8.1243 58.1751 8.1243C58.0242 8.57564 58.225 9.04335 58.225 9.04335C58.0079 9.29394 57.6904 9.494 57.4063 9.64422C56.9891 9.84496 56.6211 9.94534 56.6211 9.94534C55.969 10.0962 54.6833 10.5134 54.6833 10.5134C54.232 10.6295 53.5137 10.8466 53.5137 10.8466C52.6117 11.115 52.3775 10.8309 52.3775 10.8309C52.1603 10.6964 52.3276 10.3455 52.3276 10.3455C52.5448 9.91119 52.9961 9.81082 52.9961 9.81082C53.3136 10.0123 53.4304 10.1283 53.4304 10.1283C53.6304 10.3298 53.9821 10.3127 53.9821 10.3127L53.9984 10.2458C54.1487 10.2628 54.249 10.2123 54.249 10.2123C54.1487 10.1126 54.1487 9.99518 54.1487 9.99518C54.1487 9.91188 54.0319 9.77873 54.0319 9.77873L56.3541 9.67836C56.4381 9.66266 56.5043 9.66265 56.5712 9.6449C57.3729 9.49468 57.5572 9.31101 57.5572 9.31101C58.1082 8.87607 57.8747 8.15776 57.8747 8.15776C57.5736 7.45652 56.9891 7.42238 56.9891 7.42238C56.5378 7.30562 56.2039 7.37254 56.2039 7.37254C55.9533 7.38961 55.4357 7.25578 55.4357 7.25578C55.4187 7.35547 55.6358 7.67297 55.6358 7.67297C55.5609 7.67971 55.4854 7.67141 55.4138 7.64854C55.3421 7.62568 55.2758 7.58871 55.2186 7.53982C54.951 7.28924 54.5167 7.406 54.5167 7.406C54.5836 7.53982 54.9851 7.8744 54.9851 7.8744C54.7509 7.89078 54.1166 7.62381 54.1166 7.62381C54.2333 8.17551 54.8683 8.55925 54.8683 8.55925C55.6201 8.87675 56.2715 8.54286 56.2715 8.54286C56.589 8.3428 56.9065 8.22536 56.9065 8.22536C56.9543 8.2035 57.0064 8.1923 57.059 8.19253C57.1116 8.19276 57.1635 8.20442 57.2112 8.22669C57.2588 8.24896 57.3011 8.28132 57.335 8.32153C57.3689 8.36173 57.3937 8.40883 57.4077 8.45956C57.3742 9.02765 56.9563 9.04404 56.9563 9.04404C55.7532 9.29463 54.1493 9.12734 54.1493 9.12734C54.2661 8.97712 54.2832 8.5927 54.2832 8.5927L54.1493 8.62616C53.4481 8.55925 53.2638 8.71015 53.2638 8.71015C53.0132 8.86036 52.8964 9.17787 52.8964 9.17787C52.5789 9.3117 52.3283 9.4783 52.144 9.64558C51.6762 10.0976 51.6264 10.5981 51.6264 10.5981C51.5929 11.1996 51.9268 11.2836 51.9268 11.2836C51.6264 11.8674 52.077 12.0852 52.077 12.0852C52.2778 11.9357 52.3611 11.7677 52.3611 11.7677C52.7619 11.468 53.9315 11.2167 53.9315 11.2167C53.6973 11.4011 53.5635 11.9514 53.5635 11.9514C53.3634 12.0183 53.0289 11.9009 53.0289 11.9009C52.8452 11.8852 52.8452 12.0354 52.8452 12.0354L52.7612 12.2354L52.6445 12.6035C51.9261 12.57 52.0265 12.9872 52.0265 12.9872L51.9261 14.1063C52.0934 14.5235 52.3604 14.4573 52.3604 14.4573V14.0401H52.5441C52.7612 14.4907 53.0958 14.5911 53.0958 14.5911H53.1962C53.3129 14.5577 53.3634 14.7256 53.3634 14.7256L53.4802 14.7413L53.4966 14.4573L53.6297 14.4416C53.7137 14.475 53.7636 14.6082 53.7636 14.6082H53.8633C53.8967 14.5413 53.9138 14.3576 53.9138 14.3576C54.0476 14.2736 54.0135 13.9739 54.0135 13.9739C54.2811 13.9233 54.5652 14.0244 54.5652 14.0244L54.5488 14.2736C54.7488 14.6082 55.0001 14.6587 55.0001 14.6587C55.1674 14.7079 55.4173 14.7413 55.7184 14.7584C56.2367 14.7919 56.8881 14.7741 57.4896 14.7584C58.1425 14.7255 58.7943 14.6752 59.4445 14.6075C59.5114 14.7072 59.5442 14.6915 59.5442 14.6915C59.8282 14.7912 60.1457 14.4901 60.1457 14.4901L60.046 14.6915C60.2631 14.6744 60.4974 14.5235 60.4974 14.5235C60.5553 14.603 60.6371 14.6618 60.7309 14.6915L60.7814 14.641L60.8483 14.7406C60.9815 14.6737 61.0654 14.4409 61.0654 14.4409C61.2163 14.574 61.4335 14.5406 61.4335 14.5406L61.5004 14.6403L61.5495 14.5563C61.6492 14.6246 61.8336 14.7072 61.8336 14.7072C62.035 14.4566 61.951 14.0899 61.951 14.0899L62.0016 14.1726L62.0507 13.9725C62.1504 14.0722 62.3191 14.0722 62.3191 14.0722C62.0016 14.2053 62.1846 14.4402 62.1846 14.4402C62.2238 14.5062 62.2825 14.5584 62.3525 14.5898C62.4054 14.5832 62.4589 14.5968 62.5022 14.628C62.5455 14.6591 62.5754 14.7055 62.586 14.7577C62.8366 14.8752 62.9875 14.6068 62.9875 14.6068L63.021 14.4068C62.9705 14.2893 62.9705 14.1056 62.9705 14.1056L63.021 14.3228L63.1036 14.3733L63.6717 14.8239L64.1572 14.4225C64.4241 14.6068 64.7922 14.6068 64.7922 14.6068C64.9253 14.6068 64.8256 14.4402 64.8256 14.4402C65.2606 14.7912 65.9113 14.7072 65.9113 14.7072C66.011 14.6246 65.9447 14.574 65.9447 14.574C66.0622 14.5235 66.2622 14.6915 66.2622 14.6915C66.4288 14.8076 66.6794 14.7072 66.6794 14.7072C66.6637 14.6246 66.5797 14.6075 66.5797 14.6075C66.6972 14.6075 66.6303 14.4409 66.6303 14.4409C66.7463 14.4566 66.8474 14.5904 66.8474 14.5904C66.9471 14.7249 67.1314 14.6915 67.1314 14.6915L67.1472 14.6075C67.2646 14.6915 67.5309 14.7072 67.5309 14.7072C67.5992 14.6403 67.548 14.5406 67.548 14.5406C68.7511 14.9086 70.5379 14.8403 70.5379 14.8403C72.8608 14.8246 73.1783 14.3733 73.1783 14.3733C73.2623 14.2722 73.2118 14.1562 73.2118 14.1562V14.023C73.3292 13.9547 73.5129 14.006 73.5129 14.006L73.3449 14.3569L73.2958 14.4744C73.6959 14.925 74.2974 14.4238 74.2974 14.4238V14.2729C74.4149 14.2238 74.5146 14.0899 74.5146 14.0899L74.7829 14.1569C74.8164 14.3078 74.716 14.4744 74.716 14.4744C75.1332 14.5904 75.2827 14.1569 75.2827 14.1569L75.067 13.0364C74.7324 12.6526 74.1308 12.7189 74.1308 12.7189L74.1138 12.4348C74.0803 12.3351 73.9642 12.2682 73.8632 12.2518L73.7341 12.2054L73.6126 12.2518C73.4282 12.2675 73.1606 12.2675 73.1606 12.2675V12.2518L73.194 11.8667V11.4332L73.1606 11.2823L73.5129 11.3328C73.7799 11.4489 74.3985 11.4489 74.3985 11.4489C74.5986 11.5328 74.5986 11.7329 74.5986 11.7329L74.5317 11.9678C75.0997 11.9173 75.0328 11.2823 75.0328 11.2823C75.4329 10.9477 75.3326 10.0457 75.3326 10.0457C75.2821 9.82857 75.1994 9.69475 75.1482 9.64422L75.1325 9.62851C75.1325 9.05974 74.5644 8.80915 74.5644 8.80915C74.4647 8.72517 74.3473 8.72517 74.3473 8.72517C74.2141 8.69239 74.0298 8.47458 74.0298 8.47458C73.8127 8.87539 73.9963 9.17582 73.9963 9.17582C73.6618 9.1089 71.9903 9.44348 71.9903 9.44348C71.5901 9.54385 70.9224 9.32672 70.9224 9.32672C70.5038 9.09252 70.5714 8.79208 70.5714 8.79208C70.654 8.30729 71.0555 8.37421 71.0555 8.37421H71.1729C71.5239 8.30729 71.7745 8.44112 71.7745 8.44112C72.4757 8.77501 73.728 8.44112 73.728 8.44112C74.3295 8.20692 74.4975 7.4217 74.4975 7.4217C74.096 7.78973 73.7123 7.72281 73.7123 7.72281C73.6274 7.73988 73.5438 7.76223 73.4617 7.78973C73.5286 7.50568 73.8618 7.37185 73.8618 7.37185C73.4282 7.18818 72.9605 7.50569 72.9605 7.50569C72.727 7.75628 72.2081 7.83958 72.2081 7.83958C72.5918 7.68936 72.7932 7.27148 72.7932 7.27148C72.5426 7.4217 72.092 7.38824 72.092 7.38824C71.4065 7.25441 70.6547 7.87235 70.6547 7.87235C69.9692 8.50735 70.3037 9.20927 70.3037 9.20927C70.3877 9.40933 70.5878 9.56023 70.8049 9.64354C71.1224 9.79444 71.4556 9.82789 71.4556 9.82789C72.1746 9.91119 73.6454 9.74391 73.6454 9.74391C73.7785 9.71045 73.9294 9.71045 73.9294 9.71045C73.6611 9.91119 73.6119 10.3625 73.6119 10.3625C73.8789 10.2628 74.0789 10.2628 74.0789 10.2628L74.0632 10.3298C74.3808 10.2792 74.647 10.3298 74.647 10.3298C74.815 10.3455 74.8485 10.1966 74.8485 10.1966C75.0485 10.4964 74.647 10.8316 74.647 10.8316C74.4135 11.0651 73.896 10.8808 73.896 10.8808C73.6119 10.7476 72.8759 10.6964 72.8759 10.6964C72.7427 10.5298 71.2221 10.2294 71.2221 10.2294C71.1381 10.0785 70.9886 10.1454 70.9886 10.1454L70.8541 10.1283C70.7209 9.81082 70.4205 9.99518 70.4205 9.99518C70.2034 9.96172 69.8524 9.76166 69.651 9.64422C69.5513 9.59437 69.5014 9.54453 69.5014 9.54453C70.3031 8.65894 70.2525 7.70711 70.2525 7.70711C70.1528 6.33673 69.0337 6.1196 69.0337 6.1196C68.8671 5.71879 68.3325 5.68534 68.3325 5.68534L68.299 5.76932L68.3482 5.88608C68.3325 5.97007 68.4322 6.12028 68.4322 6.12028L68.215 6.17013L66.8617 5.3849C66.5285 5.3016 66.6617 5.58496 66.6617 5.58496L66.7286 5.68534L67.8982 6.60438C67.7808 6.8379 67.3807 7.13902 67.3807 7.13902L67.2298 7.17248L67.0454 7.37254L67.0625 7.6402C66.9785 7.70711 66.7941 7.70711 66.7941 7.70711L66.7784 7.8744C66.8945 8.04168 67.2291 8.04168 67.2291 8.04168L67.4961 8.30866C67.58 8.35919 67.647 8.29227 67.647 8.29227L67.8805 8.0253L68.198 7.87508C68.282 7.92492 68.4329 7.942 68.4329 7.942C68.2157 8.02598 67.9822 8.3428 67.9822 8.3428C67.7979 8.29227 67.4967 8.35919 67.4967 8.35919L67.4633 8.54286L67.4537 8.58724L67.3807 8.54286C67.2632 8.05875 66.8952 8.35919 66.8952 8.35919C66.8358 8.42327 66.8003 8.50592 66.7948 8.59315C66.7894 8.68038 66.8142 8.76682 66.8652 8.83783ZM66.8727 9.18743C66.9129 9.16899 66.9457 9.11164 66.9457 9.04335C66.9457 9.02402 66.9415 9.00492 66.9334 8.98736L66.956 8.93137C67.0083 8.97376 67.0737 8.99669 67.141 8.99624C67.3131 8.99078 67.38 8.74224 67.38 8.74224H67.4216L67.38 8.9423C67.212 9.04267 67.0625 9.37656 67.0625 9.37656L66.8727 9.18743ZM66.9771 8.71015C66.8877 8.52443 67.0796 8.4418 67.0796 8.4418C67.3131 8.40835 67.2639 8.70878 67.2639 8.70878C67.2011 8.7873 67.1506 8.81666 67.1089 8.82008C67.0181 8.82759 66.9785 8.71151 66.9771 8.71015ZM57.857 12.2348C57.7231 12.3522 57.4889 12.5188 57.1885 12.5359L57.0547 12.7516L57.3722 12.8356L57.4391 12.8691L57.7231 12.9531C57.7231 12.9531 57.7395 12.7687 57.9573 12.8022C57.9573 12.8022 58.1075 12.4007 58.7091 12.5352C58.7091 12.5352 58.8095 12.5017 58.9426 12.5687C58.9931 12.6021 59.043 12.6356 59.0928 12.6847L59.0259 12.4676C59.0259 12.4676 59.0928 12.3679 59.2594 12.4007C59.2594 12.4007 59.1925 12.3338 59.1427 12.2341C59.072 12.1363 59.0314 12.02 59.0259 11.8995C59.0259 11.8995 59.226 11.8169 59.4267 11.8504V11.666H59.5435L59.3263 11.5328C59.3263 11.5328 58.7746 12.1501 57.7388 11.8504C57.534 11.7924 57.3375 11.7082 57.1544 11.5998C57.1544 11.5998 57.3551 12.1009 57.9901 12.0839C57.9908 12.0839 57.9409 12.1508 57.857 12.2348ZM55.1674 12.2348C55.5013 12.3345 56.0865 12.3857 56.0865 12.3857C56.0359 12.4348 55.9861 12.4854 55.9362 12.5188C55.7526 12.6697 55.6023 12.7032 55.6023 12.7032C55.502 12.8698 55.5525 13.1716 55.5525 13.1716C55.6023 13.2385 55.7526 13.2876 55.8864 13.3382C56.0537 13.4051 56.2203 13.4556 56.2203 13.4556C56.0164 13.4971 55.8062 13.4971 55.6023 13.4556C55.418 13.4385 55.3019 13.3873 55.3019 13.3873L55.3852 13.2207C55.3183 12.7858 54.6669 12.7366 54.6669 12.7366L54.7004 12.5366C54.7837 12.4355 54.8677 12.3194 54.9011 12.2354C54.9219 12.2045 54.9386 12.171 54.951 12.1358C54.9844 12.1692 55.0677 12.2027 55.1517 12.2354L55.1674 12.2348ZM67.0639 13.6215C67.0133 13.655 66.9799 13.6884 66.9799 13.7547C66.9799 13.7547 67.0133 13.8544 67.2305 13.9213C67.2305 13.9213 67.2639 13.7383 67.2134 13.5376C67.2127 13.5376 67.1301 13.571 67.0639 13.6215ZM59.4445 13.3197L59.5612 13.2863C59.5612 13.2863 59.4445 13.1866 59.4281 13.1197C59.4281 13.1197 59.4281 12.9865 59.2779 12.8691L59.2943 12.9865V13.1531L59.3441 13.2037V13.3368L59.4445 13.3197ZM59.9791 13.9056L59.9962 14.1562L60.2133 13.9213C60.1961 13.9217 60.1791 13.9174 60.1643 13.9087C60.1495 13.9 60.1373 13.8873 60.1293 13.8721C60.046 13.8052 59.9962 13.7055 59.9962 13.7055L59.9791 13.9056ZM60.7343 12.2409C60.8613 12.2266 60.9678 12.2355 61.0279 12.3078C61.0265 12.2013 61.0729 12.0948 61.232 12.0675C61.232 12.0675 60.8811 12.0006 60.5636 11.8831C60.3635 11.8162 60.1628 11.7322 60.0959 11.6325L59.9456 11.6831L59.8282 11.7322V11.7828C59.8282 11.7828 60.1457 11.8319 60.313 11.9671V11.8988C60.313 11.8995 60.6168 11.9569 60.7343 12.2409ZM61.6158 12.9025C61.6158 12.8691 61.6328 12.8356 61.6328 12.7851L61.8834 13.0534C61.8834 13.0534 61.9326 13.2201 61.8329 13.3204C61.8329 13.3204 61.7837 13.2713 61.7168 13.2378C61.6751 13.2167 61.6291 13.2053 61.5823 13.2043L61.5666 12.9872C61.5666 12.9865 61.6001 12.9531 61.6158 12.9025ZM41.3004 3.78032C41.3004 3.78032 43.7899 5.05033 44.0903 5.30092C44.4078 5.55151 44.2405 5.71879 44.2405 5.71879C44.2405 5.71879 44.1238 5.8854 43.8397 5.95231C43.555 6.00216 43.6397 6.23636 43.6397 6.23636L43.6062 12.1679C44.7758 13.3204 45.8786 12.7025 45.8786 12.7025C46.2964 12.5693 46.2466 12.2013 46.2466 12.2013C46.2466 12.2013 46.3306 6.62146 46.2964 6.4371C46.263 6.23704 46.0964 6.23704 46.0964 6.23704C46.0964 6.23704 45.0606 5.58497 44.8933 5.46889C44.7089 5.35213 44.9097 5.16845 44.9097 5.16845C44.9097 5.16845 46.6638 3.94897 46.9151 3.71477C47.1656 3.49764 47.3664 3.63079 47.3664 3.63079C47.3664 3.63079 50.2567 5.25176 50.5906 5.50234C50.9245 5.75293 50.7579 5.83623 50.7579 5.83623L49.9392 6.65491C49.7719 6.8222 49.8552 6.97241 49.8552 6.97241L49.8218 12.4526C49.6046 13.8557 47.3992 14.0572 47.3992 14.0572C44.7424 14.0906 43.5065 12.9544 43.5065 12.9544C42.4536 12.3024 41.2342 12.753 41.2342 12.753C39.6808 13.2876 39.5633 14.2907 39.5633 14.2907C39.5128 15.0097 40.3151 15.36 40.3151 15.36C41.3011 15.995 42.7377 15.5935 42.7377 15.5935C43.9572 15.1763 45.8451 14.5413 45.8451 14.5413C47.0311 14.2907 47.9666 14.4907 47.9666 14.4907C49.0358 14.7256 49.4537 15.2268 49.4537 15.2268C50.1386 15.928 50.0887 16.83 50.0887 16.83C50.1386 18.8026 47.716 19.4704 47.716 19.4704C46.6303 19.6875 46.3299 19.437 46.3299 19.437C45.5611 19.269 46.3797 19.1864 46.3797 19.1864C46.3797 19.1864 44.9759 19.269 46.4965 19.2021C48.0171 19.1529 48.1844 18.4182 48.1844 18.4182C48.7361 17.4316 47.884 17.265 47.884 17.265C46.7143 17.0984 45.445 18.0502 45.445 18.0502C42.6045 19.3195 40.4496 18.2673 40.4496 18.2673C38.2442 17.4152 38.5282 15.7778 38.5282 15.7778C38.5781 13.6564 39.915 12.8213 39.915 12.8213L39.8317 6.25479C39.7648 6.08751 39.5975 6.03766 39.5975 6.03766C39.5975 6.03766 38.6784 5.66963 38.5282 5.46957C38.3944 5.26883 38.6115 5.18553 38.6115 5.18553L40.7337 3.78169C40.9829 3.43004 41.3004 3.78032 41.3004 3.78032ZM0.132932 2.77797C-0.184571 2.56084 0.166389 2.44408 0.166389 2.44408L3.3578 0.104799H11.7945C13.6155 0.271403 13.4653 2.61068 13.4653 2.61068L13.4319 11.231C10.4746 11.7991 9.05441 14.3064 9.05441 14.3064C6.29726 13.5212 1.56955 14.2224 1.56955 14.2224C1.15167 14.2559 1.43572 13.9384 1.43572 13.9384C3.07307 11.0644 6.21396 11.1484 6.21396 11.1484C6.41675 11.1443 6.61545 11.1498 6.80868 11.1621L6.82507 2.86536L0.132932 2.77797ZM4.34308 3.24568C4.96102 2.96164 4.84426 3.37951 4.84426 3.37951V8.17415C4.79442 10.1959 3.2069 11.2993 3.2069 11.2993C2.73918 11.9343 0.95161 12.669 0.95161 12.669C0.333675 12.9025 0.701022 12.301 0.701022 12.301C1.2855 11.4332 1.2855 10.8139 1.2855 10.8139V5.05033C1.2855 4.88305 1.35241 4.81613 1.35241 4.81613L4.34308 3.24568ZM7.09136 11.186C8.55187 11.3328 9.62319 11.8504 9.62319 11.8504L9.60134 8.14342L9.57881 8.16049C9.57539 8.1564 8.40644 6.61327 7.09682 8.21717L7.09136 11.186ZM9.59861 7.76788L9.58973 6.21314C9.1425 6.6317 8.09986 7.33567 7.10024 6.0322L7.09682 7.79246C8.1975 6.6754 9.18756 7.37117 9.59861 7.76788ZM9.587 5.80756L9.57198 3.21223C9.68874 2.77797 9.08787 2.89472 9.08787 2.89472L7.10706 2.86878L7.10229 5.53102C8.22276 7.38824 9.47229 5.94753 9.587 5.80756ZM32.6452 1.74216C32.6452 1.74216 36.3207 0.556129 36.7884 0.43937C37.2725 0.322611 37.2398 0.556133 37.2398 0.556133C37.2398 0.556133 37.1401 11.0146 37.2234 11.3826C37.3067 11.7507 37.474 11.651 37.474 11.651C37.474 11.651 38.3261 12.2525 38.5098 12.3351C38.7105 12.4191 38.6102 12.6192 38.6102 12.6192L36.5385 14.2238C36.5385 14.2238 33.1634 12.7366 32.8965 12.57C32.5626 12.3351 32.7797 12.202 32.7797 12.202L33.3813 11.6004C33.3813 11.6004 33.4809 3.04631 33.3143 2.59498C33.1471 2.14365 32.6124 1.95997 32.6124 1.95997C32.495 1.77562 32.6452 1.74216 32.6452 1.74216ZM28.519 3.51335C28.6358 3.79739 28.9362 3.74754 28.9362 3.74754C30.2731 3.21291 30.8078 1.9429 30.8078 1.9429C31.1417 0.689961 30.3565 0.356073 30.3565 0.356073C29.6545 -0.0618018 29.137 0.272087 29.137 0.272087C28.3347 0.706349 28.1175 1.5421 28.1175 1.5421C27.9175 2.64482 28.519 3.51335 28.519 3.51335ZM27.9175 4.08143C27.9175 4.08143 25.7455 5.41836 25.5782 5.66895C25.4109 5.91954 25.5454 6.03698 25.5454 6.03698C25.5454 6.03698 26.4809 6.62146 26.7315 6.72183C26.9984 6.80513 26.8981 6.93896 26.8981 6.93896L26.965 11.2829C26.9984 11.4004 26.965 11.7001 26.965 11.7001C26.965 11.7001 26.5969 12.0012 26.3969 12.1685C26.1634 12.3686 26.3464 12.57 26.3464 12.57L29.7051 14.2572C29.7051 14.2572 31.9767 12.6199 32.1775 12.5366C32.3775 12.4526 32.1775 12.286 32.1775 12.286C32.1775 12.286 31.1915 11.7179 31.0249 11.6339C30.8583 11.5499 30.9252 11.3833 30.9252 11.3833C30.9252 11.3833 30.7914 7.08849 30.8918 6.72115C30.9751 6.37019 31.0918 6.48694 31.0918 6.48694C31.0918 6.48694 31.3923 6.40364 31.6599 6.23636C31.9105 6.06907 31.677 5.91885 31.677 5.91885C31.677 5.91885 28.5525 4.28218 28.319 4.08143C28.0841 3.88069 27.9175 4.08143 27.9175 4.08143ZM14.0751 11.3157C14.0669 11.2823 14.3338 13.8387 17.6085 14.2565L19.7805 12.5031C19.7805 12.5031 19.8973 12.3017 20.0646 12.4683L23.7401 14.2565L25.979 12.5031C25.979 12.5031 26.0794 12.3017 25.9121 12.1016L24.358 11.0651V6.80445C24.358 6.80445 24.3417 6.60439 24.4748 6.57093L25.0763 6.08682C25.0763 6.08682 25.1767 5.91954 24.9767 5.7024C24.7923 5.46889 21.1339 3.66424 21.1339 3.66424C21.1339 3.66424 21 3.46418 20.6655 3.6977C20.6655 3.6977 16.6724 5.3016 15.102 7.35615C15.1027 7.35615 13.8497 8.15776 14.0751 11.3157ZM17.2077 9.94602C17.3081 10.129 16.5393 8.85968 16.9073 7.47291C16.9073 7.47291 16.9578 6.25343 18.3774 5.63549L20.2988 6.88843L20.2653 11.8333C20.2653 11.8333 20.0147 12.2518 19.3968 11.9678C19.3968 11.9678 17.8093 11.1826 17.2077 9.94602ZM109.283 4.21458C109.283 4.21458 107.112 5.53444 106.944 5.8021C106.777 6.05268 106.91 6.16944 106.91 6.16944C106.91 6.16944 107.846 6.75392 108.097 6.8379C108.364 6.92189 108.263 7.07142 108.263 7.07142L108.33 11.4154C108.364 11.5328 108.33 11.8326 108.33 11.8326C108.33 11.8326 107.962 12.1166 107.762 12.2846C107.529 12.4847 107.713 12.6847 107.713 12.6847L111.071 14.389C111.071 14.389 113.343 12.7516 113.544 12.6513C113.744 12.5687 113.544 12.4007 113.544 12.4007C113.544 12.4007 112.574 11.8326 112.391 11.75C112.223 11.666 112.29 11.4994 112.29 11.4994C112.29 11.4994 112.157 7.20525 112.256 6.8379C112.34 6.50401 112.458 6.60438 112.458 6.60438C112.458 6.60438 112.758 6.5204 113.026 6.3538C113.277 6.18651 113.042 6.05336 113.042 6.05336C113.042 6.05336 109.917 4.41601 109.684 4.21527C109.466 4.01452 109.283 4.21458 109.283 4.21458ZM76.068 2.79436C75.5504 2.51031 75.9184 2.37648 75.9184 2.37648L78.524 0.705662C78.6571 0.588903 78.7746 0.756193 78.7746 0.756193L81.1473 2.14296C81.1473 2.14296 84.3544 0.438688 84.5722 0.305542C84.7054 0.221557 84.8228 0.339002 84.8228 0.339002L87.5301 1.84253L90.2532 0.138259C90.5529 -0.112329 90.6369 0.0542735 90.6369 0.0542735L93.8283 1.92583C94.0953 2.09312 93.9778 2.14296 93.9778 2.14296V10.7982C94.0953 11.8661 94.9979 12.2853 94.9979 12.2853C95.2485 12.4854 95.1311 12.6363 95.1311 12.6363L92.6744 14.3897C90.5529 13.6707 90.3528 11.9507 90.3528 11.9507V3.67995C90.3023 3.3959 90.1023 3.32899 90.1023 3.32899L88.4622 2.49324L88.4745 6.16876H90.2361L88.4826 8.69649L88.4936 11.7391L89.7192 12.5687C89.8858 12.7687 89.6195 12.8022 89.6195 12.8022L87.0788 14.389L83.3036 12.3843C82.9526 12.1494 83.2196 12.0163 83.2196 12.0163L84.0383 11.4987V8.84192H82.2405L82.2473 12.2525L82.853 12.6356C83.0373 12.8356 82.8195 12.9688 82.8195 12.9688L80.2965 14.389L77.0054 12.6513C76.7214 12.4669 77.0211 12.3181 77.0211 12.3181L77.9573 11.7834V4.13128L76.1526 2.82849L76.068 2.79436ZM88.2355 2.39014C87.737 2.23514 87.8142 2.54445 87.8142 2.54445L87.8476 5.90246V6.17013H88.2491L88.2355 2.39014ZM88.2573 8.84261H87.8476V11.2993C87.8633 11.3662 88.0648 11.4489 88.0648 11.4489L88.2662 11.5861L88.2573 8.84261ZM82.2398 8.36738L83.7201 6.16944H84.0376V3.67995C83.9884 3.5468 83.8041 3.41297 83.8041 3.41297L82.2302 2.5943L82.2398 8.36738ZM82.0042 2.54035C81.5427 2.55059 81.516 2.86195 81.516 2.86195L81.4812 11.7841C81.4812 11.8333 81.6321 11.8667 81.6321 11.8667L82.0199 12.1119L82.0042 2.54035ZM95.4438 11.3157C95.4356 11.2823 95.7026 13.8387 98.978 14.2565L101.149 12.5031C101.149 12.5031 101.267 12.3017 101.433 12.4683L105.109 14.2565L107.348 12.5031C107.348 12.5031 107.447 12.3017 107.281 12.1016L105.727 11.0651V6.80445C105.727 6.80445 105.712 6.60439 105.845 6.57093L106.446 6.08682C106.446 6.08682 106.546 5.91954 106.347 5.7024C106.162 5.46889 102.503 3.66424 102.503 3.66424C102.503 3.66424 102.37 3.46418 102.035 3.6977C102.035 3.6977 98.0419 5.3016 96.4714 7.35615C96.4707 7.35615 95.2185 8.15776 95.4438 11.3157ZM98.5765 9.94602C98.6762 10.129 97.908 8.85968 98.2767 7.47291C98.2767 7.47291 98.3259 6.25343 99.7461 5.63549L101.668 6.88843L101.634 11.8333C101.634 11.8333 101.383 12.2518 100.765 11.9678C100.765 11.9678 99.178 11.1826 98.5765 9.94602ZM114.011 1.74216C114.011 1.74216 117.669 0.556129 118.154 0.43937C118.621 0.322611 118.605 0.556133 118.605 0.556133C118.605 0.556133 118.505 11.132 118.588 11.5001C118.672 11.8667 118.839 11.7841 118.839 11.7841C118.839 11.7841 119.691 12.3857 119.875 12.4683C120.075 12.5523 119.975 12.7523 119.975 12.7523L117.904 14.3569C117.904 14.3569 114.529 12.8698 114.262 12.6861C113.927 12.469 114.144 12.3194 114.144 12.3194L114.746 11.7343C114.746 11.7343 114.846 3.02992 114.679 2.57859C114.512 2.12726 113.978 1.96065 113.978 1.96065C113.861 1.75855 114.011 1.74216 114.011 1.74216ZM109.884 3.64718C110.002 3.93122 110.302 3.88069 110.302 3.88069C111.639 3.32899 112.174 2.05966 112.174 2.05966C112.507 0.823106 111.722 0.489219 111.722 0.489219C111.021 0.0549571 110.503 0.405233 110.503 0.405233C109.7 0.839495 109.484 1.67524 109.484 1.67524C109.283 2.77797 109.884 3.64718 109.884 3.64718Z" fill="black" style="fill:black;fill-opacity:1;"/>
<path fill-rule="evenodd" clip-rule="evenodd" d="M58.2742 5.50152L58.5084 5.38477V5.55205L58.5917 5.46875L58.6914 5.70227L58.5582 5.71934L58.6422 5.80264C58.8259 5.93647 58.7091 6.05323 58.7091 6.05323L58.6252 6.12014C58.3575 6.21983 58.4415 5.80264 58.4415 5.80264L58.3575 5.88594L58.2578 5.63535H58.3916L58.2742 5.50152Z" fill="white" style="fill:white;fill-opacity:1;"/>
<path fill-rule="evenodd" clip-rule="evenodd" d="M58.0246 6.55415C58.2254 6.57054 58.2417 6.72144 58.2417 6.72144C58.2581 6.43739 58.4753 6.68798 58.4753 6.68798C58.4048 6.70993 58.3414 6.75023 58.2916 6.80474C58.2916 6.97203 58.5422 6.97202 58.5422 6.97202C58.7593 6.85458 58.7259 6.72144 58.7259 6.72144C58.7593 6.53708 58.5422 6.63745 58.5422 6.63745L58.4582 6.45378L58.592 6.43739V6.37048L58.4753 6.30356L58.8433 6.11989L58.7928 6.2701L58.8262 6.30356L58.9095 6.20319L58.9764 6.47085C58.8092 6.43739 58.8761 6.58761 58.8761 6.58761C58.971 6.69003 59.0468 6.69959 59.1021 6.67774C59.149 6.65513 59.1871 6.61737 59.21 6.57054C59.3103 6.45378 59.1936 6.40325 59.1936 6.40325C59.0604 6.45309 59.0434 6.50362 59.0434 6.50362C58.9764 6.15266 59.1601 6.2189 59.1601 6.2189C59.1103 6.05229 59.1601 5.9683 59.1601 5.9683C59.2939 6.03522 59.3103 6.16836 59.3103 6.16836C59.5104 5.95123 59.5438 6.18475 59.5438 6.18475C59.2769 6.23528 59.3936 6.3855 59.3936 6.3855C59.4564 6.4845 59.5056 6.50021 59.5445 6.47563C59.6292 6.42032 59.6606 6.16632 59.6606 6.16632C59.5104 5.94919 59.126 5.91027 59.126 5.93212L59.1096 6.068L58.9088 6.10145L58.8754 6.00108L58.8255 5.98469V5.90071C59.3096 5.71703 59.7446 6.11784 59.7446 6.11784L59.761 6.7863C59.0427 6.88668 58.1571 7.47115 58.1571 7.47115L57.8061 6.8696C57.9236 6.3855 58.3742 6.11784 58.3742 6.11784L58.4411 6.18475L58.3571 6.28513L58.3906 6.40188L58.1905 6.56917L58.0232 6.48519C57.9516 6.61219 57.8819 6.73577 57.9065 6.8696L58.0232 7.12019C58.2574 7.22056 58.1741 6.93652 58.1741 6.93652C58.1072 6.85253 58.0232 7.03621 58.0232 7.03621C57.873 6.75216 58.0738 6.76855 58.0738 6.76855C57.9912 6.68798 58.0246 6.55415 58.0246 6.55415ZM52.595 12.6693C52.3778 13.2374 52.4946 13.9721 52.4946 13.9721H52.3608V13.0531C51.9764 12.9691 52.1436 12.8195 52.1436 12.8195C52.2939 12.6188 52.595 12.6693 52.595 12.6693ZM53.3297 14.3565C53.4137 14.4897 53.3966 14.674 53.3966 14.674C53.3631 14.5409 53.2293 14.5566 53.2293 14.5566C53.1631 14.3565 53.3297 14.3565 53.3297 14.3565ZM53.6472 14.3565C53.7312 14.3074 53.7312 14.1899 53.7312 14.1899C53.9155 14.2725 53.7981 14.5409 53.7981 14.5409C53.7646 14.4234 53.6472 14.3565 53.6472 14.3565ZM53.43 13.7058C53.6977 13.6553 53.7646 13.9059 53.7646 13.9059C53.8814 14.0233 53.8814 13.8553 53.8814 13.8553C53.7305 13.3869 53.43 13.7058 53.43 13.7058ZM53.7974 14.0233C53.8807 14.0568 53.9141 13.9899 53.9141 13.9899C53.9811 14.1394 53.8971 14.2568 53.8971 14.2568C53.8807 14.1237 53.7974 14.1237 53.7974 14.1237V14.0233Z" fill="white" style="fill:white;fill-opacity:1;"/>
<path fill-rule="evenodd" clip-rule="evenodd" d="M53.9965 13.8213C53.8292 13.204 53.3949 13.6212 53.3949 13.6212C53.2782 13.2375 53.4454 12.9357 53.4454 12.9357C53.696 12.9691 54.0299 12.9357 54.0299 12.9357C54.1132 12.9357 54.0798 12.9862 54.0798 12.9862C54.1467 13.286 53.963 13.286 53.963 13.286C54.0968 13.4034 54.1303 13.3529 54.1303 13.3529C54.3979 13.3863 54.6315 12.8531 54.6315 12.8531C54.8821 12.836 55.1832 13.0531 55.1832 13.0531C55.3505 13.204 55.1832 13.2532 55.1832 13.2532C54.949 13.204 54.5311 13.2866 54.5311 13.2866C54.4813 13.3201 54.4976 13.4211 54.4976 13.4211C54.5311 13.5208 54.5482 13.8547 54.5482 13.8547C54.331 13.8049 53.9965 13.8213 53.9965 13.8213ZM55.0992 11.9832C55.1661 11.7326 55.6673 11.4656 55.6673 11.4656C55.9179 11.3659 56.2852 11.2812 56.2852 11.2812C56.7202 11.2983 57.0206 11.7654 57.0206 11.7654L56.8533 11.8985L56.9202 11.949C57.0711 11.7981 57.2377 11.9661 57.2377 11.9661C57.3879 12.0487 57.7553 12.1832 57.7553 12.1832C57.588 12.4325 57.0704 12.3328 57.0704 12.3328C57.0868 12.6011 56.7864 12.7834 56.7864 12.7834C56.9871 12.9514 57.7553 13.1023 57.7553 13.1023C58.0393 12.7008 58.3398 12.9848 58.3398 12.9848C58.4067 13.034 58.4907 13.118 58.4907 13.118C58.3234 13.202 58.3732 13.4191 58.3732 13.4191C58.0393 13.486 57.1039 13.486 57.1039 13.486C56.1848 13.3515 55.7171 13.118 55.7171 13.118C55.6338 13.0675 55.6843 13.0005 55.6843 13.0005L55.6673 12.9009C55.6509 12.7834 55.7513 12.8012 55.7513 12.8012C56.0852 12.7506 56.3692 12.384 56.3692 12.384C56.4532 12.1839 56.2688 12.2174 56.2688 12.2174C55.7007 12.1846 55.0992 11.9832 55.0992 11.9832Z" fill="white" style="fill:white;fill-opacity:1;"/>
<path fill-rule="evenodd" clip-rule="evenodd" d="M58.0742 12.8033C58.2913 12.5036 58.5918 12.7037 58.5918 12.7037C58.6587 12.7528 58.7256 12.9037 58.7256 12.9037C58.5918 12.9037 58.5583 13.0212 58.5583 13.0212C58.4416 12.7856 58.0742 12.8033 58.0742 12.8033ZM58.475 13.3871C58.4416 13.254 58.559 13.2041 58.559 13.2041C58.6259 13.2533 58.6922 13.3708 58.6922 13.3708C58.6252 13.3871 58.475 13.3871 58.475 13.3871ZM58.5918 13.1045C58.742 13.1714 58.7591 13.3537 58.7591 13.3537L58.8758 13.338C58.9093 13.0874 58.7755 12.9542 58.7755 12.9542C58.6252 12.9699 58.5918 13.1045 58.5918 13.1045ZM58.7591 12.6524C58.8431 12.703 58.826 12.8696 58.826 12.8696C58.9427 12.9536 58.9762 13.1202 58.9762 13.1202C59.0602 13.0696 59.1933 13.0867 59.1933 13.0867C59.1264 12.619 58.7591 12.6524 58.7591 12.6524ZM59.0097 13.1871L59.026 13.3202L59.2097 13.3045C59.2261 13.2048 59.1763 13.1379 59.1763 13.1379C59.0766 13.1202 59.0097 13.1871 59.0097 13.1871ZM60.1793 9.57847C60.2128 9.71162 60.1793 9.9465 60.1793 9.9465C60.1288 10.0462 59.9956 10.2462 59.9956 10.2462L60.2291 10.4811L60.7979 10.4968C60.8648 10.2968 61.198 9.96221 61.198 9.96221C61.4152 8.95986 61.9662 8.54198 61.9662 8.54198V8.45868C61.833 8.42522 61.8167 8.29139 61.8167 8.29139C61.8156 8.23943 61.8271 8.18799 61.8503 8.14149C61.8735 8.09499 61.9076 8.05481 61.9498 8.02442C62.0167 8.09133 62.0167 7.97389 62.0167 7.97389C61.9833 7.94043 61.9327 7.94043 61.9327 7.94043L61.8993 8.00734L61.7497 8.24086C61.6828 8.45799 61.2643 9.093 61.2643 9.093C61.1311 9.22683 60.6962 9.71094 60.6962 9.71094L60.6293 9.67748C60.4804 9.69591 60.1793 9.57847 60.1793 9.57847ZM61.1489 12.4019L61.265 12.2018L61.3489 12.2189C61.3824 12.4524 61.5333 12.619 61.5333 12.619L61.5162 12.9536C61.4671 12.8361 61.3496 12.8361 61.3496 12.8361C61.4329 12.5364 61.1489 12.4019 61.1489 12.4019ZM60.3957 13.9552H60.279L59.9949 14.2727C59.9779 14.4571 59.7444 14.5411 59.7444 14.5411C60.1957 14.5076 60.2626 14.341 60.2626 14.341C60.2394 14.4279 60.2057 14.5115 60.1622 14.5902C60.4456 14.4407 60.3794 14.3745 60.3794 14.3745C60.4299 14.2065 60.4128 14.1901 60.4128 14.1901C60.4299 14.1061 60.4456 14.0904 60.4456 14.0904C60.4804 13.9552 60.3957 13.9552 60.3957 13.9552ZM60.5965 14.0897C60.7808 14.1232 60.8805 14.1054 60.8805 14.1054C61.1154 14.3226 60.8648 14.6401 60.8648 14.6401C60.7979 14.4892 60.8314 14.4229 60.8314 14.4229C60.8648 14.3403 60.7979 14.2386 60.7979 14.2386C60.6969 14.3731 60.7631 14.6066 60.7631 14.6066C60.563 14.5226 60.5139 14.3226 60.5139 14.3226C60.5139 14.1901 60.5965 14.0897 60.5965 14.0897ZM62.4674 12.1513L62.6183 12.0352C62.6852 12.2018 62.5691 12.3684 62.5691 12.3684C62.5487 12.2904 62.5142 12.2168 62.4674 12.1513ZM62.2338 12.3684C62.2844 12.3192 62.3513 12.2189 62.3513 12.2189C62.451 12.3684 62.4004 12.5698 62.4004 12.5698C62.3178 12.5193 62.3513 12.5528 62.3513 12.5528L62.2338 12.3684Z" fill="white" style="fill:white;fill-opacity:1;"/>
<path fill-rule="evenodd" clip-rule="evenodd" d="M62.1829 10.6808V11.2489C62.6684 11.1983 62.6179 11.5664 62.6179 11.5664C62.8179 11.6333 62.6848 11.9836 62.6848 11.9836C62.7688 12.185 62.6691 12.4185 62.6691 12.4185C62.9197 13.0023 63.6707 13.2201 63.6707 13.2201L63.6373 10.6637L62.1829 10.6808ZM62.0832 9.67773L62.1003 10.0123C61.8319 10.5804 61.9828 11.3485 61.9828 11.3485C61.9542 11.3531 61.9272 11.3646 61.904 11.382C61.8808 11.3993 61.8622 11.4221 61.8497 11.4482C61.6653 10.2458 62.0832 9.67773 62.0832 9.67773ZM63.1525 13.0535L63.1354 14.3071L63.67 14.7407L64.1221 14.3406V13.2044L63.9377 13.2201V14.1897L63.67 14.4894L63.3696 14.2723V13.2044L63.1525 13.0535Z" fill="white" style="fill:white;fill-opacity:1;"/>
<path fill-rule="evenodd" clip-rule="evenodd" d="M63.6558 13.6371C63.7049 13.6371 63.7397 13.6037 63.7397 13.5374C63.7397 13.4712 63.7049 13.4214 63.6558 13.4214C63.6223 13.4214 63.5889 13.4705 63.5889 13.5374C63.5889 13.6044 63.623 13.6371 63.6558 13.6371ZM63.8067 13.9055C63.8401 13.9055 63.8736 13.8549 63.8736 13.8058C63.8736 13.7389 63.8401 13.6883 63.8067 13.6883C63.7561 13.6883 63.7227 13.7389 63.7227 13.8058C63.7227 13.8549 63.7561 13.9055 63.8067 13.9055ZM63.6722 14.1055C63.7056 14.1055 63.7404 14.0564 63.7404 14.0058C63.7404 13.9553 63.7056 13.9062 63.6722 13.9062C63.623 13.9062 63.5895 13.9553 63.5895 14.0058C63.5895 14.0564 63.623 14.1055 63.6722 14.1055ZM63.539 13.8877C63.5895 13.8877 63.623 13.8386 63.623 13.7716C63.623 13.7211 63.5895 13.6706 63.539 13.6706C63.4898 13.6706 63.4564 13.7211 63.4564 13.7716C63.4564 13.8386 63.4892 13.8877 63.539 13.8877ZM62.1024 12.5358C62.0853 12.4013 62.1516 12.3849 62.1516 12.3849C62.2185 12.5515 62.353 12.6518 62.353 12.6518V12.6361C62.4021 12.7522 62.553 12.8697 62.553 12.8697C62.5701 12.9871 62.4534 12.9871 62.4534 12.9871C62.2355 12.8028 62.1024 12.5358 62.1024 12.5358ZM62.4356 12.6355C62.5196 12.5358 62.5025 12.4511 62.5025 12.4511C62.553 12.5351 62.5865 12.5351 62.5865 12.5351L62.637 12.5016L62.7367 12.6512C62.6193 12.6682 62.5524 12.8021 62.5524 12.8021C62.4534 12.7515 62.4356 12.6355 62.4356 12.6355ZM61.8183 12.785L61.9344 12.953C61.9344 12.8861 61.9679 12.8355 61.9679 12.8355L62.1024 12.7024L62.0355 12.5849L61.901 12.7358C61.8675 12.7515 61.8183 12.785 61.8183 12.785ZM61.6347 12.4852L61.7344 12.6184C61.7514 12.5515 61.7849 12.5358 61.7849 12.5358L61.9515 12.3849L61.8518 12.318L61.6347 12.4852ZM61.2168 10.6301V10.8144L61.266 10.798L61.5172 10.781L61.2168 11.1313L61.4169 11.2651H61.7009V11.1313H61.4012L61.7009 10.798V10.6471L61.6504 10.6635H61.266L61.2168 10.6301ZM61.2503 10.2129L61.2332 10.3795L61.266 10.346L61.6504 10.3966L61.7009 10.4635L61.7344 10.2634H61.6674L61.3172 10.2129L61.2503 10.163V10.2129ZM61.55 9.3109L61.6674 9.39421L61.5835 9.42766C61.4503 9.54442 61.5343 9.61134 61.5343 9.61134C61.6169 9.66186 61.634 9.56149 61.634 9.56149C61.7671 9.37782 61.8675 9.4775 61.8675 9.4775C62.0355 9.59426 61.918 9.77862 61.918 9.77862L61.8675 9.84553L61.8518 9.89538L61.7187 9.84553L61.7856 9.79569C61.8525 9.74516 61.8347 9.66255 61.8347 9.66255C61.8013 9.51165 61.7187 9.66255 61.7187 9.66255C61.5172 9.86261 61.4175 9.64547 61.4175 9.64547C61.3329 9.49389 61.55 9.3109 61.55 9.3109ZM62.0355 8.7592V8.89303C61.8341 8.8425 61.8511 9.04325 61.8511 9.04325C61.9003 9.27676 62.0683 9.24331 62.0683 9.24331V9.34367C61.8334 9.37713 61.7508 9.15932 61.7508 9.15932C61.6674 8.77627 62.0355 8.7592 62.0355 8.7592ZM62.185 10.5966H63.6387V8.45877L62.1188 8.44169L62.185 10.5966ZM62.0689 6.33662C62.4542 6.00067 62.92 5.77036 63.4209 5.66816V6.00205C62.9211 5.93581 62.0689 6.33662 62.0689 6.33662ZM63.8736 5.68523V5.98566C64.9087 5.9522 65.3942 6.40353 65.3942 6.40353C64.7749 5.65108 63.8736 5.68523 63.8736 5.68523ZM63.5056 5.66816V6.00273H63.7896V5.66816H63.5056ZM61.6504 6.55375C61.5507 6.08603 61.901 6.2697 61.901 6.2697L61.6504 6.55375ZM62.0184 6.1864C61.985 5.70229 62.3025 5.96927 62.3025 5.96927L62.0184 6.1864ZM62.4691 5.8689C62.4533 5.38479 62.7702 5.66884 62.7702 5.66884L62.4691 5.8689ZM62.904 5.63538C62.9709 5.00038 63.2386 5.50155 63.2386 5.50155L62.904 5.63538ZM63.4216 5.3172H63.8736C63.9405 5.41757 63.8067 5.56778 63.8067 5.56778C63.6558 5.61831 63.5056 5.5514 63.5056 5.5514C63.272 5.50155 63.4216 5.3172 63.4216 5.3172ZM63.4386 4.56543H63.8736L63.7404 4.76618L63.8231 4.85016L63.9227 4.71565L63.9398 5.13352L63.7227 4.96692L63.8231 5.21751L63.4386 5.20044L63.6052 4.99969L63.5561 4.94985L63.3881 5.10007L63.3717 4.69926L63.539 4.85016L63.5895 4.79963L63.4386 4.56543ZM65.3095 6.05257L65.5601 6.28677C65.6448 5.76853 65.3095 6.05257 65.3095 6.05257ZM65.1764 5.9522L64.8752 5.78492C65.2255 5.43464 65.1764 5.9522 65.1764 5.9522ZM64.4417 5.53501L64.7414 5.66884C64.7414 5.15059 64.4417 5.53501 64.4417 5.53501ZM64.3242 5.51794C64.2908 5.28374 64.1576 5.28374 64.1576 5.28374C64.0067 5.25028 63.9897 5.50087 63.9897 5.50087L64.3242 5.51794ZM62.1024 8.07435C63.7056 7.75685 65.1429 8.07435 65.1429 8.07435C65.343 8.10781 65.2603 8.25802 65.2603 8.25802C65.1095 8.30787 65.0432 8.27441 65.0432 8.27441C63.8067 8.02382 62.1522 8.32494 62.1522 8.32494C61.9016 8.34132 61.9522 8.22456 61.9522 8.22456C62.0027 8.04089 62.1024 8.07435 62.1024 8.07435ZM63.7227 8.45877V10.6144H65.1094L65.1593 8.45877H63.7227ZM65.1094 10.6806H63.7227L63.7397 13.237C64.5079 13.1039 64.725 12.6355 64.725 12.6355C64.7585 12.4006 65.1088 11.4324 65.1088 11.4324L65.1094 10.6806ZM64.2402 13.1708V13.4214C64.5414 13.6214 64.9087 13.7211 64.9087 13.7211C65.0596 13.6706 64.9927 13.5368 64.9927 13.5368C64.944 13.4972 64.8871 13.469 64.8261 13.4541C64.5086 13.4214 64.2402 13.1708 64.2402 13.1708ZM64.7592 12.6853L64.8418 12.7693L64.5414 13.2042L64.4908 13.0868L64.7592 12.6853ZM64.908 12.8198L64.6253 13.2199C65.0589 13.504 65.3095 12.8362 65.3095 12.8362C65.0589 12.9024 64.908 12.8198 64.908 12.8198ZM65.1934 9.54442V9.94591C65.343 10.2129 65.3764 10.781 65.3764 10.781L65.5109 10.5475C65.4939 9.96161 65.1934 9.54442 65.1934 9.54442ZM64.2239 14.1718V14.3561C64.357 14.4736 64.708 14.5562 64.708 14.5562C64.7919 14.5227 64.708 14.4066 64.708 14.4066C64.5086 14.4066 64.2239 14.1718 64.2239 14.1718Z" fill="white" style="fill:white;fill-opacity:1;"/>
<path fill-rule="evenodd" clip-rule="evenodd" d="M64.7734 14.1061L64.8574 13.8064C65.1415 13.7893 65.0418 13.4718 65.0418 13.4718C65.2753 13.4049 65.5416 12.9707 65.5416 12.9707L65.6099 13.1386L65.7096 13.3387C65.7587 13.4384 65.7922 13.4896 65.7765 13.4896L65.6256 13.6227V13.5387L65.3415 13.7893L65.4412 13.2383L65.1742 13.8556C65.024 14.0235 64.7734 14.1061 64.7734 14.1061ZM64.824 14.257C65.0575 14.608 65.827 14.608 65.827 14.608C65.743 14.4079 65.5259 14.324 65.5259 14.324C65.8605 14.1908 66.1609 14.4906 66.1609 14.4906C66.3452 14.6585 66.5446 14.6585 66.5446 14.6585C66.4973 14.5902 66.4413 14.5282 66.378 14.4742C66.4777 14.5233 66.5781 14.4899 66.5781 14.4899C66.462 14.2898 66.1274 14.1061 66.1274 14.1061C66.4784 13.9218 66.7795 14.341 66.7795 14.341C66.929 14.5568 67.0636 14.608 67.0636 14.608L66.9625 14.2734C67.0635 14.5745 67.4637 14.6585 67.4637 14.6585C67.5142 14.608 67.4637 14.5076 67.4637 14.5076C67.3476 14.5076 67.2465 14.341 67.2465 14.341L67.2308 14.0065C66.8628 13.9559 66.8628 13.7559 66.8628 13.7559C66.9133 13.4561 67.1803 13.4227 67.1803 13.4227L67.1469 13.0376C67.364 12.8375 67.7819 12.9549 67.7819 12.9549C67.7484 12.7201 67.5647 12.787 67.5647 12.787C67.5647 12.604 67.349 12.5869 67.349 12.5869V12.6374L66.7461 13.1058C66.83 13.5729 66.6129 13.7231 66.6129 13.7231C66.1957 13.9914 65.8953 13.6234 65.8953 13.6234L65.6604 13.7743C65.8775 13.79 66.0284 13.9914 66.0284 13.9914L65.995 14.0249C65.8873 13.9373 65.7616 13.8743 65.6269 13.8405L65.4269 13.9232L65.3272 14.0071L64.824 14.257Z" fill="white" style="fill:white;fill-opacity:1;"/>
<path fill-rule="evenodd" clip-rule="evenodd" d="M66.1595 12.5695C66.3439 12.3012 66.4265 11.8669 66.4265 11.8669L66.4948 11.9509L66.3951 12.2684L66.462 12.3353L66.5781 12.0683L66.6621 12.168L66.5289 12.3851L66.6286 12.4678L66.7617 12.2848L66.8457 12.3517L66.6614 12.536L66.744 12.6521L66.8949 12.4186L67.0123 12.5026L66.8123 12.7027L66.8949 12.7696L67.0963 12.603L67.1632 12.6521L66.6778 13.0536C66.5105 12.6856 66.1595 12.5695 66.1595 12.5695ZM67.8802 12.9696C68.2987 12.8699 67.9484 12.6521 67.9484 12.6521C67.5804 12.519 67.5299 12.5852 67.5299 12.5852C67.6644 12.6357 67.6473 12.7184 67.6473 12.7184C67.831 12.7361 67.8802 12.9696 67.8802 12.9696ZM67.8972 13.3711L68.0481 13.0031C67.8133 13.0871 67.6644 13.0365 67.6644 13.0365C67.4138 13.0031 67.3121 13.07 67.3121 13.07C67.1625 13.154 67.28 13.1711 67.28 13.1711C67.463 13.3534 67.8972 13.3711 67.8972 13.3711ZM68.3813 13.3199L68.4653 13.4216L68.8668 13.2871L68.6319 13.4551L69.0669 13.4886L68.8668 13.1868L68.3813 13.3199ZM67.1789 5.93609C67.1455 5.63565 66.9789 5.50182 66.9789 5.50182C66.7945 5.38506 66.7788 5.48544 66.7788 5.48544C66.7788 5.63565 66.8949 5.6855 66.8949 5.6855L67.1789 5.93609ZM67.5627 6.16961C67.5292 5.98593 67.5135 5.96955 67.5135 5.96955C67.4466 5.85279 67.3961 5.78587 67.3961 5.78587L67.1789 5.63565C67.2458 5.76948 67.2629 5.93609 67.2629 5.93609L67.5627 6.16961ZM67.5797 5.90263C67.6794 6.06991 67.6637 6.20306 67.6637 6.20306L67.9307 6.47072C67.9307 6.20306 67.7976 6.03646 67.7976 6.03646L67.5804 5.86917L67.5797 5.90263ZM67.0629 7.75712C66.9454 7.82403 66.8614 7.79058 66.8614 7.79058C66.8614 7.95786 67.1625 7.95786 67.1625 7.95786C67.28 7.95786 67.3797 7.8411 67.3797 7.8411V7.77419C67.28 7.8411 67.1625 7.85817 67.1625 7.85817L67.0629 7.75712ZM67.4295 8.90969L67.463 8.79293C67.7805 8.70894 67.547 8.47543 67.547 8.47543C67.6644 8.42558 67.6979 8.45904 67.6979 8.45904C67.8474 8.37505 67.8979 8.55873 67.8979 8.55873C68.0154 8.45904 68.098 8.52527 68.098 8.52527C67.8474 8.75947 68.1485 8.84278 68.1485 8.84278C68.2994 8.84278 68.3329 8.69256 68.3329 8.69256C68.266 8.62496 68.2489 8.5758 68.2489 8.5758C68.2982 8.59467 68.3435 8.62296 68.382 8.6591C68.3663 8.55873 68.466 8.55873 68.466 8.55873C68.5152 8.64271 68.4995 8.70894 68.4995 8.70894C68.55 8.6591 68.6504 8.70894 68.6504 8.70894C68.4995 8.87623 68.6995 9.02645 68.6995 9.02645C68.9344 9.15959 68.901 8.77586 68.901 8.77586C69.0676 8.77586 69.0505 8.92607 69.0505 8.92607L69.1515 8.84278C69.185 8.94315 69.185 9.01006 69.185 9.01006C69.2519 8.92607 69.3516 8.99367 69.3516 8.99367C69.0833 9.16027 69.2676 9.31117 69.2676 9.31117C69.3516 9.37809 69.4185 9.32756 69.4185 9.32756L69.4028 9.2108L69.6186 9.24426L69.4028 9.49485C68.2653 8.84277 67.4295 8.90969 67.4295 8.90969ZM67.9484 6.11976L68.1642 6.25359C68.1485 6.38742 68.0311 6.52057 68.0311 6.52057C68.0638 6.38742 67.9484 6.11976 67.9484 6.11976ZM68.9829 6.25359C69.4349 6.13683 69.7353 6.7377 69.7353 6.7377L69.4021 6.60455C69.2669 6.45365 68.9829 6.25359 68.9829 6.25359ZM69.4349 6.70424C69.5346 6.83807 69.5844 7.0552 69.5844 7.0552C69.7019 7.18903 70.0365 7.38977 70.0365 7.38977C69.9525 6.83807 69.4349 6.70424 69.4349 6.70424ZM69.6514 7.25594C70.2365 7.47307 70.0528 8.09101 70.0528 8.09101C69.9689 7.87388 69.8193 7.80696 69.8193 7.80696C69.6514 7.64036 69.6514 7.25594 69.6514 7.25594ZM69.7524 7.90734C69.7681 8.04116 69.719 8.27468 69.719 8.27468C69.8016 8.40851 69.8685 8.67549 69.8685 8.67549C69.9354 8.60857 70.0194 8.20777 70.0194 8.20777C69.9689 8.02478 69.7524 7.90734 69.7524 7.90734ZM69.6855 8.44197C69.6507 8.62564 69.4506 8.95953 69.4506 8.95953L69.5346 9.0599L69.6343 9.12682C69.919 8.75947 69.6855 8.44197 69.6855 8.44197ZM73.1268 13.8723L72.9773 13.3042C72.8598 13.1198 72.6762 13.2373 72.6762 13.2373C72.5253 13.3534 72.3416 13.2864 72.3416 13.2864C72.1415 13.253 72.3081 13.1198 72.3081 13.1198C72.5765 12.9532 72.8428 12.8693 72.8428 12.8693C73.0442 12.9532 73.4109 12.9362 73.4109 12.9362C73.7284 12.887 73.6614 13.1533 73.6614 13.1533C73.6785 13.4039 73.5945 13.8388 73.5945 13.8388C73.3945 13.8388 73.1268 13.8723 73.1268 13.8723ZM73.6614 13.9897L73.7454 14.0723L73.4948 14.523L73.3774 14.4561C73.544 14.3229 73.6614 13.9897 73.6614 13.9897ZM73.8117 14.1058L73.6116 14.5407C73.9783 14.6077 74.2466 14.3564 74.2466 14.3564L74.1961 14.0894C74.0117 14.172 73.8117 14.1058 73.8117 14.1058ZM74.5641 13.9214C74.6467 13.9385 74.8147 14.0054 74.8147 14.0054C74.8816 13.7057 74.7307 13.337 74.7307 13.337C75.0148 13.4367 75.0148 13.3199 75.0148 13.3199C75.0987 13.0864 74.8147 13.0202 74.8147 13.0202C74.3292 12.8693 74.1626 12.9027 74.1626 12.9027C74.1961 13.0359 74.1797 13.1198 74.1797 13.1198C74.1954 13.1533 74.1954 13.2864 74.1954 13.2864C74.6638 13.4551 74.5641 13.9214 74.5641 13.9214ZM65.2077 8.74308V8.87623L65.3743 8.75947L65.2077 9.14389L65.1913 9.37809L65.4583 8.80932L65.3743 8.6591L65.2077 8.74308ZM65.2582 9.46139H65.3251L65.6754 9.19373L65.7089 9.12682L65.7915 9.31117H65.7423L65.4248 9.56176L65.474 9.69559L65.5586 9.77889L65.4412 9.82874L65.2582 9.46139ZM65.5586 10.1968L65.6092 10.3968L65.6918 10.3463L65.8263 10.2971L65.9424 10.3798H66.109L65.9089 10.2459L66.0598 10.0793L65.9929 9.87927L65.9594 9.96189L65.8092 10.1633L65.6092 10.2132L65.5586 10.1968ZM65.8263 11.3828C65.7423 11.3999 65.7758 11.4497 65.7758 11.4497C65.9424 11.6668 66.0427 11.4832 66.0427 11.4832C66.0933 11.3835 66.0762 11.3166 66.0762 11.3166L66.027 11.3009C66.027 11.5009 65.9274 11.4504 65.9274 11.4504C65.8598 11.449 65.8263 11.3828 65.8263 11.3828ZM65.6426 11.6996L65.6092 11.9174L65.6754 12.0349L65.7089 11.8334L65.8755 11.9174L65.7915 12.084L65.7423 12.1011L65.8598 12.168L65.9758 11.8997L66.0264 11.8334H65.9758L65.6426 11.6668V11.6996ZM62.3508 13.5377C62.3174 13.6709 62.1999 13.6552 62.1999 13.6552L62.0156 13.438C61.8981 13.2537 61.9999 13.2045 61.9999 13.2045L62.2334 12.8699C62.2848 12.9018 62.3256 12.9481 62.3508 13.0031L62.1829 13.2202C62.1337 13.3377 62.2163 13.3711 62.2163 13.3711L62.3508 13.5377Z" fill="white" style="fill:white;fill-opacity:1;"/>
<path fill-rule="evenodd" clip-rule="evenodd" d="M62.5845 12.8353C62.6514 13.1194 62.3674 13.0525 62.3674 13.0525C62.2677 13.2525 62.4179 13.2525 62.4179 13.2525C62.6514 13.2696 62.7354 13.0354 62.7354 13.0354C62.7354 12.8865 62.5845 12.8353 62.5845 12.8353ZM67.5294 8.20799L67.3293 8.02432C67.3293 8.02432 67.4959 7.89049 67.4625 7.72389C67.4625 7.72389 67.5799 7.7075 67.3464 7.7075L67.2624 7.75734C67.2624 7.75734 67.1784 7.72388 67.1627 7.67336L67.1292 7.4733L67.2801 7.28963L67.4133 7.30601C67.5109 7.17287 67.7643 6.94549 67.98 6.76114L68.0483 6.83829C67.9643 7.02197 68.064 7.07181 68.064 7.07181C68.1971 7.1558 68.2484 6.98851 68.2484 6.98851C68.3815 7.05542 68.3323 6.97212 68.3323 6.97212C68.1978 6.94208 68.0483 6.76455 68.0203 6.72836C68.1924 6.58224 68.3323 6.47094 68.3323 6.47094C68.415 6.28727 68.5495 6.20329 68.5495 6.20329C68.4655 6.1036 68.3986 5.83594 68.3986 5.83594C68.8158 5.83594 68.8827 6.2702 68.8827 6.2702C70.1698 7.28962 69.3682 8.89353 69.3682 8.89353C68.9831 8.57602 68.1145 8.37528 68.1145 8.37528C68.232 8.14176 68.5146 7.99086 68.5146 7.99086C69.067 8.00793 68.9831 7.33947 68.9831 7.33947C68.867 7.10527 68.9004 7.45623 68.9004 7.45623C68.6655 8.22438 68.064 7.54021 68.064 7.54021C67.9971 7.48968 68.064 7.65697 68.064 7.65697C68.0975 7.74028 68.1309 7.72389 68.1309 7.72389L68.1814 7.77373L67.7643 7.94101C67.6973 8.04139 67.5799 8.20868 67.5799 8.20868L67.5294 8.20799ZM59.7611 6.88813C59.0599 6.95505 58.2078 7.57299 58.2078 7.57299C58.1074 7.6399 58.091 7.62283 58.091 7.62283C57.9237 7.92326 58.2747 8.05709 58.2747 8.05709C58.2267 8.33174 58.2739 8.61453 58.4085 8.8587C58.5587 9.04306 58.5922 9.51078 58.5922 9.51078C58.7089 9.42679 58.7424 9.24312 58.7424 9.24312C58.8762 9.81053 59.3105 9.92797 59.3105 9.92797C59.3668 9.94035 59.4198 9.9646 59.4659 9.9991C59.5121 10.0336 59.5503 10.0776 59.5781 10.128C59.628 9.96143 59.6116 9.79482 59.6116 9.79482C59.6614 10.012 59.8622 10.128 59.8622 10.128C59.8956 9.92797 59.9626 9.7443 59.9626 9.7443C60.1128 9.42748 59.996 9.10997 59.996 9.10997C60.0629 9.22673 60.2132 9.26019 60.2132 9.26019C60.1128 8.95976 60.2132 8.70848 60.2132 8.70848C60.2637 8.40805 60.1462 8.20731 60.1462 8.20731L60.1141 8.08645C60.0418 8.29676 60.0786 8.62519 60.0786 8.62519C59.9953 8.6088 59.9114 8.57534 59.9114 8.57534C59.9619 8.87577 59.7611 9.27657 59.7611 9.27657C59.6444 9.46025 59.6273 9.59408 59.6273 9.59408C59.4771 9.39402 59.0094 9.26019 59.0094 9.26019C58.9341 9.16604 58.8672 9.06551 58.8093 8.95976C58.7424 9.07652 58.6755 9.04374 58.6755 9.04374C58.6256 8.87646 58.4754 8.67571 58.4754 8.67571C58.3587 8.47565 58.3587 8.27491 58.3587 8.27491C58.5096 8.55895 58.5594 8.62587 58.5594 8.62587C58.6762 8.69347 58.6762 8.9263 58.6762 8.9263C58.7765 8.87645 58.7929 8.7597 58.7929 8.7597C59.0271 9.14343 59.3446 9.21103 59.3446 9.21103C59.4785 9.27794 59.5952 9.3947 59.5952 9.3947C59.6116 9.12704 59.712 9.01096 59.712 9.01096C59.912 8.70985 59.7953 8.3425 59.7953 8.3425C59.8167 8.38966 59.8492 8.43096 59.89 8.46293C59.9307 8.4949 59.9786 8.51659 60.0295 8.52618C59.996 8.37596 60.0131 8.24213 60.0131 8.24213C60.0404 8.13425 60.0527 7.98198 60.0582 7.86522L60.0131 7.69043C59.9127 7.4733 59.8963 7.32308 59.8963 7.32308C60.0616 7.02128 59.7611 6.88813 59.7611 6.88813ZM59.0763 8.37459C59.2094 8.55827 59.3938 8.62519 59.3938 8.62519C59.4935 8.40805 59.4607 8.24145 59.4607 8.24145C59.3105 8.25784 59.2436 8.20799 59.2436 8.20799C59.193 8.39167 59.0763 8.37459 59.0763 8.37459ZM58.4242 7.6399C58.6584 7.70682 58.7417 7.60644 58.7417 7.60644C58.9923 7.50607 59.0258 7.77373 59.0258 7.77373C59.0258 7.89049 59.0763 7.97379 59.0763 7.97379C59.148 7.9813 59.2757 7.95809 59.3269 7.90688C59.3938 7.82289 59.2934 7.73959 59.2934 7.73959C59.26 7.62283 59.2265 7.55592 59.2265 7.55592C59.2265 7.28826 59.4109 7.30533 59.4109 7.30533C59.5276 7.32171 59.6109 7.20496 59.6109 7.20496C59.6199 7.27076 59.6067 7.33768 59.5735 7.39517C59.5402 7.45266 59.4888 7.49744 59.4272 7.52246C59.3105 7.60644 59.3433 7.70682 59.3433 7.70682C59.46 7.90688 59.3596 7.92395 59.3596 7.92395C59.3483 7.95131 59.3306 7.9756 59.3081 7.99483C59.2855 8.01405 59.2587 8.02767 59.2299 8.03456C59.2825 8.17385 59.4102 8.15815 59.4102 8.15815C59.5938 8.05846 59.5938 7.85772 59.5938 7.85772C59.6771 8.09123 59.5938 8.15815 59.5938 8.15815C59.6771 8.30836 59.5433 8.37528 59.5433 8.37528C59.5433 8.65932 59.3931 8.79315 59.3931 8.79315C58.825 8.45926 58.8086 8.07485 58.8086 8.07485C58.9923 8.39235 59.176 8.24213 59.176 8.24213C59.2122 8.20526 59.2047 8.09874 59.1978 8.04275C59.1179 8.05709 59.0421 8.04207 59.0421 8.04207C58.9418 7.90824 58.9588 7.80855 58.9588 7.80855C58.8749 7.62419 58.825 7.7751 58.825 7.7751C58.5246 7.95672 58.4242 7.6399 58.4242 7.6399ZM54.565 13.3864C55.0327 13.6704 56.7541 13.6704 56.7541 13.6704C58.4078 13.6875 59.3105 13.4546 59.3105 13.4546C59.5105 13.4546 59.8451 13.3037 59.8451 13.3037C59.912 13.2867 59.8779 13.4212 59.8779 13.4212C59.7782 13.8049 59.8615 14.1893 59.8615 14.1893C59.8615 14.4563 59.5775 14.4399 59.5775 14.4399C57.1549 14.7731 55.2171 14.6065 55.2171 14.6065C54.649 14.5068 54.6319 14.205 54.6319 14.205C54.7658 13.738 54.5821 13.4703 54.5821 13.4703C54.5145 13.4212 54.565 13.3864 54.565 13.3864ZM55.0997 14.373L55.1502 14.3225V13.8384L55.1167 13.7544C55.4841 13.7387 55.6008 13.8875 55.6008 13.8875C55.8514 14.3061 55.4165 14.4065 55.4165 14.4065C55.3099 14.4271 55.1996 14.4155 55.0997 14.373ZM55.9347 13.8213L56.1853 13.8384C56.1184 13.8718 56.1355 13.9715 56.1355 13.9715L56.1191 14.4222L56.186 14.5219L55.9183 14.5062C55.9852 14.4556 55.9852 14.4222 55.9852 14.4222V13.9381C55.9852 13.8718 55.9347 13.8213 55.9347 13.8213ZM55.3168 13.8384L55.3004 14.3068C55.4841 14.3225 55.5175 14.1723 55.5175 14.1723C55.551 14.0896 55.4841 13.9722 55.4841 13.9722C55.4172 13.8384 55.3168 13.8384 55.3168 13.8384ZM56.453 13.8718H56.9371L56.9535 13.9893C56.8865 13.9544 56.8032 13.9545 56.8032 13.9545H56.7029V14.1388H56.7534L56.8702 14.1053L56.8538 14.2562L56.7705 14.2392H56.7036V14.4406H56.8203C56.8872 14.4406 56.9371 14.3901 56.9371 14.3901V14.5232L56.5697 14.5075H56.4693C56.453 14.4904 56.4693 14.4904 56.4693 14.4904C56.5028 14.4904 56.5363 14.457 56.5363 14.457V13.9394C56.5199 13.9053 56.453 13.8718 56.453 13.8718ZM57.2047 13.8548L57.4553 13.8718C57.4398 13.8974 57.4285 13.9253 57.4219 13.9545V14.289C57.4382 14.4222 57.5386 14.4065 57.5386 14.4065C57.6554 14.3894 57.639 14.2385 57.639 14.2385V13.9053L57.6055 13.8718H57.7892C57.7728 13.8875 57.7728 13.921 57.7728 13.921V14.272C57.7557 14.4891 57.5222 14.5068 57.5222 14.5068C57.2716 14.4898 57.2716 14.2562 57.2716 14.2562V13.9217C57.2542 13.895 57.2314 13.8722 57.2047 13.8548ZM58.4242 13.7878L58.825 13.7544L58.8749 13.8718C58.825 13.8548 58.7581 13.8548 58.7581 13.8548H58.6584V14.0227H58.7581C58.7745 14.0057 58.8086 13.9893 58.8086 13.9893L58.825 14.1388C58.7916 14.1053 58.7581 14.1053 58.7581 14.1053H58.6584V14.2897H58.7752C58.8086 14.2897 58.8592 14.2392 58.8592 14.2392V14.3566L58.4747 14.4071L58.5082 14.3737L58.4918 13.8391C58.4911 13.8049 58.4242 13.7878 58.4242 13.7878ZM59.1432 13.7209L59.1596 13.8541C59.193 13.7872 59.3098 13.7872 59.3098 13.7872L59.3262 14.2713L59.2927 14.3061L59.4928 14.2713L59.4593 14.2556L59.443 13.7715C59.5426 13.738 59.5932 13.7872 59.5932 13.7872L59.5768 13.654L59.5597 13.6697L59.176 13.7045H59.1425L59.1432 13.7209ZM60.1114 13.1863C59.9947 12.9692 60.078 12.8196 60.078 12.8196C60.1783 12.5185 60.4624 12.5513 60.4624 12.5513C60.629 12.651 60.6133 12.5178 60.6133 12.5178C60.7799 12.2843 60.9799 12.4181 60.9799 12.4181C61.0348 12.4862 61.1115 12.5332 61.1971 12.5513C61.3145 12.7022 61.2476 12.7848 61.2476 12.7848C61.2386 12.8375 61.2506 12.8917 61.281 12.9357C61.4319 12.9692 61.4142 13.1371 61.4142 13.1371C61.4477 13.3201 61.3302 13.6212 61.3302 13.6212C61.2305 13.7052 61.1144 13.6369 61.1144 13.6369C61.0305 13.654 61.0639 13.6875 61.0639 13.6875C61.1479 13.8206 61.0639 13.8875 61.0639 13.8875C60.9308 14.0384 60.7464 14.022 60.7464 14.022C60.4794 14.022 60.4624 13.8875 60.4624 13.8875C60.4289 13.7715 60.2787 13.7715 60.2787 13.7715C60.0616 13.7045 60.0445 13.4874 60.0445 13.4874C60.0281 13.37 60.1114 13.3194 60.1114 13.3194C60.1954 13.2703 60.1114 13.1863 60.1114 13.1863ZM60.5627 13.3372C60.6297 13.5878 60.4801 13.6882 60.4801 13.6882C60.3456 13.7052 60.3292 13.6042 60.3292 13.6042C60.3292 13.5045 60.2452 13.4881 60.2452 13.4881C60.1954 13.2867 60.2958 13.2867 60.2958 13.2867C60.4631 13.2368 60.5627 13.3372 60.5627 13.3372ZM60.8802 13.2368C60.9137 13.4034 61.1486 13.5366 61.1486 13.5366C61.2647 13.5366 61.2155 13.37 61.2155 13.37C61.1486 13.286 61.182 13.2368 61.182 13.2368C61.3486 13.2034 61.2312 13.0525 61.2312 13.0525C60.9137 12.9692 60.8802 13.2368 60.8802 13.2368ZM60.6467 12.9692C60.6467 12.6517 60.4453 12.6694 60.4453 12.6694C60.3456 12.6851 60.3456 12.7855 60.3456 12.7855C60.3791 12.9535 60.3122 12.9535 60.3122 12.9535C60.1619 12.9869 60.2623 13.1535 60.2623 13.1535C60.3122 13.2204 60.3456 13.204 60.3456 13.204C60.4958 13.204 60.6133 13.1201 60.6133 13.1201C60.6959 13.1037 60.6467 12.9692 60.6467 12.9692ZM60.8645 12.6182C60.9137 12.7179 60.9977 12.7022 60.9977 12.7022C61.182 12.7022 61.0646 12.8865 61.0646 12.8865C60.9649 13.0197 60.8311 13.0361 60.8311 13.0361C60.6467 12.8203 60.6631 12.7029 60.6631 12.7029C60.6631 12.4345 60.8645 12.6182 60.8645 12.6182ZM60.7471 13.4212C60.9977 13.4546 60.9806 13.7209 60.9806 13.7209C60.9137 13.8384 60.8475 13.7878 60.8475 13.7878C60.7635 13.7052 60.7143 13.7721 60.7143 13.7721C60.7143 13.9217 60.5969 13.8213 60.5969 13.8213C60.5293 13.4703 60.7471 13.4212 60.7471 13.4212Z" fill="white" style="fill:white;fill-opacity:1;"/>
<path fill-rule="evenodd" clip-rule="evenodd" d="M60.9817 14.0893C61.2323 14.0224 61.2323 13.7881 61.2323 13.7881C61.2525 13.7818 61.2717 13.7728 61.2896 13.7615C61.4726 13.8762 61.5163 14.023 61.5163 14.023C61.5832 14.0565 61.6843 14.2231 61.6843 14.2231C61.6672 14.006 61.5669 13.9548 61.5669 13.9548C61.5294 13.8494 61.4682 13.7541 61.388 13.6762C61.5163 13.5164 61.5163 13.2706 61.5163 13.2706C61.7007 13.2037 61.8673 13.4372 61.8673 13.4372C61.8004 13.4706 61.7341 13.4543 61.7341 13.4543C62.0025 13.5703 61.9513 13.9889 61.9513 13.9889C61.8338 13.9889 61.7847 13.9384 61.7847 13.9384C61.9847 14.1719 61.7847 14.6239 61.7847 14.6239C61.5832 14.5399 61.5498 14.3064 61.5498 14.3064C61.5832 14.473 61.5163 14.5222 61.5163 14.5222C61.3497 14.4887 61.2828 14.2716 61.2828 14.2716C61.2657 14.473 61.1654 14.389 61.1654 14.389C61.1162 14.3556 61.1162 14.2381 61.1162 14.2381C61.0329 14.2231 60.9817 14.0893 60.9817 14.0893ZM63.0704 13.9056C63.0014 13.8899 62.934 13.868 62.869 13.84C62.8273 13.9534 62.7167 14.2292 62.5863 14.3733C62.5863 14.3733 62.7344 14.0756 62.8212 13.8189C62.6752 13.7507 62.54 13.6617 62.4197 13.5546C62.4026 13.8052 62.1356 13.6707 62.1356 13.6707C62.0025 13.9213 62.2517 13.9896 62.2517 13.9896C62.4531 13.9725 62.5528 13.8551 62.5528 13.8551C62.7863 13.8059 62.6197 13.9896 62.6197 13.9896C62.5357 14.0722 62.3528 14.1056 62.3528 14.1056C62.1022 14.1896 62.2353 14.3897 62.2353 14.3897C62.3685 14.5741 62.5023 14.5071 62.5023 14.5071C62.6197 14.5228 62.6197 14.6068 62.6197 14.6068C62.7037 14.8069 62.8369 14.6908 62.8369 14.6908C62.9878 14.5228 62.9038 14.3562 62.9038 14.3562C62.8198 14.1391 62.8703 14.0565 62.8703 14.0565C62.8198 13.7554 62.9543 13.9725 62.9543 13.9725C62.9878 14.023 63.0212 14.1569 63.0212 14.1569C63.0704 14.2729 63.0881 14.1903 63.0881 14.1903L63.0704 13.9056ZM60.4648 12.4676L60.5645 12.2846C60.5488 12.0832 60.3474 11.9671 60.3474 11.9671C60.3139 12.034 60.3474 12.1167 60.3474 12.1167C60.247 11.9671 59.9466 11.8661 59.9466 11.8661C59.9131 11.95 59.9466 12.1167 59.9466 12.1167C59.7957 11.8326 59.4782 11.8169 59.4782 11.8169C59.4782 11.95 59.5451 12.034 59.5451 12.034C59.3949 11.9166 59.0938 11.95 59.0938 11.95C59.1443 12.2512 59.3949 12.4512 59.3949 12.4512L59.3614 12.5352C59.1777 12.4007 59.1279 12.5017 59.1279 12.5017C59.1115 12.5175 59.1279 12.5509 59.1279 12.5509C59.2276 12.7175 59.5956 12.8684 59.5956 12.8684C59.4952 12.9019 59.4618 12.9859 59.4618 12.9859C59.5956 13.2528 59.9964 13.2364 59.9964 13.2364C59.944 13.0543 59.9476 12.8607 60.0067 12.6806C59.9643 12.654 59.7376 12.5099 59.6625 12.4342C59.6625 12.4342 59.5956 12.3515 59.4625 12.2341L59.2283 12.0497C59.2283 12.0497 59.4126 12.1166 59.5458 12.2177C59.5458 12.2177 59.8455 12.4724 60.062 12.5844C60.2286 12.4239 60.4648 12.4676 60.4648 12.4676ZM67.2819 13.3375C67.3816 13.7547 67.314 14.3071 67.314 14.3071C69.1862 15.0247 72.3934 14.5898 72.3934 14.5898C72.928 14.5228 72.9457 14.4402 72.9457 14.4402C73.1458 14.4232 73.1123 14.1227 73.1123 14.1227C72.9949 13.9718 72.928 13.3703 72.928 13.3703C72.493 13.6209 70.0384 13.6878 70.0384 13.6878C68.0501 13.739 67.2819 13.3375 67.2819 13.3375ZM67.5154 13.5881L67.6998 13.6215L67.7995 13.9896L67.9995 13.7055L68.1661 13.7212L68.1504 13.7718V14.3064L68.1839 14.3733L67.9504 14.3399L67.9838 14.2893V14.0053L67.7667 14.2893L67.6158 13.9384V14.2559L67.4826 14.189L67.4984 14.1555L67.5154 13.67V13.5881ZM68.401 13.8387C68.117 14.1056 68.401 14.4068 68.401 14.4068C68.5676 14.5563 68.7847 14.4068 68.7847 14.4068C69.0353 14.0558 68.7677 13.8387 68.7677 13.8387C68.5171 13.7055 68.401 13.8387 68.401 13.8387ZM68.5847 13.8551C68.3006 13.9896 68.5007 14.29 68.5007 14.29C68.5676 14.4409 68.6673 14.3235 68.6673 14.3235C68.8018 14.1903 68.7008 13.9725 68.7008 13.9725C68.6673 13.8216 68.5847 13.8551 68.5847 13.8551ZM69.0183 13.8216H69.1528L69.3699 14.1227L69.3528 13.8878L69.3358 13.8387L69.5529 13.8544L69.5194 13.9049V14.473L69.5365 14.5222H69.4191L69.1856 14.1712V14.4061L69.2013 14.473L69.0347 14.4559L69.0504 14.3733L69.0674 13.8878L69.0183 13.8216ZM70.0718 13.8551H70.3053C70.5559 13.8551 70.6065 14.1896 70.6065 14.1896C70.6065 14.5563 70.2541 14.5406 70.2541 14.5406L70.0711 14.5235L70.1381 14.4744L70.121 13.9063L70.0718 13.8551ZM70.2719 13.939V14.4737C70.489 14.3897 70.4385 14.1391 70.4385 14.1391C70.3893 13.939 70.2719 13.939 70.2719 13.939ZM70.7225 13.8551L70.8222 13.8394C70.9567 13.7724 71.1233 13.8223 71.1233 13.8223C71.2899 14.0066 71.1063 14.1733 71.1063 14.1733L71.2572 14.4081C71.285 14.4152 71.309 14.4328 71.3241 14.4573C71.2415 14.4908 71.1909 14.4573 71.1909 14.4573C71.04 14.3576 71.0066 14.2238 71.0066 14.2238H70.924V14.4744L70.9397 14.5235H70.7731L70.7888 14.4744L70.7731 13.8892L70.7225 13.8551ZM70.924 14.1562V13.8878C70.9909 13.8209 71.04 13.9049 71.04 13.9049C71.124 14.0381 71.04 14.122 71.04 14.122C71.0066 14.1719 70.924 14.1562 70.924 14.1562ZM71.6587 13.739C71.9762 13.7219 71.9762 14.1391 71.9762 14.1391C71.9427 14.4737 71.6416 14.4737 71.6416 14.4737C71.3575 14.4402 71.3418 14.0899 71.3418 14.0899C71.391 13.7055 71.6587 13.739 71.6587 13.739ZM71.6587 13.8387C71.8253 13.8544 71.8096 14.1056 71.8096 14.1056C71.8253 14.3405 71.6587 14.3897 71.6587 14.3897C71.5747 14.4068 71.5412 14.29 71.5412 14.29C71.4415 13.9725 71.5747 13.8728 71.5747 13.8728C71.5924 13.8387 71.6587 13.8387 71.6587 13.8387ZM72.0758 13.7212L72.3094 13.7055L72.2759 13.7724L72.293 14.3562L72.3264 14.3897L72.1264 14.4068L72.1421 14.3733L72.1264 13.7718L72.0758 13.7212ZM72.4773 13.6707L72.493 13.8387L72.5436 13.7881L72.6276 13.7724V14.3071L72.6105 14.3562L72.7771 14.3228L72.7614 14.2723V13.7212H72.8775L72.8618 13.5881L72.8283 13.6038L72.5272 13.6707H72.4773ZM65.6445 12.9203C65.6486 12.9626 65.6555 13.0029 65.6643 13.0405C65.6716 13.036 65.6791 13.0319 65.6869 13.0282C65.7401 12.88 65.7108 12.8199 65.7108 12.8199L65.7599 12.7851C65.7825 12.8425 65.7599 12.9449 65.7429 13.005C65.7881 12.9907 65.8357 12.9858 65.8828 12.9906C65.9047 12.913 65.9142 12.8323 65.9108 12.7517L65.6705 12.7223C65.6165 12.8104 65.6445 12.9203 65.6445 12.9203ZM65.6855 13.1163C65.7272 13.2446 65.792 13.343 65.8644 13.4188C65.9416 13.36 65.9245 13.1347 65.9149 13.0507C65.8328 13.0418 65.7505 13.0654 65.6855 13.1163ZM65.902 13.4563C65.9805 13.528 66.0617 13.5765 66.1286 13.6072C66.163 13.521 66.1759 13.4277 66.1662 13.3355C66.0713 13.3355 65.9716 13.3675 65.93 13.3805C65.9204 13.416 65.9081 13.4413 65.902 13.4563ZM66.1833 13.6297C66.2311 13.6482 66.2618 13.655 66.2618 13.655C66.3205 13.6632 66.3683 13.6618 66.41 13.655L66.3977 13.5027C66.3444 13.5 66.2509 13.5464 66.2058 13.5724L66.1833 13.6297ZM66.4632 13.6413C66.5051 13.626 66.5421 13.5997 66.5704 13.5653C66.5988 13.5308 66.6174 13.4894 66.6244 13.4454C66.5738 13.4265 66.519 13.4217 66.466 13.4317L66.4632 13.6413ZM66.6298 13.3785C66.6244 13.1518 66.5513 12.9947 66.4523 12.8821C66.4646 12.9244 66.5069 13.0835 66.4803 13.1832L66.5629 13.1525L66.5786 13.203L66.4625 13.2173C66.4692 13.2719 66.4678 13.3271 66.4584 13.3812C66.5458 13.3532 66.6032 13.3669 66.6298 13.3785ZM66.41 12.8384C66.3472 12.7813 66.2754 12.735 66.1976 12.7011C66.2113 12.7209 66.2522 12.796 66.2468 12.9067C66.2943 12.87 66.3505 12.8465 66.41 12.8384ZM66.1007 12.6643C66.0232 12.6391 65.9429 12.624 65.8617 12.6192C65.8031 12.6232 65.7475 12.6462 65.7033 12.6847L65.9484 12.7018L66.1007 12.6643ZM65.9566 12.7599C65.9689 12.824 65.9818 12.8828 65.9593 12.9401C66.0849 12.8923 66.1662 12.9162 66.1969 12.9292C66.1999 12.857 66.1828 12.7854 66.1478 12.7223L65.9566 12.7599ZM66.2604 12.9879C66.2827 13.0633 66.2794 13.144 66.2509 13.2173C66.343 13.175 66.4004 13.1784 66.4311 13.188C66.4438 13.101 66.4318 13.0123 66.3963 12.9319C66.3455 12.9326 66.2969 12.9526 66.2604 12.9879ZM66.2283 13.287C66.2461 13.3627 66.2442 13.4416 66.2229 13.5164C66.3096 13.4228 66.3881 13.4201 66.4079 13.4201C66.4318 13.3867 66.4345 13.2788 66.4318 13.2508C66.3624 13.2514 66.2937 13.2636 66.2283 13.287ZM66.2031 13.0173C66.1193 12.9925 66.0295 12.9986 65.9498 13.0343C65.9641 13.1477 65.9593 13.2412 65.9457 13.3116C66.0194 13.2728 66.1032 13.2571 66.186 13.2665C66.2148 13.1866 66.2207 13.1003 66.2031 13.0173ZM62.0687 7.95702L61.7847 7.05504L61.9342 6.65424L62.1022 7.30563L61.9513 7.23872C62.0687 7.75628 62.4859 7.48931 62.4859 7.48931C62.6703 7.28925 62.5016 7.22233 62.5016 7.22233C62.2858 7.10489 62.251 7.23872 62.251 7.23872C62.1015 6.67063 62.4859 6.88776 62.4859 6.88776C62.4688 6.51973 62.619 6.48695 62.619 6.48695C62.8191 6.55387 62.8191 6.87137 62.8191 6.87137C63.0362 6.52041 63.1714 6.88776 63.1714 6.88776C63.1871 6.93828 63.1544 7.03797 63.1544 7.03797C62.8874 6.93828 62.8546 7.22233 62.8546 7.22233C62.8198 7.40601 63.1544 7.45585 63.1544 7.45585C63.5559 7.33909 63.5559 6.90415 63.5559 6.90415C63.4384 6.92122 63.2384 7.10421 63.2384 7.10421V6.35244C63.338 6.53612 63.5893 6.63649 63.5893 6.63649C63.5388 6.3026 63.3544 6.11892 63.3544 6.11892L64.057 6.10254C63.8221 6.31967 63.8399 6.63717 63.8399 6.63717C64.04 6.6044 64.1397 6.40365 64.1397 6.40365L64.1567 7.05504C64.0058 6.82153 63.8556 6.9219 63.8556 6.9219C63.7887 7.42239 64.2236 7.43946 64.2236 7.43946C64.5234 7.43946 64.5411 7.18887 64.5411 7.18887C64.4742 6.88844 64.2728 7.05504 64.2728 7.05504C64.1902 6.55387 64.5568 6.771 64.5568 6.771C64.4237 6.43711 64.6565 6.31967 64.6565 6.31967C64.9419 6.48695 64.8074 6.771 64.8074 6.771C65.1925 6.57094 65.1249 7.05504 65.1249 7.05504C64.7583 6.88776 64.8074 7.27218 64.8074 7.27218C64.9754 7.67298 65.3086 7.37186 65.3086 7.37186C65.3755 7.27217 65.3926 7.1718 65.3926 7.1718L65.2417 7.20526L65.3926 6.6877L65.5257 6.95535L65.6254 6.67131L65.7094 6.771L65.2239 7.99048C63.7559 7.65659 62.0687 7.95702 62.0687 7.95702ZM64.5575 7.7235C64.4749 7.70712 64.3909 7.67298 64.408 7.63952C64.408 7.58968 64.4749 7.57261 64.5746 7.58968C64.6572 7.60606 64.7412 7.63952 64.7255 7.67298C64.7255 7.72351 64.6572 7.73989 64.5575 7.7235ZM62.7529 7.73989C62.8369 7.72351 62.9038 7.69005 62.9038 7.64021C62.9038 7.60675 62.8198 7.59036 62.7372 7.60675C62.6375 7.60675 62.5706 7.65659 62.5706 7.69005C62.5706 7.72351 62.6532 7.75696 62.7529 7.73989ZM63.6719 7.406L63.9068 7.60675L63.6719 7.75696L63.4562 7.60675L63.6719 7.406ZM66.8135 10.0286C66.8292 9.79513 66.963 9.52815 66.963 9.52815L66.7684 9.31922L66.7015 9.43938C66.7377 9.47352 66.763 9.52337 66.763 9.578C66.763 9.65379 66.7152 9.7207 66.6551 9.7487L66.6394 9.81971L66.8135 10.0286ZM66.7152 9.26254L66.2283 8.74293C65.8951 8.25814 65.6602 8.49234 65.6602 8.49234L65.4267 8.57632C65.6111 8.69308 65.7108 8.89383 65.7108 8.89383C65.9108 8.86037 65.9279 8.96074 65.9279 8.96074L66.4455 9.58687V9.57868C66.4455 9.47831 66.5124 9.39501 66.5964 9.39501C66.6148 9.39501 66.6353 9.3991 66.6524 9.4073L66.7152 9.26254Z" fill="white" style="fill:white;fill-opacity:1;"/>
<path fill-rule="evenodd" clip-rule="evenodd" d="M66.0279 9.19277C65.9105 9.05963 65.8279 8.95925 65.7773 9.00909C65.7773 9.00909 65.9282 9.29314 66.0443 9.64342C66.1283 9.89401 66.1952 10.1781 66.1788 10.445L66.4281 10.4621L66.4936 10.4703L66.4711 10.3419C66.3994 10.3276 66.3454 10.2511 66.3454 10.1617C66.3454 10.0442 66.4123 9.96024 66.4963 9.96024C66.5004 9.96024 66.5059 9.96024 66.51 9.96161L66.5407 9.81753C66.4991 9.76837 66.4567 9.71511 66.4123 9.66049C66.3454 9.5765 66.2614 9.49252 66.1952 9.40922C66.1454 9.3266 66.0771 9.25969 66.0279 9.19277ZM66.5612 10.4785L66.8295 10.5133C66.8295 10.5133 66.7456 10.3788 66.7961 10.1282L66.6186 9.91517L66.5988 10.006C66.6195 10.0265 66.6359 10.0509 66.6469 10.0779C66.658 10.1049 66.6634 10.1339 66.6629 10.163C66.6626 10.1998 66.6516 10.2356 66.6312 10.2661C66.6108 10.2967 66.582 10.3206 66.5482 10.3351L66.5612 10.4785Z" fill="white" style="fill:white;fill-opacity:1;"/>
<path fill-rule="evenodd" clip-rule="evenodd" d="M64.8398 12.6185C64.9573 12.7851 65.3082 12.7359 65.3082 12.7359C65.3588 12.7024 65.3417 12.5024 65.3417 12.5024C65.3082 12.3849 65.326 12.318 65.326 12.318C65.4086 12.3337 65.4257 12.4341 65.4257 12.4341C65.4257 12.4676 65.3752 12.6355 65.3752 12.6355C65.7432 12.4006 65.4257 11.95 65.4257 11.95C65.5097 11.4816 65.6257 11.3662 65.6257 11.3662C66.0095 11.0316 66.2109 11.1491 66.2109 11.1491C66.5441 11.1491 67.0965 11.3334 67.0965 11.3334C67.3123 11.4003 68.0818 11.5335 68.0818 11.5335C68.0909 11.4836 68.1141 11.4374 68.1487 11.4003C68.3658 11.2494 68.5154 10.5311 68.5154 10.5311C68.5154 10.4151 68.5659 10.4642 68.5659 10.4642C68.5993 10.5974 68.583 10.6486 68.583 10.6486C68.6164 10.8992 68.415 11.3498 68.415 11.3498C68.8165 11.5833 69.502 11.5342 69.502 11.5342C69.9861 11.5342 70.3699 11.2836 70.3699 11.2836C70.8205 11.0835 71.3886 11.1327 71.3886 11.1327L71.3729 11.033C70.9557 10.8486 71.2397 10.6315 71.2397 10.6315L71.0718 10.398C70.6211 10.3645 69.218 9.62985 69.218 9.62985C68.0149 8.96138 67.3805 9.07814 67.3805 9.07814C66.8616 9.62984 66.9456 10.5489 66.9456 10.5489L67.2453 10.5824C67.2296 9.94735 67.6134 9.61277 67.6134 9.61277C67.7308 9.56293 67.6468 9.69676 67.6468 9.69676C67.2296 10.314 67.3962 10.749 67.3962 10.749C67.2119 10.665 66.1092 10.6158 66.1092 10.6158C66.0194 10.5918 65.9256 10.5868 65.8338 10.601C65.742 10.6152 65.6542 10.6484 65.5759 10.6984C65.3745 10.8664 65.2919 11.1334 65.2919 11.1334L65.0747 11.8858C64.8569 12.3515 64.8398 12.6185 64.8398 12.6185ZM69.502 10.6636C69.4351 11.0146 69.218 11.3997 69.218 11.3997C69.2514 11.5157 69.3846 11.3327 69.3846 11.3327C69.5355 11.0644 69.5846 10.6964 69.5846 10.6964C69.5512 10.4144 69.502 10.6636 69.502 10.6636ZM68.9496 10.4301C68.867 10.9477 68.6164 11.2822 68.6164 11.2822C68.5659 11.4154 68.7161 11.3157 68.7161 11.3157C68.9332 11.0146 69.0001 10.4635 69.0001 10.4635C68.9831 10.3126 68.9496 10.4301 68.9496 10.4301ZM69.218 10.581C69.2009 10.9319 68.9005 11.3157 68.9005 11.3157C68.8335 11.4331 68.9831 11.3662 68.9831 11.3662C69.2514 11.1313 69.3006 10.5632 69.3006 10.5632C69.2671 10.3796 69.218 10.581 69.218 10.581ZM71.0554 11.2652C71.1736 11.2244 71.3001 11.2139 71.4234 11.2344L71.4596 11.4133C71.4224 11.4327 71.3915 11.462 71.3702 11.4981C71.349 11.5342 71.3383 11.5756 71.3394 11.6175C71.3394 11.7336 71.422 11.8332 71.5238 11.8332H71.5395V12.0934C71.3597 12.1509 71.1754 12.1929 70.9885 12.219C70.7044 12.2859 70.9045 12.4525 70.9045 12.4525C71.0554 12.5857 71.0888 12.7031 71.0888 12.7031C71.222 12.854 71.0049 12.9701 71.0049 12.9701C70.5542 13.0541 70.0523 13.5047 70.0523 13.5047C69.7014 13.5382 69.1845 13.489 69.1845 13.489C69.05 13.388 68.9496 13.1545 68.9496 13.1545C69.134 12.9879 69.3006 13.1879 69.3006 13.1879C69.4515 13.2719 69.7355 13.2384 69.7355 13.2384C69.9861 13.1053 70.3541 12.9373 70.3541 12.9373C70.4211 12.8882 70.5208 12.9039 70.5208 12.9039C70.6204 12.8704 70.5037 12.7864 70.5037 12.7864C70.3354 12.6683 70.1838 12.5279 70.053 12.3692C69.9199 12.1521 70.053 12.0517 70.053 12.0517C70.2531 11.8169 71.0554 11.2652 71.0554 11.2652ZM71.5265 11.2652C71.6352 11.3081 71.7276 11.384 71.7908 11.4823C71.8905 11.6994 71.8577 11.7506 71.8577 11.7506C71.8242 11.8175 71.8577 11.9507 71.8577 11.9507C71.7837 11.9959 71.7055 12.0339 71.6242 12.064V11.7971C71.6504 11.775 71.6714 11.7474 71.6857 11.7162C71.7 11.685 71.7072 11.6511 71.7068 11.6168C71.7068 11.5048 71.631 11.4072 71.5361 11.3997L71.5265 11.2652Z" fill="white" style="fill:white;fill-opacity:1;"/>
<path fill-rule="evenodd" clip-rule="evenodd" d="M75.1829 10.747C75.2669 10.396 75.1999 10.0123 75.1999 10.0123C75.0825 9.7617 74.9651 9.71117 74.9651 9.71117C74.9651 8.99355 74.5315 8.89318 74.5315 8.89318C74.5315 9.02701 74.6141 9.21068 74.6141 9.21068C74.6476 9.27759 74.5315 9.19361 74.5315 9.19361C74.5144 8.9601 74.2966 8.84265 74.2966 8.84265C74.13 8.74296 74.046 8.62552 74.046 8.62552C73.8617 8.92596 74.3471 9.24414 74.3471 9.24414C73.5947 9.21068 72.2919 9.47766 72.2919 9.47766C71.3728 9.69547 70.8546 9.37797 70.8546 9.37797C70.3213 9.12738 70.5214 8.64259 70.5214 8.64259C70.772 8.14141 71.323 8.19126 71.323 8.19126C71.5955 8.19895 71.8657 8.24398 72.126 8.32509C72.9276 8.54222 73.7797 8.29163 73.7797 8.29163C74.1969 8.09157 74.3307 7.67369 74.3307 7.67369C74.0801 7.85805 73.7292 7.82391 73.7292 7.82391C73.5134 8.02465 72.8101 8.05811 72.8101 8.05811C73.2785 7.87444 73.2622 7.69008 73.2622 7.69008C73.2956 7.57332 73.4779 7.42243 73.4779 7.42243C73.1939 7.47295 72.8607 7.73993 72.8607 7.73993C72.6606 7.89082 72.1417 7.89083 72.1417 7.89083C72.0591 7.92428 71.9082 7.87444 71.9082 7.87444C72.2414 7.77406 72.2591 7.64024 72.2591 7.64024C71.4739 7.42311 70.7884 7.9079 70.7884 7.9079C70.1199 8.4596 70.3213 9.01062 70.3213 9.01062C70.4374 9.54525 71.3892 9.71186 71.3892 9.71186C72.2748 9.76238 73.3284 9.61217 73.3284 9.61217C74.13 9.51248 74.3471 9.62924 74.3471 9.62924C74.4468 9.69616 74.3471 9.71186 74.3471 9.71186C73.8617 9.64494 73.7121 10.213 73.7121 10.213C74.0453 9.84569 74.4973 9.94606 74.4973 9.94606C74.58 9.96176 74.4973 9.97951 74.4973 9.97951C74.2625 9.94606 74.0959 10.097 74.0959 10.097C74.4134 10.297 74.6469 10.213 74.6469 10.213C74.7814 10.1796 74.8483 10.0464 74.8483 10.0464C75.0484 10.3462 75.0327 10.5811 74.948 10.7477C74.8305 10.9477 74.6134 11.0317 74.6134 11.0317C74.1293 11.1492 73.4438 10.8986 73.4438 10.8986C73.2437 10.7989 72.8928 10.8146 72.8928 10.8146C72.8422 10.7989 72.7596 10.7654 72.6927 10.7477C72.1915 10.5968 71.2554 10.4636 71.2554 10.4636L71.3394 10.5811C71.4725 10.6145 71.5394 10.6808 71.5565 10.7477C71.5722 10.8146 71.5394 10.8808 71.5394 10.8808C71.506 10.9648 71.4555 11.014 71.4555 11.014L71.5237 11.1485C72.0584 11.3151 71.9573 11.7835 71.9573 11.7835C72.0078 12.2007 72.2584 12.3673 72.2584 12.3673C72.8265 12.8684 73.411 12.7845 73.411 12.7845C73.6124 12.7845 73.6459 12.835 73.6459 12.835C73.8459 12.9524 73.8125 13.4871 73.8125 13.4871C73.8125 13.7042 73.7128 13.9377 73.7128 13.9377C73.7797 14.1043 74.1129 14.0217 74.1129 14.0217C74.1635 14.0046 74.1812 13.9377 74.1812 13.9377C74.2147 13.838 74.1307 13.7377 74.1307 13.7377C74.0972 13.6871 74.1307 13.7042 74.1307 13.7042C74.3478 13.8039 74.3307 14.0552 74.3307 14.0552C74.6653 13.6366 74.1976 13.3526 74.1976 13.3526C74.1307 13.3368 74.0802 13.3191 74.0802 13.3191C74.031 13.1033 74.0132 12.6684 74.0132 12.6684V12.5509L73.8466 12.3666C73.3782 12.484 73.045 12.3174 73.045 12.3174C73.0607 12.2177 73.0607 12.1003 73.0607 12.1003C73.0942 11.7992 72.9938 11.0638 72.9938 11.0638C73.127 11.1307 73.8965 11.2639 73.8965 11.2639C74.0795 11.3479 74.4475 11.3321 74.4475 11.3321C74.8824 11.4318 74.7486 11.7323 74.7486 11.7323C75.0996 11.4482 74.7978 11.2482 74.7978 11.2482C75.034 11.1642 75.1337 10.9641 75.1829 10.747ZM51.8434 10.9136C51.6931 10.5626 51.9267 10.112 51.9267 10.112C52.3609 9.42713 52.9625 9.25985 52.9625 9.25985C53.28 8.77574 53.7648 8.77574 53.7648 8.77574C53.6978 8.90957 53.5804 9.02633 53.5804 9.02633C53.8808 8.95941 54.1485 8.70882 54.1485 8.70882C54.1485 9.09324 53.7975 9.24346 53.7975 9.24346C55.0839 9.41074 56.838 9.21 56.838 9.21C57.557 9.09324 57.5229 8.42478 57.5229 8.42478C57.3727 7.82323 56.6209 8.17419 56.6209 8.17419C55.0334 9.09324 54.2653 7.87375 54.2653 7.87375C54.6497 8.02397 55.4014 8.02397 55.4014 8.02397C55.1174 7.90721 54.75 7.48934 54.75 7.48934C54.9842 7.5228 55.101 7.62317 55.101 7.62317C55.5018 7.8403 55.9531 7.79046 55.9531 7.79046C55.8193 7.64024 55.6022 7.38965 55.6022 7.38965C55.8698 7.50641 56.1368 7.50641 56.1368 7.50641C56.3041 7.5228 56.4372 7.53987 56.4372 7.53987C56.7213 7.58971 56.8715 7.53987 56.8715 7.53987C57.7236 7.62317 57.824 8.40839 57.824 8.40839C57.9073 9.41074 56.7547 9.49404 56.7547 9.49404C56.2863 9.62855 53.6972 9.59442 53.6972 9.59442C53.9648 9.71118 54.0317 9.96177 54.0317 9.96177C54.0816 10.0792 54.1485 10.1632 54.1485 10.1632C53.8808 10.1789 53.6139 9.82862 53.6139 9.82862C53.6978 9.99522 53.915 10.2458 53.915 10.2458C53.7648 10.3127 53.4473 9.92831 53.4473 9.92831C52.9461 9.51111 52.5118 9.94538 52.5118 9.94538C52.0434 10.312 52.1274 10.6295 52.1274 10.6295C52.1257 10.6824 52.1353 10.7351 52.1554 10.784C52.1755 10.833 52.2058 10.8771 52.2442 10.9136C52.4114 11.115 52.7119 11.0816 52.7119 11.0816C53.0294 11.0816 53.3469 10.9976 53.6139 10.9136C53.793 10.8648 53.9667 10.7978 54.1321 10.7135C54.1827 10.7136 54.233 10.7193 54.2823 10.7306C54.4325 10.6295 54.6504 10.6466 54.6504 10.6466C55.385 10.5797 57.4901 9.81018 57.4901 9.81018C57.7748 9.67704 58.2924 9.1424 58.2924 9.1424C58.4761 9.25916 58.5928 9.6941 58.5928 9.6941C58.6466 9.65726 58.6874 9.60448 58.7096 9.5432C58.81 9.91055 59.3112 10.1113 59.3112 10.1113C59.4614 10.127 59.5788 10.2779 59.5788 10.2779L59.6287 10.127C59.6956 10.2281 60.1968 10.579 60.715 10.9122C61.0669 11.1532 61.4234 11.3875 61.7843 11.6148C62.2349 11.1136 62.5524 11.4134 62.5524 11.4134C62.4855 11.4803 62.4015 11.4639 62.4015 11.4639C62.168 11.4469 62.0178 11.58 62.0178 11.58C62.5702 11.4974 62.6699 11.6811 62.6699 11.6811C62.7859 11.948 62.4015 12.0812 62.4015 12.0812C62.4015 11.7145 62.0506 11.7302 62.0506 11.7302C62.1221 11.7668 62.1829 11.8215 62.2268 11.8888C62.2708 11.9561 62.2964 12.0337 62.3011 12.114C62.1837 12.4315 61.8997 12.1822 61.8997 12.1822C61.8 12.1317 61.6491 11.9979 61.6491 11.9979C60.8318 11.9473 60.0458 11.3793 60.0458 11.3793L59.628 11.5636C59.4005 11.3918 59.2173 11.1683 59.0933 10.9115C59.0435 10.8289 59.01 10.762 59.01 10.762V10.9115C59.0606 11.1464 59.2101 11.3465 59.2101 11.3465C58.4918 12.1652 57.2054 11.4305 57.2054 11.4305C57.0552 11.3799 56.5868 11.1294 56.5868 11.1294C55.2505 11.1137 54.6319 12.3161 54.6319 12.3161L54.5315 12.4827C54.4319 13.2351 54.1977 13.2351 54.1977 13.2351C54.3144 12.9511 54.0311 12.8179 54.0311 12.8179C53.8303 12.8514 53.3626 12.8336 53.3626 12.8336C53.0622 13.3683 53.3121 13.7527 53.3121 13.7527C53.8965 13.737 53.646 14.2033 53.646 14.2033C53.5961 14.3542 53.4623 14.3542 53.4623 14.3542C53.4787 13.8701 53.028 13.9036 53.028 13.9036C53.4118 14.0545 53.3285 14.2873 53.3285 14.2873C53.2288 14.2702 53.1284 14.4382 53.1284 14.4382C52.5603 14.0873 52.6443 13.4195 52.6443 13.4195C52.7112 12.2662 52.9618 12.0484 52.9618 12.0484C53.0458 12.0149 53.0785 12.0655 53.0785 12.0655C53.3291 12.1829 53.663 12.0812 53.663 12.0812C53.7969 12.0477 53.8303 11.7814 53.8303 11.7814C53.9143 11.313 54.2311 10.945 54.2311 10.945C54.014 11.0461 52.7945 11.3636 52.7945 11.3636C52.2264 11.4967 52.0762 11.9808 52.0762 11.9808C51.7088 11.5302 52.2933 11.2796 52.2933 11.2796C52.0434 11.2147 51.8932 11.0816 51.8434 10.9136ZM58.3757 10.5299C58.5266 10.831 58.9773 11.2154 58.9773 11.2154C59.0271 11.2645 59.1111 11.3151 59.1111 11.3151C59.0776 11.3485 58.9943 11.3485 58.9943 11.3485C58.6099 11.1314 58.3593 10.6801 58.3593 10.6801C58.2753 10.5135 58.3757 10.5299 58.3757 10.5299ZM57.824 10.8801C58.0575 11.1642 58.1415 11.2311 58.1415 11.2311C58.3088 11.4325 58.5259 11.5322 58.5259 11.5322C58.0917 11.5322 57.824 11.0481 57.824 11.0481C57.7571 10.9136 57.7742 10.8637 57.7742 10.8637L57.824 10.8801ZM58.1081 10.663C58.2248 10.9976 58.726 11.3321 58.726 11.3321C58.8428 11.3656 58.81 11.4482 58.81 11.4482C58.7096 11.4653 58.6762 11.4148 58.6762 11.4148C58.2255 11.2639 58.0753 10.7641 58.0753 10.7641C57.9913 10.5804 58.1081 10.663 58.1081 10.663Z" fill="white" style="fill:white;fill-opacity:1;"/>
</svg>
