<svg width="120" height="25" viewBox="0 0 120 25" fill="none" xmlns="http://www.w3.org/2000/svg">
<path d="M12.5273 1.16156H25.1867V3.46251H20.2197V10.3873H17.4724V3.46251H12.5273V1.16156ZM25.1867 23.0096H14.7471V13.7839H17.4944V20.7087H25.1867V23.0096ZM35.5164 7.36317H31.5383V10.3654H28.7911V1.13965H36.0878C38.879 1.13965 40.2416 2.4983 40.2416 4.25141C40.2416 5.50049 39.4944 6.42088 38.1317 6.90298L40.9229 10.3873H37.846L35.5164 7.36317ZM31.5383 20.7087H39.3405V23.0096H28.7911V13.7839H39.1208V16.0849H31.5383V17.312H37.7361V19.3938H31.5383V20.7087ZM37.4065 4.29524C37.4065 3.74739 37.0548 3.46251 36.2197 3.46251H31.5603V5.14988H36.2197C37.0548 5.12796 37.4065 4.84308 37.4065 4.29524ZM52.2856 8.80948H46.4614L45.5603 10.3654H42.5933L48.1757 1.13965H50.6372L56.2197 10.3654H53.1867L52.2856 8.80948ZM46.2636 23.0096H43.5164V13.7839H46.2636V23.0096ZM51.0109 6.6181L49.3625 3.76931L47.7142 6.6181H51.0109ZM60.3295 16.6765C58.2197 15.9534 57.0768 15.7781 55.6922 15.7781C53.9559 15.7781 53.5603 16.063 53.5603 16.4574C53.5603 16.7423 53.7801 16.8957 54.5054 16.9614L58.5054 17.312C61.2746 17.5531 62.2416 18.6707 62.2416 20.1608C62.2416 21.9359 60.3076 23.2507 56.3955 23.2507C54.6153 23.2507 52.2636 22.8781 50.1757 22.1988L51.6262 19.9417C53.6922 20.6868 55.6702 21.0374 57.0988 21.0374C58.9889 21.0374 59.4065 20.7525 59.4065 20.38C59.4065 20.0732 59.2087 19.854 58.3735 19.7883L54.4834 19.4158C51.846 19.1747 50.835 18.1886 50.835 16.6765C50.835 15.0987 52.3295 13.5867 56.2416 13.5867C57.9339 13.5867 59.7361 13.9154 61.6702 14.6166L60.3295 16.6765ZM63.4284 10.3873H60.9669L55.3845 1.16156H58.4614L62.2416 7.47274L66.0218 1.16156H69.0109L63.4284 10.3873ZM74.4394 18.8679V13.8058H77.1867V18.9775C77.1867 21.8044 75.2966 23.2288 71.4724 23.2288C67.6262 23.2288 65.7581 21.7825 65.7581 18.9775V13.8058H68.5054V18.8679C68.5054 20.2485 69.3625 20.8402 71.4944 20.8402C73.5823 20.8182 74.4394 20.2266 74.4394 18.8679ZM74.1317 8.08632H81.9339V10.3873H71.3845V1.16156H81.7142V3.46251H74.1317V4.68968H80.3295V6.7715H74.1317V8.08632ZM88.0658 20.0074H84.0878V23.0096H81.3405V13.7839H88.6372C91.4284 13.7839 92.7911 15.1426 92.7911 16.8957C92.7911 18.1448 92.0438 19.0651 90.6812 19.5472L93.4724 23.0315H90.3955L88.0658 20.0074ZM89.9339 16.9176C89.9339 16.3697 89.5823 16.0849 88.7471 16.0849H84.0878V17.7722H88.7471C89.6043 17.7722 89.9339 17.4654 89.9339 16.9176ZM96.5493 10.3873H86.1098V1.16156H88.857V8.08632H96.5493V10.3873ZM99.6702 20.7087H107.472V23.0096H96.923V13.7839H107.253V16.0849H99.6702V17.312H105.868V19.3938H99.6702V20.7087ZM98.879 4.62395H101.978V1.92855H104.176V4.62395H107.253V6.70576H104.154V9.40115H101.956V6.70576H98.857V4.62395H98.879Z" fill="black" style="fill:black;fill-opacity:1;"/>
</svg>
