<svg width="25" height="26" viewBox="0 0 25 26" fill="none" xmlns="http://www.w3.org/2000/svg">
<path d="M12.2727 2.71001C15.5519 2.71001 15.9401 2.72443 17.2298 2.78191C18.4283 2.83468 19.0755 3.03606 19.5069 3.20389C20.0775 3.42439 20.4897 3.69285 20.9164 4.11953C21.3478 4.55092 21.6116 4.95848 21.8321 5.52895C21.9998 5.96044 22.2012 6.61243 22.2539 7.80606C22.3114 9.10052 22.3258 9.48885 22.3258 12.7631C22.3258 16.0423 22.3114 16.4306 22.2539 17.7202C22.2012 18.9187 21.9998 19.5659 21.8321 19.9974C21.6116 20.5679 21.3431 20.9801 20.9164 21.4068C20.4849 21.8383 20.0775 22.1019 19.5069 22.3224C19.0755 22.4903 18.4235 22.6915 17.2298 22.7443C15.9354 22.8019 15.5471 22.8162 12.2727 22.8162C8.99366 22.8162 8.60533 22.8019 7.31567 22.7443C6.11724 22.6915 5.46995 22.4903 5.03857 22.3224C4.46809 22.1019 4.05573 21.8335 3.62904 21.4068C3.19766 20.9753 2.934 20.5679 2.7134 19.9974C2.54567 19.5659 2.34429 18.9139 2.29152 17.7202C2.23404 16.4258 2.21962 16.0375 2.21962 12.7631C2.21962 9.48405 2.23404 9.09571 2.29152 7.80606C2.34429 6.60762 2.54567 5.96044 2.7134 5.52895C2.934 4.95848 3.20247 4.54611 3.62904 4.11953C4.06053 3.68804 4.46809 3.42439 5.03857 3.20389C5.46995 3.03606 6.12194 2.83468 7.31567 2.78191C8.60533 2.72443 8.99366 2.71001 12.2727 2.71001ZM12.2727 0.5C8.94088 0.5 8.52382 0.514421 7.21503 0.571898C5.91106 0.629477 5.01453 0.840364 4.23798 1.14238C3.42777 1.45881 2.74224 1.87587 2.06141 2.56141C1.37587 3.24214 0.958807 3.92777 0.642375 4.73317C0.340364 5.51453 0.129477 6.40625 0.0718978 7.71023C0.0144206 9.02382 0 9.44088 0 12.7727C0 16.1046 0.0144206 16.5216 0.0718978 17.8304C0.129477 19.1344 0.340364 20.0309 0.642375 20.8076C0.958807 21.6177 1.37587 22.3033 2.06141 22.984C2.74224 23.6648 3.42777 24.0866 4.23317 24.3983C5.01453 24.7003 5.90625 24.9112 7.21023 24.9687C8.51901 25.0262 8.93608 25.0406 12.2679 25.0406C15.5998 25.0406 16.0168 25.0262 17.3256 24.9687C18.6296 24.9112 19.5261 24.7003 20.3028 24.3983C21.1082 24.0866 21.7937 23.6648 22.4744 22.984C23.1552 22.3033 23.577 21.6177 23.8887 20.8123C24.1907 20.0309 24.4017 19.1392 24.4591 17.8352C24.5167 16.5264 24.531 16.1094 24.531 12.7775C24.531 9.44569 24.5167 9.02862 24.4591 7.71984C24.4017 6.41586 24.1907 5.51934 23.8887 4.74268C23.5866 3.92777 23.1696 3.24214 22.484 2.56141C21.8033 1.88068 21.1177 1.45881 20.3123 1.14718C19.5309 0.84517 18.6392 0.634284 17.3352 0.576704C16.0216 0.51442 15.6046 0.5 12.2727 0.5Z" fill="white" style="fill:white;fill-opacity:1;"/>
<path fill-rule="evenodd" clip-rule="evenodd" d="M19.4332 2.5459H5.11506C3.42055 2.5459 2.04688 3.91957 2.04688 5.61408V19.9323C2.04688 21.6268 3.42055 23.0004 5.11506 23.0004H19.4332C21.1278 23.0004 22.5014 21.6268 22.5014 19.9323V5.61408C22.5014 3.91957 21.1278 2.5459 19.4332 2.5459ZM12.272 6.46909C8.79152 6.46909 5.96777 9.29284 5.96777 12.7733C5.96777 16.2537 8.79152 19.0775 12.272 19.0775C15.7524 19.0775 18.5762 16.2537 18.5762 12.7733C18.5762 9.29284 15.7524 6.46909 12.272 6.46909ZM12.272 16.8626C10.014 16.8626 8.18269 15.0313 8.18269 12.7733C8.18269 10.5153 10.014 8.68401 12.272 8.68401C14.5299 8.68401 16.3612 10.5153 16.3612 12.7733C16.3612 15.0313 14.5299 16.8626 12.272 16.8626ZM18.8262 7.69141C19.6364 7.69141 20.298 7.03461 20.298 6.2196C20.298 5.4095 19.6364 4.74789 18.8262 4.74789C18.016 4.74789 17.3545 5.40469 17.3545 6.2196C17.3545 7.0298 18.0112 7.69141 18.8262 7.69141Z" fill="white" style="fill:white;fill-opacity:1;"/>
</svg>
