<svg width="25" height="26" viewBox="0 0 25 26" fill="none" xmlns="http://www.w3.org/2000/svg">
<mask id="mask0_1133_1080" style="mask-type:luminance" maskUnits="userSpaceOnUse" x="0" y="0" width="25" height="26">
<path d="M24.5455 0.5H0V25.0455H24.5455V0.5Z" fill="white" style="fill:white;fill-opacity:1;"/>
</mask>
<g mask="url(#mask0_1133_1080)">
<path d="M20.9118 4.14053C18.6096 1.83715 15.5481 0.567634 12.2866 0.566406C5.56551 0.566406 0.0956566 6.0338 0.093202 12.7549C0.0919747 14.9032 0.653452 17.0004 1.72036 18.8485L0.0664062 24.9799L6.45416 23.47C8.23513 24.4416 10.2395 24.953 12.2804 24.9543H12.2853C19.0052 24.9543 24.4749 19.4856 24.4786 12.7658C24.4811 9.50791 23.214 6.44515 20.9118 4.14053ZM18.2519 17.1115C17.9981 17.8231 16.7542 18.5091 16.1951 18.5591C15.6361 18.6104 15.1124 18.8119 12.5392 17.7974C9.44236 16.5768 7.4868 13.4018 7.33544 13.1991C7.18285 12.9953 6.0916 11.5476 6.0916 10.0486C6.0916 8.54961 6.8789 7.81233 7.15851 7.50837C7.43802 7.20319 7.76764 7.12751 7.97147 7.12751C8.17408 7.12751 8.37791 7.12751 8.55494 7.13487C8.77217 7.14346 9.01271 7.15441 9.24099 7.66096C9.51191 8.26396 10.104 9.77034 10.1796 9.92293C10.2553 10.0755 10.3066 10.2537 10.2053 10.4563C10.104 10.659 10.0527 10.7859 9.90136 10.9642C9.74877 11.1423 9.58155 11.3609 9.44482 11.4975C9.29222 11.6489 9.1335 11.815 9.31053 12.1189C9.48879 12.424 10.0991 13.4214 11.0048 14.2282C12.1694 15.2658 13.1495 15.5868 13.4547 15.7406C13.7599 15.8932 13.9368 15.8675 14.1151 15.6637C14.2934 15.4611 14.8768 14.7751 15.0794 14.4699C15.282 14.1647 15.486 14.216 15.7655 14.3173C16.045 14.4186 17.5428 15.1559 17.8467 15.3085C18.1519 15.4611 18.3545 15.5368 18.4302 15.6637C18.5059 15.7895 18.5059 16.3998 18.2519 17.1115Z" fill="white" style="fill:white;fill-opacity:1;"/>
</g>
</svg>
