<svg width="46" height="45" viewBox="0 0 46 45" fill="none" xmlns="http://www.w3.org/2000/svg">
<rect x="0.5" width="45" height="45" rx="22.5" fill="#0A4A7F" style="fill:#0A4A7F;fill:color(display-p3 0.0392 0.2902 0.4980);fill-opacity:1;"/>
<mask id="mask0_1060_2936" style="mask-type:luminance" maskUnits="userSpaceOnUse" x="12" y="12" width="22" height="21">
<path d="M33.2882 12.2139H12.7168V32.7853H33.2882V12.2139Z" fill="white" style="fill:white;fill-opacity:1;"/>
</mask>
<g mask="url(#mask0_1060_2936)">
<path d="M30.2419 15.265C28.3124 13.3345 25.7467 12.2706 23.0131 12.2695C17.3803 12.2695 12.796 16.8517 12.7939 22.4846C12.7929 24.2851 13.2635 26.0428 14.1577 27.5916L12.7715 32.7304L18.125 31.4649C19.6177 32.2792 21.2975 32.7078 23.008 32.7089H23.0121C28.644 32.7089 33.2281 28.1256 33.2312 22.4938C33.2333 19.7634 32.1714 17.1965 30.2419 15.265ZM28.0127 26.1359C27.7999 26.7323 26.7575 27.3072 26.2889 27.3492C25.8204 27.3921 25.3814 27.561 23.2249 26.7108C20.6294 25.6878 18.9905 23.0268 18.8636 22.857C18.7357 22.6861 17.8212 21.4728 17.8212 20.2165C17.8212 18.9602 18.481 18.3423 18.7153 18.0876C18.9496 17.8318 19.2259 17.7684 19.3967 17.7684C19.5665 17.7684 19.7373 17.7684 19.8857 17.7745C20.0677 17.7817 20.2693 17.7909 20.4607 18.2154C20.6877 18.7208 21.1839 19.9833 21.2473 20.1112C21.3108 20.2391 21.3537 20.3884 21.2689 20.5582C21.1839 20.7281 21.141 20.8344 21.0141 20.9838C20.8862 21.1332 20.7461 21.3163 20.6315 21.4308C20.5036 21.5577 20.3706 21.6969 20.5189 21.9516C20.6683 22.2073 21.1798 23.0432 21.9389 23.7194C22.9149 24.589 23.7364 24.858 23.9922 24.987C24.2479 25.1148 24.3962 25.0933 24.5456 24.9225C24.695 24.7527 25.184 24.1777 25.3538 23.922C25.5236 23.6662 25.6945 23.7092 25.9288 23.7941C26.1631 23.879 27.4183 24.4969 27.6731 24.6248C27.9289 24.7527 28.0987 24.8161 28.1621 24.9225C28.2255 25.0279 28.2255 25.5394 28.0127 26.1359Z" fill="white" style="fill:white;fill-opacity:1;"/>
</g>
</svg>
