<svg width="186" height="86" viewBox="0 0 186 86" fill="none" xmlns="http://www.w3.org/2000/svg">
<mask id="path-1-inside-1_840_7477" fill="white">
<path fill-rule="evenodd" clip-rule="evenodd" d="M186 15C186 6.71573 179.284 0 171 0H15C6.71573 0 0 6.71573 0 15V71C0 79.2843 6.71573 86 15 86H163.5C167.642 86 171 82.6421 171 78.5C171 74.3579 174.358 71 178.5 71C182.642 71 186 67.6421 186 63.5V15Z"/>
</mask>
<path d="M15 1H171V-1H15V1ZM1 71V15H-1V71H1ZM163.5 85H15V87H163.5V85ZM185 15V63.5H187V15H185ZM178.5 72C183.194 72 187 68.1944 187 63.5H185C185 67.0899 182.09 70 178.5 70V72ZM172 78.5C172 74.9101 174.91 72 178.5 72V70C173.806 70 170 73.8056 170 78.5H172ZM163.5 87C168.194 87 172 83.1944 172 78.5H170C170 82.0899 167.09 85 163.5 85V87ZM-1 71C-1 79.8366 6.16345 87 15 87V85C7.26802 85 1 78.732 1 71H-1ZM171 1C178.732 1 185 7.26801 185 15H187C187 6.16344 179.837 -1 171 -1V1ZM15 -1C6.16344 -1 -1 6.16345 -1 15H1C1 7.26802 7.26801 1 15 1V-1Z" fill="white" style="fill:white;fill-opacity:1;" mask="url(#path-1-inside-1_840_7477)"/>
<rect x="180" y="80" width="6" height="6" rx="2" fill="white" style="fill:white;fill-opacity:1;"/>
</svg>
