<svg width="91" height="100" viewBox="0 0 91 100" fill="none" xmlns="http://www.w3.org/2000/svg">
<path d="M64.0494 67.8075L63.965 67.8874L60.7087 64.8641L58.1178 62.4584L43.0156 48.4365V69.4872V73.0554V85.3142H45.6448V72.5279C50.3886 71.3905 54.7802 69.3175 58.6134 66.5151L63.9816 71.4993L64.0494 71.4351L64.1172 71.4993L82.4539 54.4744V85.3142H85.0831V48.4365L64.1338 67.8874L64.0494 67.8075ZM45.6448 68.8997V54.4744L55.9875 64.0771C52.8819 66.2483 49.3923 67.8989 45.6448 68.8997Z" fill="white" style="fill:white;fill-opacity:1;"/>
<path d="M67.642 57.0476C71.4631 51.268 73.7003 44.35 73.7188 36.9302C73.7691 16.6591 57.3689 0.151367 37.2032 0.151367C17.0375 0.151367 0.637271 16.6591 0.687616 36.9302C0.737578 57.0439 17.0901 73.4725 37.1105 73.5226C37.1415 73.5227 37.1723 73.5223 37.2032 73.5223V85.3142H39.8324V73.4274V69.9003V41.167L60.2765 60.5079L62.8257 62.9195L64.0475 64.0754L88.2626 41.167V85.3142H90.8919V35.0513L67.642 57.0476ZM37.2032 35.0513V70.0049C37.1752 70.0049 37.1472 70.0053 37.1192 70.0053C19.0183 69.9597 4.23375 55.1063 4.1887 36.9211C4.14329 18.5936 18.9711 3.66876 37.2032 3.66876C55.4353 3.66876 70.2631 18.5936 70.2177 36.9211C70.1972 45.1931 67.1263 52.775 62.0814 58.5882L37.2032 35.0513Z" fill="white" style="fill:white;fill-opacity:1;"/>
<path d="M15.4314 97.9887C14.1477 97.9887 13.1989 97.7127 12.5849 97.1607C11.9772 96.6026 11.6733 95.7468 11.6733 94.5933C11.6733 93.4584 11.9865 92.6212 12.6128 92.0817C13.2392 91.5359 14.2097 91.2631 15.5244 91.2631C17.7074 91.2631 18.8919 92.0352 19.0779 93.5794H18.2035C18.1229 93.0522 17.8624 92.6646 17.4221 92.4166C16.988 92.1623 16.3554 92.0352 15.5244 92.0352C14.4826 92.0352 13.726 92.2367 13.2547 92.6398C12.7896 93.0367 12.557 93.691 12.557 94.6026C12.557 95.5266 12.7865 96.1933 13.2454 96.6026C13.7043 97.0119 14.4454 97.2166 15.4686 97.2166C17.2423 97.2166 18.1849 96.6429 18.2965 95.4956H19.1803C19.1058 96.3142 18.7461 96.9344 18.1012 97.3561C17.4624 97.7778 16.5725 97.9887 15.4314 97.9887ZM26.0739 97.8491H21.3948V91.4026H22.2878V97.077H26.0739V97.8491ZM28.1188 95.5701V91.4026H29.0119V95.5701C29.0119 96.1406 29.17 96.5592 29.4863 96.8259C29.8088 97.0863 30.3204 97.2166 31.0212 97.2166C31.7281 97.2166 32.2429 97.0863 32.5654 96.8259C32.894 96.5592 33.0584 96.1406 33.0584 95.5701V91.4026H33.9421V95.5701C33.9421 96.3887 33.7002 96.9964 33.2165 97.3933C32.739 97.7902 32.0072 97.9887 31.0212 97.9887C30.0351 97.9887 29.3033 97.7933 28.8258 97.4026C28.3545 97.0057 28.1188 96.3949 28.1188 95.5701ZM41.0603 94.3701V94.491C41.8169 94.7452 42.1952 95.26 42.1952 96.0352C42.1952 96.6243 41.9967 97.0739 41.5998 97.384C41.2029 97.6941 40.6231 97.8491 39.8603 97.8491H36.4184V91.4026H39.6742C40.3936 91.4026 40.9455 91.5421 41.33 91.8212C41.7145 92.0941 41.9068 92.4879 41.9068 93.0026C41.9068 93.6352 41.6246 94.091 41.0603 94.3701ZM37.3021 92.1747V94.1096H39.7672C40.5796 94.1096 40.9858 93.7716 40.9858 93.0956C40.9858 92.4817 40.5331 92.1747 39.6277 92.1747H37.3021ZM37.3021 94.8817V97.077H39.8138C40.7998 97.077 41.2928 96.708 41.2928 95.9701C41.2928 95.6166 41.1564 95.3468 40.8835 95.1607C40.6169 94.9747 40.2293 94.8817 39.7207 94.8817H37.3021ZM53.0939 94.1096V91.4026H53.9869V97.8491H53.0939V94.8817H49.0102V97.8491H48.1172V91.4026H49.0102V94.1096H53.0939ZM60.0957 97.9887C58.7933 97.9887 57.8259 97.7127 57.1933 97.1607C56.5608 96.6088 56.2445 95.7592 56.2445 94.6119C56.2445 93.477 56.5608 92.6367 57.1933 92.091C57.8259 91.539 58.7933 91.2631 60.0957 91.2631C61.4042 91.2631 62.3747 91.5359 63.0073 92.0817C63.6398 92.6274 63.9561 93.4708 63.9561 94.6119C63.9561 95.7592 63.6398 96.6088 63.0073 97.1607C62.3747 97.7127 61.4042 97.9887 60.0957 97.9887ZM60.0957 97.2166C61.1313 97.2166 61.8848 97.0088 62.3561 96.5933C62.8336 96.1778 63.0724 95.5173 63.0724 94.6119C63.0724 93.7065 62.8367 93.0522 62.3654 92.6491C61.8941 92.2398 61.1375 92.0352 60.0957 92.0352C59.0538 92.0352 58.2972 92.2367 57.8259 92.6398C57.3608 93.0429 57.1282 93.7003 57.1282 94.6119C57.1282 95.5235 57.3639 96.1871 57.8352 96.6026C58.3127 97.0119 59.0662 97.2166 60.0957 97.2166ZM66.1366 95.5701V91.4026H67.0297V95.5701C67.0297 96.1406 67.1878 96.5592 67.5041 96.8259C67.8266 97.0863 68.3382 97.2166 69.039 97.2166C69.746 97.2166 70.2607 97.0863 70.5832 96.8259C70.9118 96.5592 71.0762 96.1406 71.0762 95.5701V91.4026H71.9599V95.5701C71.9599 96.3887 71.718 96.9964 71.2343 97.3933C70.7568 97.7902 70.025 97.9887 69.039 97.9887C68.0529 97.9887 67.3211 97.7933 66.8436 97.4026C66.3723 97.0057 66.1366 96.3949 66.1366 95.5701ZM77.0595 97.9887C76.0548 97.9887 75.3168 97.8119 74.8455 97.4584C74.3804 97.1049 74.1323 96.5406 74.1013 95.7654H74.9571C74.982 96.2863 75.1556 96.6584 75.4781 96.8817C75.8068 97.1049 76.337 97.2166 77.0688 97.2166C78.3339 97.2166 78.9664 96.829 78.9664 96.0538C78.9664 95.477 78.5695 95.1266 77.7757 95.0026L76.0269 94.7235C75.4378 94.6305 75.0037 94.4507 74.7246 94.184C74.4517 93.9173 74.3153 93.5483 74.3153 93.077C74.3153 92.4941 74.5416 92.0476 74.9944 91.7375C75.4533 91.4212 76.1075 91.2631 76.9571 91.2631C77.844 91.2631 78.5075 91.4274 78.9478 91.7561C79.3944 92.0786 79.6548 92.5933 79.7292 93.3003H78.8548C78.8052 92.8538 78.6285 92.5313 78.3246 92.3328C78.0269 92.1344 77.568 92.0352 76.9478 92.0352C75.7695 92.0352 75.1804 92.3763 75.1804 93.0584C75.1804 93.5483 75.5525 93.8522 76.2967 93.9701L78.0176 94.2398C79.2331 94.4135 79.8409 95.0119 79.8409 96.0352C79.8409 96.6615 79.6021 97.1452 79.1246 97.4863C78.6471 97.8212 77.9587 97.9887 77.0595 97.9887ZM87.2782 97.8491H82.1433V91.4026H87.2038V92.1747H83.0364V94.1096H86.9061V94.8817H83.0364V97.077H87.2782V97.8491Z" fill="white" style="fill:white;fill-opacity:1;"/>
</svg>
