<svg width="17" height="17" viewBox="0 0 17 17" fill="none" xmlns="http://www.w3.org/2000/svg">
<g clip-path="url(#clip0_673_13862)">
<path d="M13.6816 10.8355C12.7553 10.8355 11.9382 11.2768 11.4044 11.9526L6.45317 9.42057C6.51799 9.17881 6.56458 8.92902 6.56458 8.66613C6.56458 8.37995 6.50925 8.11051 6.43204 7.84833L11.3615 5.32793C11.8923 6.03433 12.7305 6.49603 13.6823 6.49603C15.2946 6.49603 16.5989 5.19178 16.5989 3.58091C16.5989 1.9715 15.2946 0.666504 13.6824 0.666504C12.0737 0.666504 10.768 1.9715 10.768 3.58088C10.768 3.84451 10.8146 4.09501 10.8801 4.33751L5.92958 6.86959C5.39506 6.19307 4.57651 5.7503 3.64875 5.7503C2.03789 5.7503 0.734375 7.05601 0.734375 8.66613C0.734375 10.2763 2.03792 11.5813 3.64875 11.5813C4.602 11.5813 5.43949 11.1181 5.97253 10.411L10.8997 12.9314C10.8225 13.1928 10.7665 13.4645 10.7665 13.7514C10.7665 15.3615 12.0722 16.6665 13.6809 16.6665C15.2932 16.6665 16.5974 15.3615 16.5974 13.7514C16.5982 12.1398 15.2939 10.8355 13.6816 10.8355Z" fill="white" style="fill:white;fill-opacity:1;"/>
</g>
<defs>
<clipPath id="clip0_673_13862">
<rect width="16" height="16" fill="white" style="fill:white;fill-opacity:1;" transform="translate(0.667969 0.666504)"/>
</clipPath>
</defs>
</svg>
