<svg width="36" height="36" viewBox="0 0 36 36" fill="none" xmlns="http://www.w3.org/2000/svg">
<g clip-path="url(#clip0_585_1206)">
<path d="M22.2727 35.1001C18.3444 35.1001 15.1484 31.9042 15.1484 27.9758C15.1484 24.0475 18.3444 20.8516 22.2727 20.8516C23.0778 20.8516 23.8486 20.9812 24.5639 21.2348C24.9343 21.3674 25.1281 21.7749 24.9956 22.1453C24.8631 22.5158 24.4542 22.7081 24.0851 22.5771C23.5237 22.3776 22.9153 22.2764 22.2727 22.2764C19.1295 22.2764 16.5733 24.8326 16.5733 27.9758C16.5733 31.1191 19.1295 33.6753 22.2727 33.6753C25.4159 33.6753 27.9721 31.1191 27.9721 27.9758C27.9721 27.3332 27.871 26.7248 27.6715 26.1634C27.5404 25.793 27.7328 25.3855 28.1032 25.2529C28.4751 25.1219 28.8812 25.3142 29.0137 25.6847C29.2673 26.3999 29.397 27.1708 29.397 27.9758C29.397 31.9042 26.201 35.1001 22.2727 35.1001Z" fill="white" stroke="white" style="fill:white;fill-opacity:1;stroke:white;stroke-opacity:1;"/>
<path d="M22.2716 30.8255C20.7 30.8255 19.4219 29.5474 19.4219 27.9758C19.4219 27.2164 19.7182 26.4997 20.2568 25.9611C20.5347 25.6832 20.9864 25.6832 21.2642 25.9611C21.5421 26.2389 21.5421 26.6906 21.2642 26.9684C20.9949 27.2392 20.8467 27.5968 20.8467 27.9758C20.8467 28.7609 21.4865 29.4007 22.2716 29.4007C22.6506 29.4007 23.0082 29.2525 23.279 28.9832C23.5568 28.7053 24.0085 28.7053 24.2863 28.9832C24.5642 29.261 24.5642 29.7127 24.2863 29.9906C23.7477 30.5292 23.031 30.8255 22.2716 30.8255Z" fill="white" stroke="white" style="fill:white;fill-opacity:1;stroke:white;stroke-opacity:1;"/>
<path d="M22.2714 28.6881C22.089 28.6881 21.9066 28.6183 21.767 28.4801C21.4891 28.2022 21.4891 27.7506 21.767 27.4727L26.754 22.4857C27.0318 22.2079 27.4835 22.2079 27.7613 22.4857C28.0392 22.7636 28.0392 23.2153 27.7613 23.4931L22.7744 28.4801C22.6361 28.6183 22.4538 28.6881 22.2714 28.6881Z" fill="white" stroke="white" style="fill:white;fill-opacity:1;stroke:white;stroke-opacity:1;"/>
<path d="M30.8214 23.7011H27.2593C26.866 23.7011 26.5469 23.3819 26.5469 22.9887V19.4265C26.5469 19.237 26.6224 19.0561 26.7549 18.9221L30.317 15.36C30.5208 15.1548 30.8271 15.0936 31.0936 15.2061C31.36 15.3158 31.5339 15.5766 31.5339 15.8644V18.7141H34.3836C34.6714 18.7141 34.9321 18.8879 35.0419 19.1544C35.153 19.4208 35.0917 19.7272 34.888 19.9309L31.3258 23.4931C31.1919 23.6256 31.0109 23.7011 30.8214 23.7011ZM27.9717 22.2762H30.5265L32.6638 20.139H30.8214C30.4282 20.139 30.109 19.8198 30.109 19.4265V17.5842L27.9717 19.7215V22.2762Z" fill="white" stroke="white" style="fill:white;fill-opacity:1;stroke:white;stroke-opacity:1;"/>
<path d="M13.7218 24.0003C13.5395 24.0003 13.3571 23.9305 13.2174 23.7923L8.1307 18.7056C7.86283 18.4377 7.85143 18.0088 8.10363 17.7267L14.97 10.0325C15.0142 9.96695 15.074 9.90568 15.141 9.85296C20.0254 4.25756 27.6156 0.775212 34.3979 0.903449C34.7798 0.911998 35.0861 1.21977 35.0947 1.6002C35.1702 5.17374 34.2526 8.98523 32.4373 12.62C32.262 12.9734 31.836 13.1187 31.4827 12.9392C31.1307 12.7639 30.9868 12.3365 31.1635 11.9845C32.7579 8.79145 33.6185 5.46868 33.6727 2.32688C27.4902 2.43517 20.5355 5.8021 16.1569 10.8603C16.127 10.8945 16.0942 10.9273 16.0572 10.9544L9.61683 18.1741L14.2262 22.7835C14.5041 23.0614 14.5041 23.5131 14.2262 23.7909C14.0866 23.9305 13.9042 24.0003 13.7218 24.0003Z" fill="white" stroke="white" style="fill:white;fill-opacity:1;stroke:white;stroke-opacity:1;"/>
<path d="M10.2166 17.1638C10.1838 17.1638 10.1496 17.1624 10.1154 17.1567L3.29462 16.1792C3.02675 16.1408 2.80305 15.9541 2.71898 15.6962C2.63491 15.4397 2.70331 15.1562 2.89566 14.9667C6.27684 11.5855 10.8962 9.67334 15.6168 9.67334C16.01 9.67334 16.3292 9.99251 16.3292 10.3858C16.3292 10.779 16.01 11.0982 15.6168 11.0982C11.7397 11.0982 7.93538 12.4988 4.98165 14.9809L10.3177 15.7461C10.7067 15.8031 10.9774 16.1621 10.9219 16.5525C10.8692 16.9073 10.5642 17.1638 10.2166 17.1638Z" fill="white" stroke="white" style="fill:white;fill-opacity:1;stroke:white;stroke-opacity:1;"/>
<path d="M25.31 14.2486C24.3967 14.2486 23.4848 13.9009 22.7909 13.207C21.403 11.8178 21.403 9.55799 22.7909 8.16876C24.1801 6.77952 26.4399 6.77952 27.8291 8.16876C29.217 9.55799 29.217 11.8178 27.8291 13.207C27.1338 13.9024 26.2219 14.2486 25.31 14.2486ZM25.31 8.55204C24.7629 8.55204 24.2143 8.76007 23.7982 9.17613C22.9661 10.0097 22.9661 11.3661 23.7982 12.1997C24.6318 13.0318 25.9882 13.0304 26.8218 12.1997C27.6539 11.3661 27.6539 10.0097 26.8218 9.17613C26.4043 8.7615 25.8571 8.55204 25.31 8.55204Z" fill="white" style="fill:white;fill-opacity:1;"/>
<path d="M27.3247 12.7041H27.339M25.31 14.2486C24.3967 14.2486 23.4848 13.9009 22.7909 13.207C21.403 11.8178 21.403 9.55799 22.7909 8.16876C24.1801 6.77952 26.4399 6.77952 27.8291 8.16876C29.217 9.55799 29.217 11.8178 27.8291 13.207C27.1338 13.9024 26.2219 14.2486 25.31 14.2486ZM25.31 8.55204C24.7629 8.55204 24.2143 8.76007 23.7982 9.17613C22.9661 10.0097 22.9661 11.3661 23.7982 12.1997C24.6318 13.0318 25.9882 13.0304 26.8218 12.1997C27.6539 11.3661 27.6539 10.0097 26.8218 9.17613C26.4043 8.7615 25.8571 8.55204 25.31 8.55204Z" stroke="white" style="stroke:white;stroke-opacity:1;"/>
<path d="M1.61117 35.1C1.42452 35.1 1.24356 35.0274 1.10677 34.892C0.921542 34.7068 0.853149 34.4346 0.928666 34.1838C1.16234 33.4044 3.25545 26.5167 4.78005 24.9921C6.497 23.2752 9.28972 23.2737 11.0081 24.9921C12.725 26.7091 12.725 29.5032 11.0081 31.2201C9.4835 32.7447 2.59575 34.8379 1.81635 35.0715C1.74796 35.0901 1.67957 35.1 1.61117 35.1ZM7.89478 25.1275C7.13106 25.1275 6.36876 25.4181 5.78742 25.9981C4.96528 26.8216 3.59742 30.4992 2.69406 33.3047C5.49818 32.4014 9.17715 31.0335 9.99929 30.2113C11.1606 29.0501 11.1606 27.1593 9.99929 25.9981C9.41938 25.4181 8.65708 25.1275 7.89478 25.1275Z" fill="white" stroke="white" style="fill:white;fill-opacity:1;stroke:white;stroke-opacity:1;"/>
</g>
<defs>
<clipPath id="clip0_585_1206">
<rect width="36" height="36" fill="white" style="fill:white;fill-opacity:1;"/>
</clipPath>
</defs>
</svg>
