<svg width="36" height="36" viewBox="0 0 36 36" fill="none" xmlns="http://www.w3.org/2000/svg">
<g clip-path="url(#clip0_585_1255)">
<path d="M33.5996 13.4984H31.1924C30.5578 13.5014 29.9501 13.7548 29.5015 14.2034C29.0528 14.6521 28.7994 15.2598 28.7964 15.8944V16.4905H26.198L23.4983 14.6233C22.9058 14.227 22.2089 14.0156 21.4961 14.0158H17.3903C16.8502 14.0147 16.3168 14.1355 15.8299 14.3692C15.343 14.6029 14.9151 14.9436 14.5782 15.3657L13.7345 16.4118H7.19911V15.8156C7.17589 15.1949 6.91359 14.6071 6.46707 14.1753C6.02054 13.7434 5.42435 13.5009 4.80315 13.4984H2.39595C1.76335 13.5013 1.15733 13.7532 0.708958 14.1994C0.260586 14.6457 0.00590544 15.2505 0 15.8831V30.2813C0.0175166 30.906 0.277308 31.4995 0.724441 31.9361C1.17157 32.3727 1.771 32.6184 2.39595 32.621H4.80315C5.42811 32.6184 6.02753 32.3727 6.47467 31.9361C6.9218 31.4995 7.18159 30.906 7.19911 30.2813V29.6739H9.74129L15.0169 34.9495C15.6606 35.588 16.5203 35.9619 17.4262 35.9973C18.3322 36.0327 19.2185 35.727 19.91 35.1407L24.7469 30.945C25.1529 30.5972 25.4758 30.1629 25.6918 29.6739H28.7964V30.2813C28.8139 30.906 29.0737 31.4995 29.5209 31.9361C29.968 32.3727 30.5674 32.6184 31.1924 32.621H33.5883C34.2152 32.6213 34.8175 32.377 35.2671 31.94C35.7166 31.5031 35.978 30.908 35.9955 30.2813V15.8831C35.9896 15.2505 35.735 14.6457 35.2866 14.1994C34.8382 13.7532 34.2322 13.5013 33.5996 13.4984ZM4.80315 30.2813H2.39595V15.8831H4.80315V30.2813ZM23.2284 29.1565L18.3352 33.3072C18.1046 33.503 17.8088 33.6047 17.5065 33.5922C17.2043 33.5797 16.9178 33.4539 16.7042 33.2397L11.0799 27.6154C10.8554 27.3929 10.5523 27.2676 10.2362 27.2667H7.19911V18.864H11.8223L10.5062 20.5175C10.4072 20.642 10.3339 20.7849 10.2905 20.938C10.247 21.091 10.2344 21.2511 10.2532 21.409C10.272 21.567 10.322 21.7196 10.4001 21.8582C10.4783 21.9967 10.5832 22.1183 10.7087 22.2161L12.2722 23.4084C12.9363 23.9231 13.7591 24.1901 14.5989 24.1634C15.4387 24.1367 16.2428 23.818 16.8729 23.2622L18.549 21.7774L23.3971 27.4017C23.4999 27.522 23.578 27.6614 23.6269 27.812C23.6757 27.9625 23.6944 28.1212 23.6819 28.279C23.6694 28.4367 23.6258 28.5905 23.5538 28.7314C23.4818 28.8723 23.3826 28.9977 23.2621 29.1002L23.2284 29.1565ZM28.8527 27.3005H25.8718C25.7524 26.7791 25.518 26.291 25.1856 25.8719L19.5613 19.2914C19.457 19.1709 19.3299 19.0722 19.1871 19.0012C19.0444 18.9302 18.889 18.8882 18.7299 18.8777C18.5709 18.8673 18.4113 18.8885 18.2605 18.9402C18.1097 18.9919 17.9707 19.0731 17.8515 19.179L15.2644 21.4287C15.0489 21.606 14.7785 21.703 14.4995 21.703C14.2204 21.703 13.95 21.606 13.7345 21.4287L13.1496 20.9787L16.4455 16.873C16.5577 16.7332 16.6998 16.6202 16.8614 16.5424C17.0229 16.4645 17.1998 16.4238 17.3791 16.4231H21.4961C21.7324 16.4239 21.9632 16.4943 22.1598 16.6255L25.1519 18.6278C25.3484 18.759 25.5792 18.8294 25.8155 18.8303H28.7964L28.8527 27.3005ZM33.6558 30.3038H31.1924V15.8831H33.5883L33.6558 30.3038Z" fill="white" style="fill:white;fill-opacity:1;"/>
<path d="M22.4979 11.2487L20.2482 10.45C20.3386 10.1935 20.3843 9.92335 20.3832 9.65137C20.3832 9.01443 20.1301 8.40358 19.6798 7.9532C19.2294 7.50281 18.6185 7.24979 17.9816 7.24979C17.3447 7.24979 16.7338 7.50281 16.2834 7.9532C15.833 8.40358 15.58 9.01443 15.58 9.65137C15.5789 9.92335 15.6246 10.1935 15.715 10.45L13.499 11.2487C13.2276 10.5221 13.1362 9.74065 13.2325 8.97107C13.3289 8.20148 13.6102 7.46668 14.0523 6.82948C14.4945 6.19228 15.0844 5.67163 15.7716 5.31205C16.4588 4.95247 17.2229 4.76465 17.9985 4.76465C18.7741 4.76465 19.5381 4.95247 20.2253 5.31205C20.9125 5.67163 21.5024 6.19228 21.9446 6.82948C22.3868 7.46668 22.6681 8.20148 22.7644 8.97107C22.8608 9.74065 22.7693 10.5221 22.4979 11.2487Z" fill="white" style="fill:white;fill-opacity:1;"/>
<path d="M33.6021 10.7987H31.1949V3.59955C31.1949 3.44149 31.1637 3.28498 31.1032 3.13896C31.0428 2.99293 30.9541 2.86024 30.8423 2.74848C30.7306 2.63671 30.5979 2.54806 30.4519 2.48757C30.3058 2.42708 30.1493 2.39595 29.9913 2.39595H5.99799C5.68073 2.39892 5.37747 2.52703 5.15418 2.75243C4.93089 2.97783 4.80562 3.28228 4.80564 3.59955V10.7987H2.39844V3.59955C2.39844 2.64489 2.77767 1.72933 3.45272 1.05428C4.12777 0.379237 5.04333 0 5.99799 0H30.0025C30.9572 0 31.8727 0.379237 32.5478 1.05428C33.2228 1.72933 33.6021 2.64489 33.6021 3.59955V10.7987Z" fill="white" style="fill:white;fill-opacity:1;"/>
</g>
<defs>
<clipPath id="clip0_585_1255">
<rect width="36" height="36" fill="white" style="fill:white;fill-opacity:1;"/>
</clipPath>
</defs>
</svg>
