<svg width="36" height="36" viewBox="0 0 36 36" fill="none" xmlns="http://www.w3.org/2000/svg">
<g clip-path="url(#clip0_585_1068)">
<path d="M32.25 36H18V28.5H14.25V26.0325L25.125 16.905L36 26.0326V28.5001H32.25V36ZM19.5001 34.5H30.7501V27H34.5001V26.7375L25.125 18.87L15.75 26.7375V27H19.5001V34.5Z" fill="white" stroke="white" style="fill:white;fill-opacity:1;stroke:white;stroke-opacity:1;"/>
<path d="M15.75 36H0V24.1424C0 22.4024 1.01998 20.7974 2.5875 20.0624L9.47248 16.8524L10.1025 18.2099L3.21751 21.42C2.15252 21.9224 1.49248 22.9649 1.49248 24.1424V34.4999H15.7424V35.9999H15.75V36Z" fill="white" stroke="white" style="fill:white;fill-opacity:1;stroke:white;stroke-opacity:1;"/>
<path d="M6 26.25H7.49997V35.25H6V26.25Z" fill="white" stroke="white" style="fill:white;fill-opacity:1;stroke:white;stroke-opacity:1;"/>
<path d="M15.7425 16.5C14.37 16.5 13.005 16.3125 11.67 15.93C9.66002 15.3675 8.25 13.5 8.25 11.3925V5.24998C8.25 3.08248 9.75754 1.1625 11.9175 0.584995C13.7025 0.0975117 14.91 0.0525005 15.705 0.0224681C15.87 0.0149788 16.02 0.00748938 16.155 0C17.0025 0.00748938 17.865 0.0749687 18.645 0.17248L19.095 0.224981C20.52 0.397461 22.1325 0.599974 23.6025 0.397461C24.21 0.314928 24.8025 0.599974 25.1099 1.12498C25.4174 1.6425 25.3799 2.29497 25.0199 2.77496C24.5249 3.45747 23.9924 3.98997 23.5799 4.37245C23.4149 4.52246 23.295 4.61997 23.2499 4.65742V11.3849C23.2499 13.4924 21.8399 15.3599 19.8149 15.9299C18.4875 16.3125 17.115 16.5 15.7425 16.5ZM16.2 1.49997C16.1099 1.50746 15.945 1.51495 15.765 1.52244C14.9925 1.55247 13.935 1.58992 12.315 2.03247C10.8 2.43749 9.74997 3.7575 9.74997 5.24998V11.3925C9.74997 12.8324 10.71 14.1074 12.0825 14.49C14.4824 15.1725 17.0174 15.1725 19.41 14.49C20.79 14.1 21.75 12.825 21.75 11.3925V5.43751C18.4125 6.48003 12.0675 5.81999 11.0625 5.43751L11.595 4.03498C12.84 4.50748 20.64 4.95744 22.275 3.52495C22.32 3.48743 22.4175 3.41246 22.5675 3.27743C22.785 3.06742 23.3325 2.5574 23.8125 1.88994C22.1551 2.11493 20.4375 1.90492 18.915 1.71746L18.4575 1.66496C17.7375 1.56753 16.92 1.50746 16.2 1.49997Z" fill="white" stroke="white" style="fill:white;fill-opacity:1;stroke:white;stroke-opacity:1;"/>
<path d="M15.4732 32.9474L11.3482 31.2974L9.01562 20.4074L10.4856 20.0924L12.6531 30.2024L16.0282 31.5524L15.4732 32.9474Z" fill="white" stroke="white" style="fill:white;fill-opacity:1;stroke:white;stroke-opacity:1;"/>
<path d="M13.7175 23.7825L12.75 22.8075V19.845L15.75 17.85L18.4125 19.6275L17.5875 20.8725L15.75 19.65L14.25 20.655V22.1925L14.7825 22.7175L13.7175 23.7825Z" fill="white" stroke="white" style="fill:white;fill-opacity:1;stroke:white;stroke-opacity:1;"/>
</g>
<defs>
<clipPath id="clip0_585_1068">
<rect width="36" height="36" fill="white" style="fill:white;fill-opacity:1;"/>
</clipPath>
</defs>
</svg>
