<svg width="76" height="20" viewBox="0 0 76 20" fill="none" xmlns="http://www.w3.org/2000/svg">
<g clip-path="url(#clip0_834_6161)">
<path d="M42.7054 6.74023C42.7054 4.59209 42.7431 2.59209 42.8562 0.740234L37.0893 1.81431V2.33283L37.6546 2.4069C38.0693 2.44394 38.3331 2.59209 38.4839 2.81431C38.6346 3.07357 38.7477 3.44394 38.8231 3.99949C38.8985 5.07357 38.9739 7.51801 38.9362 11.3699C38.9362 15.1847 38.8985 17.5921 38.8231 18.518C40.8962 18.9625 42.517 19.1476 43.7231 19.1476C45.9846 19.1476 47.7562 18.518 49.0377 17.2217C50.3193 15.9625 50.9977 14.1847 50.9977 11.9995C50.9977 10.2588 50.5077 8.81431 49.5277 7.66616C48.5477 6.51801 47.3039 5.96246 45.8339 5.96246C44.8539 5.96246 43.8362 6.22172 42.7054 6.74023ZM42.8185 18.1476C42.7431 16.9625 42.6677 13.4069 42.6677 7.59209C43.007 7.48097 43.4593 7.4069 44.0247 7.4069C44.9293 7.4069 45.6454 7.85135 46.1731 8.77727C46.7008 9.7032 46.9646 10.8143 46.9646 12.2217C46.9646 13.9625 46.6631 15.3699 46.06 16.555C45.457 17.7032 44.7031 18.2958 43.7608 18.2958C43.4593 18.2217 43.1577 18.1847 42.8185 18.1476ZM15.4539 1.1106H0.376953V1.85135L1.16849 1.92542C1.77157 2.03653 2.18618 2.25875 2.45003 2.59209C2.71388 2.96246 2.86465 3.55505 2.90234 4.36986C3.20388 8.36986 3.20388 12.1106 2.90234 15.555C2.82695 16.3699 2.67618 16.9625 2.45003 17.3328C2.18618 17.7032 1.77157 17.9254 1.16849 17.9995L0.376953 18.1106V18.8513H10.1016V18.1106L9.08388 18.0365C8.83554 18.0161 8.59398 17.9465 8.37374 17.8319C8.1535 17.7174 7.95913 17.5602 7.80234 17.3699C7.53849 16.9995 7.38772 16.4069 7.35003 15.5921C7.23695 14.1106 7.16157 12.4069 7.16157 10.518L9.19695 10.555C10.29 10.5921 11.0439 11.4069 11.4208 13.0365H12.1746V6.99949H11.4208C11.0439 8.59209 10.3277 9.4069 9.19695 9.44394L7.16157 9.48098C7.16157 6.14764 7.23695 3.77727 7.35003 2.33283H10.3277C12.4385 2.33283 13.8708 3.66616 14.7 6.33283L15.6046 6.07357L15.4539 1.1106ZM13.6823 12.518C13.6823 14.4439 14.2477 16.0365 15.3408 17.2958C16.4339 18.555 18.0546 19.1476 20.09 19.1476C22.1254 19.1476 23.7839 18.518 24.99 17.2217C26.1962 15.9625 26.7616 14.3699 26.7616 12.4439C26.7616 10.518 26.1962 8.92542 25.1031 7.66616C24.01 6.4069 22.3893 5.81431 20.3539 5.81431C18.3185 5.81431 16.66 6.44394 15.4539 7.74023C14.2477 8.99949 13.6823 10.5921 13.6823 12.518ZM22.0877 8.29579C22.54 9.36986 22.7285 10.7773 22.7285 12.481C22.7285 16.4069 21.8993 18.3328 20.2785 18.3328C19.4493 18.3328 18.8085 17.7773 18.3562 16.6662C17.9039 15.555 17.7154 14.1476 17.7154 12.481C17.7154 8.59209 18.5446 6.66616 20.1654 6.66616C20.9946 6.62912 21.6354 7.18468 22.0877 8.29579ZM53.9377 17.2958C55.1816 18.518 56.7647 19.1476 58.6493 19.1476C59.8177 19.1476 60.8354 18.9254 61.74 18.4439C62.6447 17.9995 63.3608 17.4439 63.8508 16.7773L63.4739 16.3328C62.6446 16.9625 61.7023 17.2588 60.6093 17.2588C59.1016 17.2588 57.9331 16.7773 57.1416 15.7773C56.3123 14.7773 55.9354 13.518 56.0108 11.8884H64.077C64.077 10.1106 63.6247 8.66616 62.6823 7.51801C61.74 6.4069 60.4208 5.85135 58.7247 5.85135C56.6139 5.85135 54.9931 6.51801 53.8247 7.81431C52.6562 9.1106 52.0908 10.7032 52.0908 12.5921C52.0908 14.518 52.6939 16.0736 53.9377 17.2958ZM56.727 7.99949C57.1416 7.1106 57.6693 6.66616 58.3854 6.66616C59.5162 6.66616 60.0816 8.07357 60.0816 10.9254L56.0862 10.9995C56.1239 9.88838 56.3123 8.88838 56.727 7.99949ZM74.2162 6.51801C73.1985 6.07357 71.917 5.81431 70.3716 5.81431C68.7885 5.81431 67.5446 6.22172 66.6023 6.99949C65.66 7.77727 65.17 8.74023 65.17 9.88838C65.17 10.8884 65.4716 11.6662 66.037 12.2217C66.6023 12.7773 67.507 13.2588 68.6754 13.6662C69.7308 14.0365 70.4846 14.4069 70.8616 14.7402C71.2385 15.1106 71.4647 15.518 71.4647 16.0736C71.4647 16.5921 71.2762 17.0736 70.8616 17.4439C70.4846 17.8513 69.957 18.0365 69.2785 18.0365C67.62 18.0365 66.3762 16.8513 65.5093 14.481L64.8685 14.6662L65.0193 18.3699C66.3762 18.8884 67.8839 19.1476 69.5423 19.1476C71.2762 19.1476 72.5954 18.7773 73.5754 17.9995C74.5554 17.2588 75.0454 16.1847 75.0454 14.8513C75.0454 13.9625 74.8193 13.2217 74.3293 12.6662C73.8393 12.1106 73.0477 11.6291 71.917 11.1847C70.6731 10.7402 69.8062 10.3328 69.3539 9.96246C68.9016 9.59209 68.6754 9.14764 68.6754 8.59209C68.6754 8.03653 68.8262 7.59209 69.1654 7.22172C69.5047 6.85135 69.9193 6.7032 70.447 6.7032C71.9547 6.7032 73.0477 7.77727 73.7262 9.88838L74.367 9.7032L74.2162 6.51801ZM37.9562 6.18468C37.4285 5.92542 36.8631 5.81431 36.2223 5.81431C35.5816 5.81431 34.9408 6.07357 34.2247 6.59209C33.5085 7.1106 32.9808 7.81431 32.5662 8.77727L32.6039 5.81431L26.8746 6.92542V7.44394L27.44 7.48098C28.1562 7.55505 28.5708 8.1106 28.6462 9.1106C28.8723 11.4069 28.8723 13.8513 28.6462 16.4439C28.5708 17.4439 28.1562 17.9625 27.44 18.0736L26.8746 18.1476V18.8513H34.8654V18.1476L33.8477 18.0736C33.1316 17.9995 32.717 17.4439 32.6416 16.4439C32.4154 14.2958 32.3777 11.9995 32.5662 9.62912C32.7923 9.25875 33.2823 9.03653 34.0362 8.96246C34.79 8.88838 35.657 9.1106 36.5616 9.62912L37.9562 6.18468Z" fill="#33629A" style="fill:#33629A;fill:color(display-p3 0.2000 0.3843 0.6039);fill-opacity:1;"/>
</g>
<defs>
<clipPath id="clip0_834_6161">
<rect width="75.3846" height="20" fill="white" style="fill:white;fill-opacity:1;"/>
</clipPath>
</defs>
</svg>
