<svg width="100" height="36" viewBox="0 0 100 36" fill="none" xmlns="http://www.w3.org/2000/svg">
<path d="M7.71003 5.84573C5.78024 6.65352 3.65875 8.93562 2.98871 11.8001C2.14016 15.4296 5.67137 16.9644 5.961 16.4612C6.30189 15.8698 5.32825 15.6699 5.12783 13.7867C4.86881 11.3545 5.99955 8.63678 7.42262 7.44432C7.68714 7.22277 7.67456 7.53113 7.67456 8.1015C7.67456 9.12145 7.6182 18.2776 7.6182 20.1885C7.6182 22.7742 7.5114 23.5907 7.31959 24.3976C7.12525 25.2152 6.81281 25.7677 7.04956 25.9805C7.31407 26.2185 8.44344 25.6523 9.09725 24.7398C9.88126 23.6454 10.1557 22.331 10.205 20.9037C10.2645 19.1831 10.2619 16.4528 10.2645 14.8955C10.2669 13.4672 10.2885 9.28481 10.2394 6.77052C10.2274 6.15382 8.51708 5.50681 7.70994 5.84498M76.237 17.9466C76.1748 19.2908 75.8772 20.3415 75.5079 21.0826C74.793 22.5174 73.3095 22.9629 72.6796 20.9004C72.3363 19.7761 72.3203 17.8984 72.5671 16.3295C72.8183 14.7313 73.5197 13.5242 74.6813 13.6331C75.8269 13.7407 76.3632 15.2169 76.237 17.9466ZM56.9233 26.2866C56.9077 28.5201 56.5562 30.4784 55.8024 31.0472C54.7332 31.8537 53.2962 31.2488 53.5937 29.6189C53.857 28.1767 55.1022 26.7038 56.9263 24.9041C56.9263 24.9041 56.93 25.3145 56.9233 26.2866ZM56.6313 17.9336C56.5659 19.1579 56.2485 20.3879 55.9022 21.0828C55.1874 22.5176 53.6931 22.9661 53.0738 20.9006C52.6504 19.4893 52.7518 17.6628 52.9613 16.5119C53.2332 15.0187 53.8921 13.6334 55.0755 13.6334C56.2261 13.6334 56.7934 14.8956 56.6313 17.9336ZM45.4428 17.9148C45.3726 19.2115 45.1197 20.2955 44.7137 21.0828C43.9792 22.5077 42.5262 22.9596 41.8854 20.9006C41.4234 19.4158 41.5807 17.3914 41.7728 16.2978C42.058 14.6749 42.7722 13.5244 43.887 13.6334C45.0322 13.7453 45.5889 15.2169 45.4428 17.9148ZM96.717 19.4294C96.4371 19.4294 96.3093 19.718 96.2036 20.2037C95.837 21.8926 95.4517 22.2739 94.9548 22.2739C94.3997 22.2739 93.9009 21.4377 93.7727 19.7636C93.6719 18.4473 93.6881 16.0239 93.817 13.6132C93.8433 13.1179 93.7067 12.6279 92.3782 12.1453C91.8065 11.9377 90.9756 11.632 90.5619 12.6307C89.3929 15.4522 88.9355 17.6923 88.8279 18.6023C88.8223 18.6494 88.7646 18.659 88.7544 18.549C88.6859 17.8201 88.5326 16.4957 88.5135 13.7131C88.5098 13.1702 88.3948 12.708 87.7956 12.3297C87.4068 12.0842 86.226 11.65 85.8009 12.1665C85.4325 12.589 85.0059 13.7259 84.5627 15.0736C84.2025 16.1689 83.9515 16.9099 83.9515 16.9099C83.9515 16.9099 83.9563 13.9544 83.9606 12.8334C83.9625 12.4105 83.6724 12.2695 83.585 12.244C83.1912 12.1297 82.4155 11.9388 82.0862 11.9388C81.6799 11.9388 81.5804 12.1659 81.5804 12.4968C81.5804 12.5401 81.5163 16.3879 81.5163 19.0785C81.5163 19.1954 81.5163 19.3229 81.5175 19.4584C81.2928 20.695 80.564 22.3737 79.7715 22.3737C78.978 22.3737 78.6036 21.6719 78.6036 18.4643C78.6036 16.593 78.6598 15.7794 78.6874 14.426C78.7034 13.6465 78.7344 13.0479 78.7326 12.912C78.7268 12.4954 78.0064 12.2855 77.6713 12.2079C77.3345 12.1296 77.0418 12.0993 76.8133 12.1123C76.4899 12.1306 76.2611 12.3428 76.2611 12.6346C76.2611 12.7911 76.2628 13.0886 76.2628 13.0886C75.8463 12.434 75.1762 11.9784 74.7304 11.8463C73.5297 11.4897 72.2768 11.8057 71.3317 13.1282C70.5806 14.1789 70.1278 15.369 69.9496 17.0788C69.8193 18.3288 69.8618 19.5964 70.0934 20.6684C69.8136 21.8781 69.2942 22.3737 68.7254 22.3737C67.8997 22.3737 67.3011 21.0259 67.3706 18.695C67.4164 17.1619 67.7232 16.086 68.0585 14.5295C68.2015 13.8659 68.0854 13.5186 67.794 13.1856C67.5267 12.8803 66.9573 12.7243 66.1388 12.9161C65.5557 13.0529 64.722 13.2 63.9593 13.313C63.9593 13.313 64.0054 13.1294 64.0431 12.8057C64.2415 11.1079 62.3966 11.2457 61.808 11.7879C61.4566 12.1117 61.2175 12.4935 61.1267 13.1801C60.9828 14.2695 61.8713 14.7834 61.8713 14.7834C61.5798 16.1179 60.8652 17.8612 60.1274 19.1216C59.7322 19.7969 59.4299 20.2973 59.0396 20.8292C59.0382 20.6311 59.0371 20.4331 59.0364 20.2359C59.0275 17.4303 59.0648 15.2222 59.0813 14.4263C59.0974 13.6467 59.1286 13.064 59.1269 12.9282C59.1225 12.6234 58.9445 12.5084 58.5745 12.3627C58.2472 12.2338 57.8603 12.1446 57.459 12.1135C56.9524 12.074 56.6472 12.3427 56.6551 12.6604C56.6567 12.7204 56.6567 13.0888 56.6567 13.0888C56.2401 12.4341 55.5701 11.9785 55.1243 11.8464C53.9235 11.49 52.6706 11.806 51.7256 13.1283C50.9746 14.179 50.4828 15.6535 50.3434 17.0659C50.2136 18.3823 50.2376 19.501 50.4146 20.4434C50.2236 21.387 49.6747 22.3738 49.054 22.3738C48.2605 22.3738 47.809 21.672 47.809 18.4644C47.809 16.5932 47.8652 15.7795 47.8928 14.4263C47.9088 13.6467 47.9398 13.048 47.938 12.9123C47.9322 12.4957 47.2118 12.2857 46.8767 12.208C46.5259 12.1269 46.2231 12.097 45.9906 12.1142C45.6839 12.137 45.4682 12.4117 45.4682 12.6166V13.0888C45.0516 12.4341 44.3816 11.9785 43.9358 11.8464C42.7351 11.49 41.4891 11.8111 40.5371 13.1283C39.9163 13.9872 39.4136 14.9394 39.155 17.0472C39.0802 17.6563 39.0472 18.2267 39.0515 18.7599C38.8039 20.2739 37.7105 22.0189 36.816 22.0189C36.2927 22.0189 35.7942 21.0038 35.7942 18.8402C35.7942 15.9582 35.9726 11.8549 36.0027 11.4594C36.0027 11.4594 37.1328 11.4402 37.3517 11.4376C37.9154 11.4314 38.4259 11.4448 39.1767 11.4064C39.5533 11.3872 39.9161 10.0357 39.5274 9.86842C39.3513 9.79272 38.1063 9.72639 37.6127 9.71591C37.1977 9.70651 36.0424 9.62101 36.0424 9.62101C36.0424 9.62101 36.146 6.8974 36.1701 6.60969C36.1906 6.36989 35.8804 6.24642 35.7025 6.17151C35.2698 5.98853 34.8828 5.90092 34.424 5.80634C33.7901 5.67558 33.5026 5.80348 33.4464 6.33846C33.3618 7.15038 33.318 9.52848 33.318 9.52848C32.8528 9.52848 31.2639 9.43756 30.7986 9.43756C30.3663 9.43756 29.8998 11.2967 30.4974 11.3196C31.1851 11.3462 32.3834 11.3692 33.1779 11.3932C33.1779 11.3932 33.1425 15.5641 33.1425 16.8518C33.1425 16.9888 33.1437 17.1208 33.1439 17.2488C32.7067 19.5277 31.1667 20.7587 31.1667 20.7587C31.4974 19.2511 30.8218 18.1189 29.6049 17.1605C29.1566 16.8074 28.2715 16.1388 27.2812 15.4061C27.2812 15.4061 27.8548 14.8408 28.3634 13.7036C28.7238 12.898 28.7394 11.9761 27.8548 11.7729C26.3931 11.4367 25.188 12.5102 24.8285 13.6561C24.55 14.5439 24.6985 15.2027 25.2442 15.887C25.284 15.937 25.3272 15.9881 25.3717 16.0395C25.0418 16.6754 24.5886 17.5316 24.2047 18.1956C23.1392 20.039 22.3342 21.4972 21.7259 21.4972C21.2397 21.4972 21.2462 20.0168 21.2462 18.6307C21.2462 17.4358 21.3344 15.6394 21.4049 13.7794C21.4282 13.1643 21.1207 12.8139 20.605 12.4965C20.2918 12.3037 19.6232 11.9246 19.2359 11.9246C18.6563 11.9246 16.9842 12.0034 15.4041 16.5738C15.205 17.1499 14.8138 18.1995 14.8138 18.1995L14.8475 12.7035C14.8475 12.5746 14.7789 12.45 14.6217 12.3648C14.3555 12.2202 13.6444 11.9246 13.012 11.9246C12.7108 11.9246 12.5604 12.0647 12.5604 12.344L12.5053 20.9427C12.5053 21.596 12.5223 22.3582 12.5869 22.6915C12.6513 23.0253 12.7555 23.2968 12.8847 23.4584C13.0136 23.6196 13.1627 23.7426 13.4087 23.7934C13.6375 23.8405 14.8908 24.0014 14.956 23.5225C15.034 22.9485 15.037 22.3277 15.6951 20.0122C16.7197 16.4074 18.0555 14.6485 18.6834 14.0238C18.7932 13.9147 18.9186 13.9081 18.9126 14.0868C18.8858 14.8772 18.7915 16.852 18.728 18.5298C18.5579 23.0197 19.3747 23.8519 20.542 23.8519C21.435 23.8519 22.6938 22.9647 24.0432 20.7186C24.8845 19.3189 25.7013 17.9464 26.2882 16.9572C26.6971 17.3358 27.1561 17.7433 27.6147 18.1786C28.6805 19.1902 29.0305 20.1514 28.7983 21.0633C28.6207 21.7604 27.952 22.4788 26.7617 21.7805C26.4148 21.5768 26.2667 21.4194 25.9179 21.1898C25.7305 21.0664 25.4443 21.0295 25.2728 21.1588C24.8272 21.4948 24.5723 21.9221 24.4268 22.4512C24.2852 22.9661 24.8008 23.2382 25.3353 23.4763C25.7955 23.6812 26.7847 23.8668 27.4156 23.888C29.8735 23.9702 31.8425 22.7012 33.2132 19.4279C33.4585 22.2548 34.5028 23.8545 36.317 23.8545C37.53 23.8545 38.7461 22.2866 39.2779 20.7443C39.4305 21.373 39.6565 21.9197 39.9484 22.3821C41.3464 24.597 44.0584 24.1203 45.4207 22.2394C45.8419 21.6582 45.906 21.4494 45.906 21.4494C46.1047 23.2254 47.5349 23.8459 48.3538 23.8459C49.2709 23.8459 50.2178 23.4124 50.8815 21.9182C50.9593 22.0804 51.0442 22.2352 51.1369 22.382C52.5349 24.597 55.2469 24.1202 56.6091 22.2394C56.6734 22.1511 56.7291 22.0711 56.7778 21.9993L56.8178 23.1658C56.8178 23.1658 56.0407 23.8788 55.5636 24.3161C53.464 26.2424 51.8675 27.7039 51.7501 29.4058C51.5993 31.5758 53.3593 32.3823 54.6908 32.488C56.1048 32.6002 57.3157 31.8191 58.06 30.726C58.7146 29.7638 59.1431 27.6929 59.1117 25.6476C59.0991 24.8286 59.0785 23.7872 59.0623 22.6709C59.8003 21.8139 60.6317 20.7308 61.3973 19.4629C62.2316 18.0812 63.1257 16.2258 63.5835 14.7817C63.5835 14.7817 64.3604 14.7884 65.1894 14.7341C65.4546 14.7168 65.5308 14.7709 65.4817 14.9654C65.4225 15.2002 64.4343 19.0119 65.3362 21.5511C65.9535 23.2893 67.3452 23.8486 68.1702 23.8486C69.1361 23.8486 70.0601 23.1192 70.5552 22.0361C70.6149 22.1568 70.6772 22.2737 70.7453 22.3815C72.1433 24.5965 74.8458 24.1169 76.2176 22.2389C76.5272 21.8152 76.7029 21.4489 76.7029 21.4489C76.9973 23.2869 78.4267 23.8548 79.2454 23.8548C80.0983 23.8548 80.9076 23.5051 81.5643 21.9513C81.5918 22.6355 81.635 23.1949 81.7032 23.3712C81.7448 23.4791 81.9871 23.6145 82.1634 23.6799C82.9436 23.9692 83.7393 23.8324 84.0337 23.7729C84.2376 23.7316 84.3967 23.568 84.4184 23.1455C84.4755 22.0362 84.4405 20.1724 84.7767 18.7873C85.3412 16.4627 85.8678 15.561 86.1176 15.1145C86.2574 14.8644 86.4152 14.8232 86.4209 15.0879C86.4327 15.6235 86.4593 17.1964 86.678 19.3096C86.8386 20.8638 87.0531 21.7825 87.218 22.0732C87.6886 22.9046 88.2697 22.944 88.743 22.944C89.044 22.944 89.6736 22.8608 89.6172 22.3317C89.5898 22.0738 89.6379 20.48 90.1944 18.1898C90.5579 16.6942 91.1638 15.3429 91.3823 14.8489C91.4629 14.6667 91.5004 14.8103 91.4991 14.8383C91.4531 15.8682 91.3498 19.2371 91.7694 21.0796C92.3381 23.5756 93.9835 23.8549 94.5569 23.8549C95.781 23.8549 96.7821 22.9238 97.1193 20.4739C97.2005 19.8843 97.0802 19.429 96.7198 19.429" fill="#262626" style="fill:#262626;fill:color(display-p3 0.1490 0.1490 0.1490);fill-opacity:1;"/>
</svg>
