<svg width="40" height="41" viewBox="0 0 40 41" fill="none" xmlns="http://www.w3.org/2000/svg">
<g clip-path="url(#clip0_834_6084)">
<path d="M13.9862 7.22333L15.8512 8.74167L15.1145 10.9567C14.8845 11.6867 15.1429 12.485 15.7562 12.945C16.0712 13.18 16.4462 13.3033 16.8379 13.3033C17.1962 13.3033 17.5429 13.1983 17.8429 12.9983L20.0179 11.5417L22.2345 12.9867C22.8762 13.4033 23.7145 13.3683 24.3212 12.9033C24.9279 12.435 25.1745 11.6317 24.9279 10.8917L24.1695 8.73167L26.0262 7.21833C26.6045 6.73167 26.8195 5.92833 26.5595 5.21833C26.2995 4.50833 25.6195 4.03167 24.8629 4.03167H22.5329L21.6945 1.67833C21.4345 0.973333 20.7545 0.5 20.0029 0.5C19.2512 0.5 18.5712 0.973333 18.3062 1.68667L17.4712 4.03H15.1412C14.3862 4.03 13.7062 4.505 13.4462 5.21C13.1845 5.91667 13.3962 6.72333 13.9862 7.22333ZM15.1412 5.69667H18.0579C18.4095 5.69667 18.7245 5.475 18.8429 5.14333L19.8762 2.24667H20.1262L21.1595 5.14333C21.2779 5.475 21.5929 5.69667 21.9445 5.69667H24.8612L24.9612 5.93333L22.6612 7.80833C22.3895 8.03 22.2845 8.39833 22.4012 8.73L23.3529 11.4433L23.1412 11.59L20.4645 9.84667C20.1845 9.66333 19.8245 9.66833 19.5462 9.85167L16.9145 11.6133C16.8845 11.6333 16.8562 11.6367 16.8362 11.6367L16.6995 11.4683L17.6145 8.72C17.7229 8.39167 17.6179 8.02833 17.3495 7.81167L15.0379 5.93167L15.1412 5.69667ZM39.8929 10.0367C39.6329 9.32667 38.9529 8.85 38.1962 8.85H35.8662L35.0279 6.49667C34.7679 5.79167 34.0879 5.31833 33.3362 5.31833C32.5845 5.31833 31.9045 5.79167 31.6395 6.505L30.8045 8.84833H28.4745C27.7195 8.84833 27.0379 9.325 26.7812 10.0283C26.5195 10.7367 26.7295 11.54 27.3195 12.04L29.1845 13.5583L28.4479 15.7733C28.2179 16.5033 28.4762 17.3017 29.0879 17.76C29.4012 17.9967 29.7762 18.12 30.1712 18.12C30.5295 18.12 30.8762 18.015 31.1762 17.815L33.3512 16.3583L35.5679 17.8033C36.2079 18.22 37.0479 18.185 37.6545 17.72C38.2612 17.2517 38.5079 16.4483 38.2612 15.7083L37.5029 13.5483L39.3595 12.035C39.9379 11.5483 40.1529 10.7467 39.8929 10.0367ZM35.9962 12.6267C35.7245 12.8483 35.6195 13.2167 35.7362 13.5483L36.6879 16.2617L36.4762 16.4083L33.7995 14.665C33.5195 14.4833 33.1579 14.4867 32.8812 14.67L30.2495 16.4317C30.2195 16.4517 30.1912 16.455 30.1712 16.455L30.0345 16.2867L30.9495 13.5383C31.0579 13.21 30.9529 12.8467 30.6845 12.63L28.3729 10.75L28.4762 10.5167H31.3929C31.7445 10.5167 32.0595 10.295 32.1779 9.96333L33.2112 7.06667H33.4612L34.4945 9.96333C34.6129 10.295 34.9279 10.5167 35.2795 10.5167H38.1962L38.2962 10.7533L35.9962 12.6267ZM8.89953 17.805C9.5412 18.2217 10.3795 18.1867 10.9862 17.7217C11.5929 17.2533 11.8395 16.45 11.5929 15.71L10.8345 13.55L12.6912 12.0367C13.2695 11.55 13.4845 10.7467 13.2245 10.0367C12.9645 9.32667 12.2845 8.85 11.5279 8.85H9.19787L8.35953 6.49667C8.09953 5.79167 7.41953 5.31833 6.66787 5.31833C5.9162 5.31833 5.2362 5.79167 4.9712 6.505L4.1362 8.84833H1.8062C1.0512 8.84833 0.369534 9.325 0.112867 10.0283C-0.1488 10.7367 0.0612002 11.54 0.6512 12.04L2.5162 13.5583L1.77953 15.7733C1.54953 16.5033 1.80787 17.3017 2.41953 17.76C2.73287 17.9967 3.10787 18.12 3.50287 18.12C3.8612 18.12 4.20787 18.015 4.50787 17.815L6.68287 16.3583L8.89953 17.8033V17.805ZM6.21287 14.67L3.5812 16.4317C3.5512 16.4517 3.52287 16.455 3.50287 16.455L3.3662 16.2867L4.2812 13.5383C4.38953 13.21 4.28453 12.8467 4.0162 12.63L1.70453 10.75L1.80787 10.5167H4.72453C5.0762 10.5167 5.3912 10.295 5.50953 9.96333L6.54287 7.06667H6.79287L7.8262 9.96333C7.94453 10.295 8.25953 10.5167 8.6112 10.5167H11.5279L11.6279 10.7533L9.32787 12.6283C9.0562 12.85 8.9512 13.2183 9.06787 13.55L10.0195 16.2633L9.80787 16.41L7.1312 14.6667C6.85287 14.485 6.4912 14.4883 6.21287 14.6717V14.67ZM28.3345 23.8333H21.3629L22.3412 18.2833C22.3668 17.7189 22.3668 17.4228 22.3412 17.395C22.1395 16.655 21.6712 16.0717 21.0229 15.7533C20.3662 15.4333 19.6095 15.42 18.8879 15.72C18.4645 15.895 18.0512 16.3317 17.7562 16.9067L14.0962 23.8317H11.6695C8.91287 23.8317 6.66953 26.075 6.66953 28.8317V35.4983C6.66953 38.255 8.91287 40.4983 11.6695 40.4983H25.6345C28.8012 40.4983 31.5512 38.2433 32.1729 35.1383L33.2379 29.8117C33.5329 28.3367 33.1545 26.825 32.2012 25.6617C31.2479 24.4983 29.8395 23.8317 28.3345 23.8317V23.8333ZM8.3362 35.5V28.8333C8.3362 26.995 9.8312 25.5 11.6695 25.5H13.3362V38.8333H11.6695C9.8312 38.8333 8.3362 37.3383 8.3362 35.5ZM31.6029 29.4867L30.5379 34.8133C30.0712 37.1417 28.0095 38.8333 25.6345 38.8333H15.0029V25.2317C15.2379 25.08 15.4345 24.8683 15.5695 24.6117L19.2362 17.6767C19.3929 17.37 19.5395 17.2583 19.5312 17.2583C19.8029 17.145 20.0712 17.1433 20.2895 17.25C20.4562 17.3317 20.5879 17.475 20.7012 17.735L19.7245 23.5417C19.6379 24.0283 19.7695 24.5233 20.0879 24.905C20.4062 25.2833 20.8712 25.5 21.3645 25.5H28.3362C29.3395 25.5 30.2779 25.945 30.9129 26.72C31.5495 27.495 31.7995 28.5033 31.6029 29.4867Z" fill="#0E88EC" style="fill:#0E88EC;fill:color(display-p3 0.0553 0.5317 0.9262);fill-opacity:1;"/>
</g>
<defs>
<clipPath id="clip0_834_6084">
<rect width="40" height="40" fill="white" style="fill:white;fill-opacity:1;" transform="translate(0 0.5)"/>
</clipPath>
</defs>
</svg>
