<svg width="36" height="36" viewBox="0 0 36 36" fill="none" xmlns="http://www.w3.org/2000/svg">
<rect x="0.375" y="0.375" width="35.25" height="35.25" rx="17.625" fill="white" style="fill:white;fill-opacity:1;"/>
<rect x="0.375" y="0.375" width="35.25" height="35.25" rx="17.625" stroke="white" style="stroke:white;stroke-opacity:1;" stroke-width="0.75"/>
<path d="M17.8636 11.826C19.8311 11.826 20.0641 11.8347 20.8379 11.8691C21.557 11.9008 21.9453 12.0216 22.2041 12.1223C22.5465 12.2546 22.7938 12.4157 23.0498 12.6717C23.3087 12.9306 23.4669 13.1751 23.5992 13.5174C23.6999 13.7763 23.8207 14.1675 23.8524 14.8836C23.8868 15.6603 23.8955 15.8933 23.8955 17.8579C23.8955 19.8254 23.8868 20.0584 23.8524 20.8321C23.8207 21.5512 23.6999 21.9395 23.5992 22.1984C23.4669 22.5407 23.3059 22.7881 23.0498 23.0441C22.7909 23.303 22.5465 23.4612 22.2041 23.5935C21.9453 23.6942 21.5541 23.8149 20.8379 23.8466C20.0613 23.8811 19.8283 23.8897 17.8636 23.8897C15.8962 23.8897 15.6632 23.8811 14.8894 23.8466C14.1703 23.8149 13.782 23.6942 13.5231 23.5935C13.1809 23.4612 12.9334 23.3001 12.6774 23.0441C12.4186 22.7852 12.2604 22.5407 12.128 22.1984C12.0274 21.9395 11.9066 21.5483 11.8749 20.8321C11.8404 20.0555 11.8318 19.8225 11.8318 17.8579C11.8318 15.8904 11.8404 15.6574 11.8749 14.8836C11.9066 14.1646 12.0274 13.7763 12.128 13.5174C12.2604 13.1751 12.4215 12.9277 12.6774 12.6717C12.9363 12.4128 13.1809 12.2546 13.5231 12.1223C13.782 12.0216 14.1732 11.9008 14.8894 11.8691C15.6632 11.8347 15.8962 11.826 17.8636 11.826ZM17.8636 10.5C15.8645 10.5 15.6143 10.5087 14.829 10.5431C14.0466 10.5777 13.5087 10.7042 13.0428 10.8854C12.5567 11.0753 12.1453 11.3255 11.7368 11.7368C11.3255 12.1453 11.0753 12.5567 10.8854 13.0399C10.7042 13.5087 10.5777 14.0437 10.5431 14.8261C10.5087 15.6143 10.5 15.8645 10.5 17.8636C10.5 19.8627 10.5087 20.113 10.5431 20.8982C10.5777 21.6806 10.7042 22.2186 10.8854 22.6845C11.0753 23.1706 11.3255 23.582 11.7368 23.9904C12.1453 24.3989 12.5567 24.652 13.0399 24.839C13.5087 25.0202 14.0437 25.1467 14.8261 25.1812C15.6114 25.2157 15.8616 25.2244 17.8608 25.2244C19.8599 25.2244 20.1101 25.2157 20.8954 25.1812C21.6778 25.1467 22.2157 25.0202 22.6817 24.839C23.1649 24.652 23.5762 24.3989 23.9847 23.9904C24.3931 23.582 24.6462 23.1706 24.8332 22.6874C25.0144 22.2186 25.141 21.6835 25.1755 20.9011C25.21 20.1159 25.2186 19.8656 25.2186 17.8665C25.2186 15.8674 25.21 15.6172 25.1755 14.8319C25.141 14.0495 25.0144 13.5116 24.8332 13.0456C24.652 12.5567 24.4017 12.1453 23.9904 11.7368C23.582 11.3284 23.1706 11.0753 22.6874 10.8883C22.2186 10.7071 21.6835 10.5806 20.9011 10.546C20.113 10.5087 19.8627 10.5 17.8636 10.5Z" fill="#0A4A7F" style="fill:#0A4A7F;fill:color(display-p3 0.0392 0.2902 0.4980);fill-opacity:1;"/>
<path fill-rule="evenodd" clip-rule="evenodd" d="M22.1603 11.7275H13.5694C12.5527 11.7275 11.7285 12.5517 11.7285 13.5684V22.1594C11.7285 23.1761 12.5527 24.0003 13.5694 24.0003H22.1603C23.177 24.0003 24.0012 23.1761 24.0012 22.1594V13.5684C24.0012 12.5517 23.177 11.7275 22.1603 11.7275ZM17.8645 14.0814C15.7763 14.0814 14.082 15.7757 14.082 17.8639C14.082 19.9522 15.7763 21.6465 17.8645 21.6465C19.9528 21.6465 21.6471 19.9522 21.6471 17.8639C21.6471 15.7757 19.9528 14.0814 17.8645 14.0814ZM17.8645 20.3175C16.5098 20.3175 15.411 19.2187 15.411 17.8639C15.411 16.5092 16.5098 15.4104 17.8645 15.4104C19.2193 15.4104 20.3181 16.5092 20.3181 17.8639C20.3181 19.2187 19.2193 20.3175 17.8645 20.3175ZM21.7971 14.8148C22.2832 14.8148 22.6802 14.4207 22.6802 13.9317C22.6802 13.4457 22.2832 13.0487 21.7971 13.0487C21.311 13.0487 20.9141 13.4428 20.9141 13.9317C20.9141 14.4179 21.3081 14.8148 21.7971 14.8148Z" fill="#0A4A7F" style="fill:#0A4A7F;fill:color(display-p3 0.0392 0.2902 0.4980);fill-opacity:1;"/>
</svg>
