<svg width="46" height="45" viewBox="0 0 46 45" fill="none" xmlns="http://www.w3.org/2000/svg">
<rect x="0.875" y="0.375" width="44.25" height="44.25" rx="22.125" stroke="white" stroke-opacity="0.2" style="stroke:white;stroke-opacity:0.2;" stroke-width="0.75"/>
<path d="M22.8295 14.7825C25.2889 14.7825 25.5801 14.7933 26.5473 14.8364C27.4462 14.876 27.9316 15.027 28.2552 15.1529C28.6831 15.3183 28.9923 15.5196 29.3123 15.8396C29.6358 16.1632 29.8337 16.4689 29.999 16.8967C30.1248 17.2203 30.2759 17.7093 30.3154 18.6045C30.3586 19.5754 30.3694 19.8666 30.3694 22.3223C30.3694 24.7817 30.3586 25.073 30.3154 26.0401C30.2759 26.939 30.1248 27.4244 29.999 27.748C29.8337 28.1759 29.6323 28.4851 29.3123 28.8051C28.9887 29.1287 28.6831 29.3265 28.2552 29.4918C27.9316 29.6177 27.4426 29.7687 26.5473 29.8082C25.5766 29.8514 25.2853 29.8622 22.8295 29.8622C20.3702 29.8622 20.079 29.8514 19.1118 29.8082C18.2129 29.7687 17.7275 29.6177 17.4039 29.4918C16.9761 29.3265 16.6668 29.1251 16.3468 28.8051C16.0232 28.4815 15.8255 28.1759 15.66 27.748C15.5343 27.4244 15.3832 26.9354 15.3436 26.0401C15.3005 25.0694 15.2897 24.7781 15.2897 22.3223C15.2897 19.863 15.3005 19.5718 15.3436 18.6045C15.3832 17.7057 15.5343 17.2203 15.66 16.8967C15.8255 16.4689 16.0268 16.1596 16.3468 15.8396C16.6704 15.516 16.9761 15.3183 17.4039 15.1529C17.7275 15.027 18.2165 14.876 19.1118 14.8364C20.079 14.7933 20.3702 14.7825 22.8295 14.7825ZM22.8295 13.125C20.3307 13.125 20.0179 13.1358 19.0363 13.1789C18.0583 13.2221 17.3859 13.3803 16.8035 13.6068C16.1958 13.8441 15.6817 14.1569 15.1711 14.6711C14.6569 15.1816 14.3441 15.6958 14.1068 16.2999C13.8803 16.8859 13.7221 17.5547 13.6789 18.5327C13.6358 19.5179 13.625 19.8307 13.625 22.3295C13.625 24.8284 13.6358 25.1412 13.6789 26.1228C13.7221 27.1008 13.8803 27.7732 14.1068 28.3557C14.3441 28.9633 14.6569 29.4775 15.1711 29.988C15.6817 30.4986 16.1958 30.815 16.7999 31.0487C17.3859 31.2752 18.0547 31.4334 19.0327 31.4766C20.0143 31.5197 20.3271 31.5305 22.8259 31.5305C25.3248 31.5305 25.6376 31.5197 26.6192 31.4766C27.5972 31.4334 28.2696 31.2752 28.8521 31.0487C29.4561 30.815 29.9703 30.4986 30.4808 29.988C30.9914 29.4775 31.3078 28.9633 31.5415 28.3592C31.768 27.7732 31.9262 27.1044 31.9693 26.1264C32.0125 25.1448 32.0233 24.832 32.0233 22.3331C32.0233 19.8343 32.0125 19.5215 31.9693 18.5399C31.9262 17.5619 31.768 16.8895 31.5415 16.307C31.315 15.6958 31.0022 15.1816 30.488 14.6711C29.9775 14.1605 29.4633 13.8441 28.8592 13.6104C28.2732 13.3839 27.6044 13.2257 26.6264 13.1825C25.6412 13.1358 25.3284 13.125 22.8295 13.125Z" fill="white" style="fill:white;fill-opacity:1;"/>
<path fill-rule="evenodd" clip-rule="evenodd" d="M28.1999 14.6592H17.4613C16.1904 14.6592 15.1602 15.6894 15.1602 16.9603V27.699C15.1602 28.9698 16.1904 30.0001 17.4613 30.0001H28.1999C29.4708 30.0001 30.5011 28.9698 30.5011 27.699V16.9603C30.5011 15.6894 29.4708 14.6592 28.1999 14.6592ZM22.8297 17.6016C20.2194 17.6016 18.1016 19.7194 18.1016 22.3297C18.1016 24.9401 20.2194 27.0579 22.8297 27.0579C25.44 27.0579 27.5579 24.9401 27.5579 22.3297C27.5579 19.7194 25.44 17.6016 22.8297 17.6016ZM22.8297 25.3967C21.1362 25.3967 19.7628 24.0232 19.7628 22.3297C19.7628 20.6363 21.1362 19.2628 22.8297 19.2628C24.5232 19.2628 25.8967 20.6363 25.8967 22.3297C25.8967 24.0232 24.5232 25.3967 22.8297 25.3967ZM27.7444 18.5183C28.3521 18.5183 28.8483 18.0257 28.8483 17.4144C28.8483 16.8069 28.3521 16.3107 27.7444 16.3107C27.1368 16.3107 26.6406 16.8033 26.6406 17.4144C26.6406 18.0221 27.1331 18.5183 27.7444 18.5183Z" fill="white" style="fill:white;fill-opacity:1;"/>
</svg>
