<svg width="46" height="45" viewBox="0 0 46 45" fill="none" xmlns="http://www.w3.org/2000/svg">
<g clip-path="url(#clip0_1060_2954)">
<path d="M23 45C35.4264 45 45.5 34.9264 45.5 22.5C45.5 10.0736 35.4264 0 23 0C10.5736 0 0.5 10.0736 0.5 22.5C0.5 34.9264 10.5736 45 23 45Z" fill="#0A4A7F" style="fill:#0A4A7F;fill:color(display-p3 0.0392 0.2902 0.4980);fill-opacity:1;"/>
<path d="M32.668 12.8311H13.8728C12.5807 12.8311 11.5234 13.8883 11.5234 15.1805V29.2769C11.5234 30.569 12.5807 31.6263 13.8728 31.6263H32.668C33.9602 31.6263 35.0174 30.569 35.0174 29.2769V15.1805C35.0174 13.8883 33.9602 12.8311 32.668 12.8311ZM32.1981 17.8236L24.5156 22.628C23.7521 23.1097 22.7888 23.1097 22.0252 22.628L14.3427 17.8236C14.2249 17.7574 14.1218 17.6681 14.0395 17.5609C13.9572 17.4538 13.8976 17.3311 13.8641 17.2002C13.8306 17.0694 13.8241 16.933 13.8448 16.7996C13.8656 16.6661 13.9132 16.5382 13.9848 16.4236C14.0563 16.3091 14.1505 16.2103 14.2613 16.1331C14.3722 16.056 14.4976 16.0022 14.6299 15.9749C14.7622 15.9477 14.8987 15.9475 15.0311 15.9745C15.1634 16.0015 15.2889 16.0551 15.3999 16.132L23.2704 21.054L31.1409 16.132C31.252 16.0551 31.3774 16.0015 31.5098 15.9745C31.6422 15.9475 31.7786 15.9477 31.9109 15.9749C32.0432 16.0022 32.1686 16.056 32.2795 16.1331C32.3904 16.2103 32.4845 16.3091 32.5561 16.4236C32.6277 16.5382 32.6753 16.6661 32.696 16.7996C32.7168 16.933 32.7102 17.0694 32.6767 17.2002C32.6433 17.3311 32.5836 17.4538 32.5014 17.5609C32.4191 17.6681 32.3159 17.7574 32.1981 17.8236Z" fill="white" style="fill:white;fill-opacity:1;"/>
</g>
<defs>
<clipPath id="clip0_1060_2954">
<rect width="45" height="45" fill="white" style="fill:white;fill-opacity:1;" transform="translate(0.5)"/>
</clipPath>
</defs>
</svg>
