<svg width="36" height="36" viewBox="0 0 36 36" fill="none" xmlns="http://www.w3.org/2000/svg">
<rect x="0.375" y="0.375" width="35.25" height="35.25" rx="17.625" fill="white" style="fill:white;fill-opacity:1;"/>
<rect x="0.375" y="0.375" width="35.25" height="35.25" rx="17.625" stroke="white" style="stroke:white;stroke-opacity:1;" stroke-width="0.75"/>
<g clip-path="url(#clip0_674_17291)">
<path d="M24.8626 14.4851C24.7005 13.8827 24.2255 13.4078 23.6232 13.2456C22.5227 12.9445 18.1209 12.9445 18.1209 12.9445C18.1209 12.9445 13.7193 12.9445 12.6188 13.2341C12.0281 13.3962 11.5415 13.8828 11.3794 14.4851C11.0898 15.5855 11.0898 17.8674 11.0898 17.8674C11.0898 17.8674 11.0898 20.1609 11.3794 21.2498C11.5417 21.8521 12.0165 22.327 12.6189 22.4893C13.7309 22.7904 18.1211 22.7904 18.1211 22.7904C18.1211 22.7904 22.5227 22.7904 23.6232 22.5008C24.2256 22.3386 24.7005 21.8637 24.8628 21.2614C25.1523 20.1609 25.1523 17.879 25.1523 17.879C25.1523 17.879 25.1638 15.5855 24.8626 14.4851ZM16.7195 19.9756V15.7593L20.3798 17.8674L16.7195 19.9756Z" fill="#0A4A7F" style="fill:#0A4A7F;fill:color(display-p3 0.0392 0.2902 0.4980);fill-opacity:1;"/>
</g>
<defs>
<clipPath id="clip0_674_17291">
<rect width="15" height="15" fill="white" style="fill:white;fill-opacity:1;" transform="translate(10.627 10.5)"/>
</clipPath>
</defs>
</svg>
