<svg width="46" height="45" viewBox="0 0 46 45" fill="none" xmlns="http://www.w3.org/2000/svg">
<rect x="0.875" y="0.375" width="44.25" height="44.25" rx="22.125" stroke="white" stroke-opacity="0.2" style="stroke:white;stroke-opacity:0.2;" stroke-width="0.75"/>
<g clip-path="url(#clip0_1060_2978)">
<path d="M29.8626 18.985C29.7005 18.3826 29.2255 17.9076 28.6232 17.7454C27.5227 17.4443 23.1209 17.4443 23.1209 17.4443C23.1209 17.4443 18.7193 17.4443 17.6188 17.734C17.0281 17.8961 16.5415 18.3826 16.3794 18.985C16.0898 20.0853 16.0898 22.3673 16.0898 22.3673C16.0898 22.3673 16.0898 24.6608 16.3794 25.7497C16.5417 26.352 17.0165 26.8269 17.6189 26.9891C18.7309 27.2903 23.1211 27.2903 23.1211 27.2903C23.1211 27.2903 27.5227 27.2903 28.6232 27.0006C29.2256 26.8385 29.7005 26.3636 29.8628 25.7612C30.1523 24.6608 30.1523 22.3789 30.1523 22.3789C30.1523 22.3789 30.1638 20.0853 29.8626 18.985ZM21.7195 24.4755V20.2592L25.3798 22.3673L21.7195 24.4755Z" fill="white" style="fill:white;fill-opacity:1;"/>
</g>
<defs>
<clipPath id="clip0_1060_2978">
<rect width="15" height="15" fill="white" style="fill:white;fill-opacity:1;" transform="translate(15.627 15)"/>
</clipPath>
</defs>
</svg>
