<svg width="104" height="121" viewBox="0 0 104 121" fill="none" xmlns="http://www.w3.org/2000/svg">
<path d="M7.57324 103.178L0 119.911H2.37615L4.2958 115.637H12.782L14.6783 119.911H17.1481L9.57483 103.178H7.57324ZM11.8573 113.541H5.22051L8.55648 106.105L11.8573 113.541Z" fill="white" style="fill:white;fill-opacity:1;"/>
<path d="M26.3597 116.844L20.7763 103.295H18.2363L25.3765 120.04H27.2961L34.448 103.295H31.9782L26.3597 116.844Z" fill="white" style="fill:white;fill-opacity:1;"/>
<path d="M43.1006 103.178L35.5273 119.911H37.9035L39.8231 115.637H48.3094L50.2056 119.911H52.6754L45.1139 103.178H43.1006ZM47.3964 113.541H40.7596L44.0955 106.105L47.3964 113.541Z" fill="white" style="fill:white;fill-opacity:1;"/>
<path d="M57.5559 103.295H55.2734V119.923H66.6509V117.769H57.5559V103.295Z" fill="white" style="fill:white;fill-opacity:1;"/>
<path d="M77.3261 103.025C74.868 103.025 72.8196 103.88 71.2277 105.555C69.6358 107.229 68.8281 109.267 68.8281 111.609C68.8281 113.963 69.6241 116.012 71.2043 117.675C72.7845 119.349 74.8212 120.192 77.2793 120.192C79.7373 120.192 81.7857 119.338 83.3777 117.663C84.9696 115.988 85.7772 113.951 85.7772 111.609C85.7772 109.255 84.9813 107.206 83.4011 105.543C81.8326 103.869 79.7842 103.025 77.3261 103.025ZM77.3261 118.049C75.5703 118.049 74.0954 117.417 72.9366 116.188C71.7778 114.946 71.1926 113.412 71.1926 111.621C71.1926 109.817 71.7778 108.272 72.9132 107.03C74.0486 105.801 75.5235 105.18 77.2793 105.18C79.035 105.18 80.5099 105.812 81.6687 107.042C82.8275 108.283 83.4128 109.817 83.4128 111.609C83.4128 113.412 82.8275 114.958 81.6921 116.188C80.5567 117.429 79.0818 118.049 77.3261 118.049Z" fill="white" style="fill:white;fill-opacity:1;"/>
<path d="M101.041 103.295V115.801L91.2203 103.295H89.1602V119.923H91.4075V107.112L101.415 119.83L101.486 119.923H103.288V103.295H101.041Z" fill="white" style="fill:white;fill-opacity:1;"/>
<path d="M60.6 92.1937H96.2305L60.6819 0H51.6455H42.6091L7.06055 92.1937H42.6911V75.3311H31.6999L51.6455 24.1697L71.5911 75.3311H60.6V92.1937Z" fill="white" style="fill:white;fill-opacity:1;"/>
</svg>
