<svg width="16" height="16" viewBox="0 0 16 16" fill="none" xmlns="http://www.w3.org/2000/svg">
<g clip-path="url(#clip0_597_5233)">
<path d="M14.875 7.37501H8.62499V1.12499C8.62499 0.779814 8.34518 0.5 8 0.5C7.65482 0.5 7.37501 0.779814 7.37501 1.12499V7.37498H1.12499C0.779814 7.37501 0.5 7.65482 0.5 8C0.5 8.34518 0.779814 8.62499 1.12499 8.62499H7.37498V14.875C7.37498 15.2202 7.65479 15.5 7.99997 15.5C8.34515 15.5 8.62496 15.2202 8.62496 14.875V8.62499H14.875C15.2201 8.62499 15.4999 8.34518 15.4999 8C15.5 7.65482 15.2202 7.37501 14.875 7.37501Z" fill="white" style="fill:white;fill-opacity:1;"/>
</g>
<defs>
<clipPath id="clip0_597_5233">
<rect width="15" height="15" fill="white" style="fill:white;fill-opacity:1;" transform="translate(0.5 0.5)"/>
</clipPath>
</defs>
</svg>
