<svg width="24" height="17" viewBox="0 0 24 17" fill="none" xmlns="http://www.w3.org/2000/svg">
<path d="M21.8 4.4C20.4667 4.4 19.5 4.6 18.9 5C18.3 5.4 18 6.03334 18 6.9V7.25H18.3C19.8667 7.25 21.0833 7.61667 21.95 8.35C22.8167 9.08333 23.25 10.2333 23.25 11.8C23.25 13.2333 22.8167 14.3167 21.95 15.05C21.1167 15.7833 19.85 16.15 18.15 16.15C16.45 16.15 15.1667 15.7833 14.3 15.05C13.4333 14.2833 13 13.0667 13 11.4V7.8C13 5 13.6833 3 15.05 1.8C16.4167 0.6 18.6667 0 21.8 0V4.4ZM8.8 4.4C7.46667 4.4 6.5 4.6 5.9 5C5.3 5.4 5 6.03334 5 6.9V7.25H5.3C6.86667 7.25 8.08333 7.61667 8.95 8.35C9.81667 9.08333 10.25 10.2333 10.25 11.8C10.25 13.2333 9.81667 14.3167 8.95 15.05C8.11667 15.7833 6.85 16.15 5.15 16.15C3.45 16.15 2.16667 15.7833 1.3 15.05C0.433333 14.2833 0 13.0667 0 11.4V7.8C0 5 0.683333 3 2.05 1.8C3.41667 0.6 5.66667 0 8.8 0V4.4Z" fill="#0E88EC" style="fill:#0E88EC;fill:color(display-p3 0.0553 0.5317 0.9262);fill-opacity:1;"/>
</svg>
