<svg width="62" height="62" viewBox="0 0 62 62" fill="none" xmlns="http://www.w3.org/2000/svg">
<g clip-path="url(#clip0_840_6962)">
<path d="M50.375 10.3333H15.5V6.45833C15.5 2.8985 12.6041 0 9.04167 0H7.75C3.47717 0 0 3.47717 0 7.75V54.4489C0 58.8199 3.42808 62 8.11942 62H50.375C56.7842 62 62 56.7842 62 50.375V21.9583C62 15.5491 56.7842 10.3333 50.375 10.3333ZM2.58333 7.75C2.58333 4.90058 4.90058 2.58333 7.75 2.58333H9.04167C11.1781 2.58333 12.9167 4.32192 12.9167 6.45833V42.625C12.9167 44.7614 11.1781 46.5 9.04167 46.5H7.75C5.83833 46.5 3.99642 47.2104 2.58333 48.4737V7.75ZM59.4167 50.375C59.4167 55.3686 55.3686 59.4167 50.375 59.4167H7.75C4.89542 59.4167 2.58333 57.1046 2.58333 54.25C2.58333 51.3954 4.89542 49.0833 7.75 49.0833H9.04167C12.6093 49.0833 15.5 46.1926 15.5 42.625V12.9167H50.375C55.3686 12.9167 59.4167 16.9648 59.4167 21.9583V50.375Z" fill="white" style="fill:white;fill-opacity:1;"/>
<path d="M54.2513 21.958V50.3747C54.2513 52.5111 52.5127 54.2497 50.3763 54.2497H24.543C22.4066 54.2497 20.668 52.5111 20.668 50.3747V21.958C20.668 19.8216 22.4066 18.083 24.543 18.083H27.1263C27.8393 18.083 28.418 18.6617 28.418 19.3747C28.418 20.0877 27.8393 20.6663 27.1263 20.6663H24.543C23.8326 20.6663 23.2513 21.245 23.2513 21.958V28.4163H27.1263C27.8393 28.4163 28.418 28.995 28.418 29.708C28.418 30.421 27.8393 30.9997 27.1263 30.9997H23.2513V50.3747C23.2513 51.0877 23.8326 51.6663 24.543 51.6663H36.168V38.7497H32.293C31.58 38.7497 31.0013 38.171 31.0013 37.458C31.0013 36.745 31.58 36.1663 32.293 36.1663H42.6263C43.3393 36.1663 43.918 36.745 43.918 37.458C43.918 38.171 43.3393 38.7497 42.6263 38.7497H38.7513V51.6663H50.3763C51.0867 51.6663 51.668 51.0877 51.668 50.3747V21.958C51.668 21.245 51.0867 20.6663 50.3763 20.6663H40.043C39.3326 20.6663 38.7513 21.245 38.7513 21.958V27.1247C38.7513 27.8377 38.1726 28.4163 37.4596 28.4163C36.7466 28.4163 36.168 27.8377 36.168 27.1247V21.958C36.168 19.8216 37.9066 18.083 40.043 18.083H50.3763C52.5127 18.083 54.2513 19.8216 54.2513 21.958Z" fill="#0E88EC" style="fill:#0E88EC;fill:color(display-p3 0.0553 0.5317 0.9262);fill-opacity:1;"/>
</g>
<defs>
<clipPath id="clip0_840_6962">
<rect width="62" height="62" fill="white" style="fill:white;fill-opacity:1;"/>
</clipPath>
</defs>
</svg>
