<svg width="31" height="30" viewBox="0 0 31 30" fill="none" xmlns="http://www.w3.org/2000/svg">
<path d="M25.5759 6.23494C24.665 4.40916 23.2939 2.86774 21.6108 1.7772C19.8164 0.614529 17.704 0 15.502 0C13.2999 0 11.1875 0.614529 9.39306 1.7772C7.70996 2.86768 6.33888 4.40916 5.42792 6.23494C4.51597 8.0627 4.10869 10.0881 4.25008 12.0921C4.4009 14.2285 5.18165 16.2892 6.50804 18.0514L15.5019 30L24.4958 18.0514C25.8222 16.2892 26.6029 14.2285 26.7537 12.0921C26.8952 10.0881 26.488 8.06276 25.5759 6.23494ZM23.5435 6.1982L20.518 10.2176C20.0278 7.89835 17.9651 6.15232 15.502 6.15232C15.3782 6.15232 15.2555 6.15701 15.1339 6.16568L18.1761 2.12407C20.3982 2.75395 22.2866 4.17391 23.5435 6.1982ZM15.502 7.91013C17.3597 7.91013 18.8711 9.42149 18.8711 11.2793C18.8711 13.137 17.3597 14.6484 15.502 14.6484C13.6442 14.6484 12.1328 13.137 12.1328 11.2793C12.1328 9.42149 13.6441 7.91013 15.502 7.91013ZM15.502 1.75781C15.7475 1.75781 15.9906 1.76724 16.2315 1.78458L11.9341 7.49364L8.44977 4.87094C10.2128 2.88889 12.713 1.75781 15.502 1.75781ZM7.00081 7.01974C7.12696 6.76691 7.26319 6.52292 7.40692 6.28603L10.877 8.89801L6.58298 14.6027C5.65157 12.1706 5.77509 9.47639 7.00081 7.01974ZM7.46715 16.351L10.4858 12.3407C10.976 14.66 13.0388 16.4062 15.502 16.4062C15.6257 16.4062 15.7483 16.4015 15.8699 16.3929L11.6648 21.9794L7.91252 16.9944C7.75409 16.7839 7.60637 16.569 7.46715 16.351ZM23.0914 16.9943L15.502 27.0771L12.7649 23.4408L24.4156 7.96274C25.5686 11.0152 25.0998 14.326 23.0914 16.9943Z" fill="white" style="fill:white;fill-opacity:1;"/>
</svg>
